<svg xmlns="http://www.w3.org/2000/svg" viewBox="-0.49416400980317365 -22.668300669585022 23.07629026472352 23.11830066958502"  style="background-color:#000000; stroke:#000000; stroke-width:.04; " > 
<path  style="fill:rgb(0,0,255); " fill-rule="evenodd"   d="M 0.55 -0.55 L 0.55 -1.45 1.45 -1.45 1.45 -0.55 Z"  />
<path  style="fill:rgb(13,3,242); " fill-rule="evenodd"   d="M 0.603506820501141 -1.598780670375757 L 0.590153227404463 -2.492713493695602 1.493882727508834 -2.508302931906627 1.503455904770423 -1.608353847637346 Z"  />
<path  style="fill:rgb(27,15,228); " fill-rule="evenodd"   d="M 0.583383837159351 -2.587237876656683 L 0.538692513176601 -3.481038838394406 1.426474234071127 -3.540756928713402 1.481688561643598 -2.642452204229154 Z"  />
<path  style="fill:rgb(40,36,215); " fill-rule="evenodd"   d="M 0.690482352739303 -3.620936730902215 L 0.652984697952343 -4.508310005739816 1.525453292929886 -4.581573774242338 1.588286344504656 -3.683769782476984 Z"  />
<path  style="fill:rgb(54,47,201); " fill-rule="evenodd"   d="M 0.636689903669548 -4.61469021250541 L 0.586161412317837 -5.477867096049457 1.535522815246298 -5.515855789448107 1.536689147929271 -4.615856545188383 Z"  />
<path  style="fill:rgb(67,9,188); " fill-rule="evenodd"   d="M 0.830065242534535 -5.594176478137771 L 0.744108006888105 -6.499430712627612 1.576354242465146 -6.625220962426674 1.718731984644292 -5.736554220316918 Z"  />
<path  style="fill:rgb(81,31,174); " fill-rule="evenodd"   d="M 0.786749434516587 -6.619625060528865 L 0.828925259375167 -7.51335544952129 1.68396781883274 -7.522398105565719 1.68674514919309 -6.622402390889215 Z"  />
<path  style="fill:rgb(94,30,161); " fill-rule="evenodd"   d="M 0.73968464280269 -7.658277149049202 L 0.505835990196826 -8.563857003414425 1.395690226500709 -8.748990986018837 1.613044353136517 -7.87563127568501 Z"  />
<path  style="fill:rgb(107,97,148); " fill-rule="evenodd"   d="M 0.72978388185818 -8.73883196092727 L 0.518337834217668 -9.531847990523332 1.281497371703179 -9.885833366821371 1.579141329727731 -9.036475918951822 Z"  />
<path  style="fill:rgb(121,34,134); " fill-rule="evenodd"   d="M 0.951974459425535 -9.54711262784828 L 0.759297296039469 -10.451334801032765 1.635222472429503 -10.620971162631204 1.830527733318981 -9.742417888737759 Z"  />
<path  style="fill:rgb(134,63,121); " fill-rule="evenodd"   d="M 0.737249719217314 -10.648565469333828 L 0.628411696476713 -11.644044029962044 1.505123419390258 -11.663636885827618 1.628722277550681 -10.77216432749425 Z"  />
<path  style="fill:rgb(148,133,107); " fill-rule="evenodd"   d="M 1.394439115766048 -11.690279122971777 L 0.78678832106363 -12.47716063683099 1.709676770935073 -12.923415457998658 2.168626110864002 -12.149228462900705 Z"  />
<path  style="fill:rgb(161,95,94); " fill-rule="evenodd"   d="M 0.71130258711029 -13.172289303731356 L 0.758143732189552 -13.954749502227664 1.480516766169266 -14.186345291699782 1.602937670623992 -13.294710208186082 Z"  />
<path  style="fill:rgb(174,47,81); " fill-rule="evenodd"   d="M 0.819288734412268 -13.963706722505433 L 0.567019448978366 -14.678695658150552 1.58605461623647 -14.979615223538056 1.710625925840681 -14.088278032109644 Z"  />
<path  style="fill:rgb(188,30,67); " fill-rule="evenodd"   d="M 1.274195902686157 -14.614347995720022 L 1.017182890815752 -15.627362694710579 2.010406376871944 -15.652612960793553 2.161433622315816 -14.765375241163895 Z"  />
<path  style="fill:rgb(201,175,54); " fill-rule="evenodd"   d="M 1.307932489643922 -15.67253146607832 L 1.178552644871884 -16.621907047706756 2.070794587258098 -16.691374643423927 2.198785127123815 -15.800522005944037 Z"  />
<path  style="fill:rgb(215,67,40); " fill-rule="evenodd"   d="M 0.931926383552607 -16.934403836668608 L 0.538003554865423 -17.5217558493701 1.009382161796054 -18.20483707081226 1.605870889746157 -17.53089256461871 Z"  />
<path  style="fill:rgb(228,25,27); " fill-rule="evenodd"   d="M 1.468128377353445 -17.94300312195846 L 0.591726439381246 -18.521991460848774 1.337191016700254 -19.209042381849386 2.035679326972314 -18.641491432230517 Z"  />
<path  style="fill:rgb(242,238,13); " fill-rule="evenodd"   d="M 1.241477478413866 -18.79451375232362 L 0.755629537560636 -19.421102201994874 1.741775845593226 -19.964856242280156 2.076797906981815 -19.12953581371221 Z"  />
<path  style="fill:rgb(255,96,0); " fill-rule="evenodd"   d="M 1.670124230454073 -20.09391227749224 L 1.005207218797571 -20.75285082764097 2.0053473495802 -21.32176628363603 2.45166279308903 -20.540227721001074 Z"  />
<path  style="fill:rgb(0,0,255); " fill-rule="evenodd"   d="M 1.55 -0.55 L 1.55 -1.45 2.45 -1.45 2.45 -0.55 Z"  />
<path  style="fill:rgb(13,10,242); " fill-rule="evenodd"   d="M 1.600616227409738 -1.548812376896409 L 1.576262942613206 -2.437488997189168 2.465688309370735 -2.482434512994128 2.499963336439096 -1.58308740396477 Z"  />
<path  style="fill:rgb(27,17,228); " fill-rule="evenodd"   d="M 1.637913756495483 -2.566174969228231 L 1.588295598717859 -3.44698917940648 2.510025272768311 -3.493224861728256 2.537494460881909 -2.593644157341829 Z"  />
<path  style="fill:rgb(40,28,215); " fill-rule="evenodd"   d="M 1.609910707782277 -3.582846501482174 L 1.547807473700563 -4.495857283873587 2.472427898609718 -4.51882945833937 2.509160781624595 -3.619579384497051 Z"  />
<path  style="fill:rgb(54,29,201); " fill-rule="evenodd"   d="M 1.634809830148001 -4.56496631399314 L 1.547309741057824 -5.483325853389244 2.461668826385418 -5.532594445219828 2.532053393880053 -4.635350881487775 Z"  />
<path  style="fill:rgb(67,8,188); " fill-rule="evenodd"   d="M 1.704268957806434 -5.705292100562734 L 1.554683680870348 -6.550828258480433 2.405553486796149 -6.767459700049593 2.585995022044721 -5.885733635811307 Z"  />
<path  style="fill:rgb(81,44,174); " fill-rule="evenodd"   d="M 1.851222540114525 -6.617040929606417 L 1.696546864648898 -7.504344907597066 2.576617585391899 -7.662890836757073 2.73684501632854 -6.777268360543059 Z"  />
<path  style="fill:rgb(94,32,161); " fill-rule="evenodd"   d="M 1.706119519608876 -7.57932286195614 L 1.558570287179948 -8.47311450351857 2.468921219455812 -8.598211259529997 2.596964568319274 -7.707366210819601 Z"  />
<path  style="fill:rgb(107,30,148); " fill-rule="evenodd"   d="M 1.722912525306238 -8.67157799353555 L 1.525043805604033 -9.577997073604724 2.384635597665031 -9.758832598266215 2.597401363850968 -8.884343759721487 Z"  />
<path  style="fill:rgb(121,7,134); " fill-rule="evenodd"   d="M 1.921950999059932 -9.884871836403573 L 1.555250027299492 -10.69249353698096 2.400148273070534 -11.064417243384087 2.75082233955549 -10.23554590288853 Z"  />
<path  style="fill:rgb(134,21,121); " fill-rule="evenodd"   d="M 1.660701740282452 -10.609141251368374 L 1.513086554648369 -11.583942321786026 2.454630706006204 -11.603966259791871 2.555078727356078 -10.709589272718247 Z"  />
<path  style="fill:rgb(148,91,107); " fill-rule="evenodd"   d="M 2.0896639657203 -11.989051116899935 L 1.915432652986191 -12.847694477412444 2.758057280586919 -13.072217944605443 2.965444037006364 -12.19643787331938 Z"  />
<path  style="fill:rgb(161,108,94); " fill-rule="evenodd"   d="M 1.956673051320573 -13.1628585925109 L 1.848812848440054 -14.036751889947821 2.782366703687726 -14.131481322184632 2.853831242341015 -13.23432313116419 Z"  />
<path  style="fill:rgb(174,42,81); " fill-rule="evenodd"   d="M 2.161419650546806 -13.719781659287266 L 1.541099502476957 -14.48536581124033 2.491305014300661 -14.949080502848501 2.94101175420435 -14.169488399190957 Z"  />
<path  style="fill:rgb(188,164,67); " fill-rule="evenodd"   d="M 2.019595484620247 -14.529159071502866 L 1.713781682495348 -15.457934539417504 2.780909946214429 -15.549159213937935 2.910252786634873 -14.658501911923311 Z"  />
<path  style="fill:rgb(201,51,54); " fill-rule="evenodd"   d="M 2.461537647536135 -16.232781821847784 L 2.197293532717874 -17.031964048755476 2.883535729642286 -17.43358056381029 3.272936059570462 -16.62218215177596 Z"  />
<path  style="fill:rgb(215,135,40); " fill-rule="evenodd"   d="M 2.355947863573888 -17.161590106091392 L 2.09453696057061 -18.23988127968967 3.202409409194176 -18.112117776275756 3.254442471476214 -17.21362316837343 Z"  />
<path  style="fill:rgb(228,37,27); " fill-rule="evenodd"   d="M 2.146867558719928 -17.996778612196294 L 1.730498885669194 -18.59854029019685 2.206578118557175 -19.268169444727313 2.812418254904062 -18.602618748543183 Z"  />
<path  style="fill:rgb(242,154,13); " fill-rule="evenodd"   d="M 2.212888931865654 -18.543099541026486 L 1.878436193920742 -19.604251807990366 2.600331195241772 -19.755489120555275 3.012804853318107 -18.955573199102822 Z"  />
<path  style="fill:rgb(255,63,0); " fill-rule="evenodd"   d="M 2.029425725970461 -20.51978548695669 L 1.636165423455407 -21.082281806381552 2.577980987792095 -21.668300669585022 2.877960948195446 -20.81976544736004 Z"  />
<path  style="fill:rgb(0,0,255); " fill-rule="evenodd"   d="M 2.55 -0.55 L 2.55 -1.45 3.45 -1.45 3.45 -0.55 Z"  />
<path  style="fill:rgb(13,4,242); " fill-rule="evenodd"   d="M 2.596645520965145 -1.548534805766484 L 2.566817499805005 -2.441308584770093 3.474142879679961 -2.470488375881878 3.496370985380251 -1.570762911466773 Z"  />
<path  style="fill:rgb(27,19,228); " fill-rule="evenodd"   d="M 2.592049368366159 -2.565410424261021 L 2.530328783397332 -3.458254660891197 3.419464211708144 -3.532563295847183 3.489333225830232 -2.63527943838311 Z"  />
<path  style="fill:rgb(40,15,215); " fill-rule="evenodd"   d="M 2.659622827067066 -3.557258040411255 L 2.625797557396687 -4.431864089054084 3.485161906258432 -4.526012513292734 3.556769603103489 -3.628865737256312 Z"  />
<path  style="fill:rgb(54,12,201); " fill-rule="evenodd"   d="M 2.745880715771052 -4.506692664645752 L 2.648410433396578 -5.428892402363087 3.511636015528294 -5.523363123001702 3.637093594827648 -4.632150243945106 Z"  />
<path  style="fill:rgb(67,54,188); " fill-rule="evenodd"   d="M 2.721467811464406 -5.513185649629062 L 2.514321436446398 -6.406370667585698 3.419662518646268 -6.577386829323595 3.602665754902603 -5.696188885885398 Z"  />
<path  style="fill:rgb(81,33,174); " fill-rule="evenodd"   d="M 2.752373245269904 -6.639765957176893 L 2.692085800130202 -7.61199700111912 3.520404904904514 -7.654717862342308 3.643865027669917 -6.763226079942296 Z"  />
<path  style="fill:rgb(94,23,161); " fill-rule="evenodd"   d="M 3.044014489944322 -7.584223044626251 L 2.801130064458148 -8.355475663854685 3.678624078259549 -8.687522945114951 3.912969234346286 -7.818568200712988 Z"  />
<path  style="fill:rgb(107,104,148); " fill-rule="evenodd"   d="M 2.699325490853375 -8.741400579444148 L 2.473256788569376 -9.521801189434504 3.360873332850858 -9.828761813233763 3.573780028746924 -8.954307275340216 Z"  />
<path  style="fill:rgb(121,21,134); " fill-rule="evenodd"   d="M 3.085255623087215 -9.518288480107245 L 2.702815403309658 -10.400620047473819 3.677145302158891 -10.645083318491068 3.944597881814965 -9.78574105976332 Z"  />
<path  style="fill:rgb(134,31,121); " fill-rule="evenodd"   d="M 3.034814888295788 -11.01853126729297 L 2.923834440708253 -11.81842055891696 3.728219633495877 -12.085859641943431 3.915181448221065 -11.205493082018156 Z"  />
<path  style="fill:rgb(148,27,107); " fill-rule="evenodd"   d="M 3.100538244380052 -11.973973781267 L 3.016796030153572 -12.853224246650637 3.852562687979125 -13.000842437049961 3.989984794071069 -12.111395887358945 Z"  />
<path  style="fill:rgb(161,157,94); " fill-rule="evenodd"   d="M 3.353984055382972 -13.015068925433377 L 2.969273476156499 -13.89472057494942 3.947358797022829 -14.141082431561891 4.213678179267158 -13.281388307677705 Z"  />
<path  style="fill:rgb(174,95,81); " fill-rule="evenodd"   d="M 3.430661745128468 -13.59838339373469 L 3.104483361306262 -14.33093707935152 3.985274916284763 -14.743985519422292 4.280769393550418 -13.893877871000344 Z"  />
<path  style="fill:rgb(188,38,67); " fill-rule="evenodd"   d="M 2.637485474016448 -15.140313093163014 L 2.553298269716317 -16.02280509808041 3.387392616021914 -16.168729000454025 3.526646998664687 -15.279567475805788 Z"  />
<path  style="fill:rgb(201,134,54); " fill-rule="evenodd"   d="M 3.046383621160023 -16.025614114186762 L 2.846277795291656 -16.852234745134012 3.824108375533666 -17.033157764077153 3.939017823292042 -16.140523561945137 Z"  />
<path  style="fill:rgb(215,52,40); " fill-rule="evenodd"   d="M 3.395172928382784 -16.63825790461746 L 3.01506077058781 -17.29757036442232 4.049650014887159 -17.729889593073207 4.268227315862845 -16.856835205593146 Z"  />
<path  style="fill:rgb(228,157,27); " fill-rule="evenodd"   d="M 2.979441391010594 -18.114087450397932 L 2.876559369554756 -18.832568234823746 3.543271267572004 -19.255181605275933 3.831903406730301 -18.402719589556227 Z"  />
<path  style="fill:rgb(242,182,13); " fill-rule="evenodd"   d="M 3.336908661278986 -18.74055898838447 L 2.826717546035166 -19.580147028089968 3.536144821592702 -19.997660795090454 4.065077644788836 -19.269491811580608 Z"  />
<path  style="fill:rgb(255,242,0); " fill-rule="evenodd"   d="M 3.508011697761653 -19.944949239580055 L 2.666515772517139 -20.723045849637067 3.258266839242511 -21.192998720026743 4.007164008725427 -20.69384640906297 Z"  />
<path  style="fill:rgb(0,0,255); " fill-rule="evenodd"   d="M 3.55 -0.55 L 3.55 -1.45 4.45 -1.45 4.45 -0.55 Z"  />
<path  style="fill:rgb(13,2,242); " fill-rule="evenodd"   d="M 3.57653512755488 -1.583973273164534 L 3.573531457047866 -2.489451079938754 4.469221377799625 -2.491228065725023 4.476505648957497 -1.591257544322406 Z"  />
<path  style="fill:rgb(27,21,228); " fill-rule="evenodd"   d="M 3.610102644310036 -2.631367017985886 L 3.54710712294556 -3.513418899857724 4.467863267983626 -3.571710951063086 4.509154922685432 -2.672658672687692 Z"  />
<path  style="fill:rgb(40,33,215); " fill-rule="evenodd"   d="M 3.764787519213112 -3.53288481708857 L 3.670327499781222 -4.463835738601574 4.608156567474919 -4.486157416313985 4.663108342956723 -3.587836592570375 Z"  />
<path  style="fill:rgb(54,39,201); " fill-rule="evenodd"   d="M 3.730514826719556 -4.578737421497825 L 3.554499239634107 -5.490445783722906 4.437700801883198 -5.636985027935871 4.6132316175204 -4.754268237135028 Z"  />
<path  style="fill:rgb(67,52,188); " fill-rule="evenodd"   d="M 3.793654640479912 -5.647711985038064 L 3.66523047640706 -6.50259874103546 4.534271338270672 -6.682838502403699 4.681526248058109 -5.794966894825501 Z"  />
<path  style="fill:rgb(81,41,174); " fill-rule="evenodd"   d="M 3.726795794820718 -6.6136986554483 L 3.600888623559162 -7.455584692881635 4.467579101755296 -7.648705946324588 4.614691093726151 -6.760810647419154 Z"  />
<path  style="fill:rgb(94,21,161); " fill-rule="evenodd"   d="M 3.882546514745301 -7.528252140705558 L 3.838308875899914 -8.413686069342617 4.698787173212847 -8.504853997894283 4.778967772573436 -7.608432740066147 Z"  />
<path  style="fill:rgb(107,95,148); " fill-rule="evenodd"   d="M 3.770115603634529 -8.622532309661725 L 3.682753865048781 -9.597271430582238 4.572864994728086 -9.61025363427658 4.665350961488736 -8.715018276422375 Z"  />
<path  style="fill:rgb(121,99,134); " fill-rule="evenodd"   d="M 4.154501766065084 -9.90044823246855 L 3.758536652015825 -10.65187829252905 4.550646711690136 -11.110022199638696 4.957361222462683 -10.307162743241099 Z"  />
<path  style="fill:rgb(134,69,121); " fill-rule="evenodd"   d="M 4.17298560232831 -10.893031305580873 L 3.975249431812891 -11.835254333944414 4.93901482990332 -11.90949538389394 5.064232255272349 -11.018248730949903 Z"  />
<path  style="fill:rgb(148,10,107); " fill-rule="evenodd"   d="M 4.161939174890264 -11.838303867719207 L 3.787308404483803 -12.728810973282796 4.570598699447162 -13.043707282758723 4.968970644688471 -12.236675812960517 Z"  />
<path  style="fill:rgb(161,27,94); " fill-rule="evenodd"   d="M 4.163847954876333 -12.600730217698384 L 3.968483769319873 -13.471800104767524 5.023856196807573 -13.53901899190936 5.062996462947442 -12.639870483838253 Z"  />
<path  style="fill:rgb(174,166,81); " fill-rule="evenodd"   d="M 4.20588933097615 -13.522036477028129 L 3.862587297904664 -14.25913654369391 4.462543809896252 -14.76868337108043 4.957540017462351 -14.01703268459423 Z"  />
<path  style="fill:rgb(188,25,67); " fill-rule="evenodd"   d="M 4.051608402174722 -14.984164495600544 L 3.502500969038492 -15.775504984408116 4.365152352038857 -16.21773256891616 4.825164413764597 -15.444176557326283 Z"  />
<path  style="fill:rgb(201,128,54); " fill-rule="evenodd"   d="M 4.462251354485703 -16.178164830053966 L 4.14718783183088 -16.873823313281342 4.651736125797866 -17.43677339566949 5.186298022949549 -16.71272672720565 Z"  />
<path  style="fill:rgb(215,41,40); " fill-rule="evenodd"   d="M 4.454347856705048 -16.491451374050648 L 4.073523479328204 -17.290454467024603 5.012435962376135 -17.635364686460484 5.305348565745513 -16.78436397742002 Z"  />
<path  style="fill:rgb(228,196,27); " fill-rule="evenodd"   d="M 4.208259479304594 -17.822961651577778 L 3.400506699944863 -18.57344907707604 4.345044568690831 -19.088382466690916 4.909362431554281 -18.387279514441232 Z"  />
<path  style="fill:rgb(242,25,13); " fill-rule="evenodd"   d="M 4.138698657986624 -18.50584872299018 L 3.536387001986174 -19.21643185236681 4.437064026551736 -19.743175723762814 4.906544842655498 -18.97532953909394 Z"  />
<path  style="fill:rgb(255,218,0); " fill-rule="evenodd"   d="M 4.374071525940124 -20.245376935295525 L 3.718217447862646 -20.77578912822385 4.417973002544986 -21.517411785585367 5.032039689387478 -20.859443622138016 Z"  />
<path  style="fill:rgb(0,0,255); " fill-rule="evenodd"   d="M 4.55 -0.55 L 4.55 -1.45 5.45 -1.45 5.45 -0.55 Z"  />
<path  style="fill:rgb(13,10,242); " fill-rule="evenodd"   d="M 4.576979714496858 -1.538425668663067 L 4.550079593169203 -2.444687381088699 5.44974493871486 -2.464860158195761 5.476579571372206 -1.565260301320414 Z"  />
<path  style="fill:rgb(27,3,228); " fill-rule="evenodd"   d="M 4.596479796833584 -2.633423811993644 L 4.521979320086596 -3.506475247674389 5.402398844236574 -3.618560598959322 5.492007714017918 -2.723032681774988 Z"  />
<path  style="fill:rgb(40,34,215); " fill-rule="evenodd"   d="M 4.689081671060674 -3.491087776178945 L 4.518371048502702 -4.39793582599498 5.445409569326166 -4.514790912007545 5.57909718810772 -3.6247753949605 Z"  />
<path  style="fill:rgb(54,50,201); " fill-rule="evenodd"   d="M 4.719750637725985 -4.428472963576949 L 4.588908091676737 -5.37214596656545 5.437045659188053 -5.479894787673127 5.604109060505108 -4.595536364894005 Z"  />
<path  style="fill:rgb(67,38,188); " fill-rule="evenodd"   d="M 4.65840109767355 -5.703753017591207 L 4.609165888707651 -6.636281330873517 5.503354406327086 -6.655621656740245 5.556812071574838 -5.757210682838958 Z"  />
<path  style="fill:rgb(81,1,174); " fill-rule="evenodd"   d="M 4.812552916495886 -6.588155653821728 L 4.649695704535161 -7.458387253171223 5.462093616254705 -7.682731772397693 5.684611325663279 -6.8106733632303 Z"  />
<path  style="fill:rgb(94,70,161); " fill-rule="evenodd"   d="M 4.764321213836075 -7.604462587050026 L 4.522485416381159 -8.422665862282047 5.318529282510681 -8.750260744063713 5.614324326680222 -7.900257631219567 Z"  />
<path  style="fill:rgb(107,98,148); " fill-rule="evenodd"   d="M 4.88605532795479 -8.94375694030724 L 4.658968295144733 -9.73986832905025 5.568600895437717 -10.01806208704601 5.764480685065639 -9.139636729935164 Z"  />
<path  style="fill:rgb(121,48,134); " fill-rule="evenodd"   d="M 4.997017567618012 -9.67575236347059 L 4.914374652836456 -10.489023823261764 5.799013965388845 -10.664085190995108 5.892182180265688 -9.768920578347434 Z"  />
<path  style="fill:rgb(134,70,121); " fill-rule="evenodd"   d="M 4.862688129318797 -10.783994708183767 L 4.974272283538458 -11.707986046901992 5.745043832714389 -11.701299680744839 5.762518467297129 -10.801469342766508 Z"  />
<path  style="fill:rgb(148,141,107); " fill-rule="evenodd"   d="M 4.949469303251175 -11.815444999864075 L 4.912970949978888 -12.78850605215756 5.690026056743853 -12.850614403805471 5.837332381968212 -11.962751325088435 Z"  />
<path  style="fill:rgb(161,67,94); " fill-rule="evenodd"   d="M 5.28298643002717 -12.84021036987761 L 4.90700084282288 -13.81505288117878 5.928358428986397 -13.937249559222899 6.15419202417943 -13.066043965070643 Z"  />
<path  style="fill:rgb(174,135,81); " fill-rule="evenodd"   d="M 4.544559914204229 -14.214797693336402 L 4.572360732238042 -15.053268284912852 5.38814468439807 -15.167879397859684 5.442893151562791 -14.269546160501124 Z"  />
<path  style="fill:rgb(188,167,67); " fill-rule="evenodd"   d="M 4.860529126634106 -14.764690689719622 L 4.75574387170189 -15.724543857550946 5.4853213389688 -15.873579634296993 5.72736970509014 -15.006739055840962 Z"  />
<path  style="fill:rgb(201,169,54); " fill-rule="evenodd"   d="M 5.102246020722891 -15.63525086496888 L 4.80681732482501 -16.451717230001577 5.688684825977854 -16.76489219197986 5.960286086855864 -15.906852125846891 Z"  />
<path  style="fill:rgb(215,16,40); " fill-rule="evenodd"   d="M 4.846059658931781 -16.50572671711187 L 4.653779815575358 -17.526264814629457 5.674810743381602 -17.471734812328076 5.743439248764796 -16.57435522249506 Z"  />
<path  style="fill:rgb(228,163,27); " fill-rule="evenodd"   d="M 5.626268901340706 -18.254350409391595 L 5.209650119685988 -19.162920399708042 6.270676341706004 -19.351956463858244 6.49727564875668 -18.48094971644227 Z"  />
<path  style="fill:rgb(242,144,13); " fill-rule="evenodd"   d="M 5.279073367077702 -18.37686910573939 L 4.650555455743684 -19.202226922360044 5.310359482640882 -19.649276736560964 5.930920240270078 -18.99742986336859 Z"  />
<path  style="fill:rgb(255,231,0); " fill-rule="evenodd"   d="M 5.376218559054227 -20.034354027592762 L 4.753165154671532 -20.93376250893114 5.463472018886659 -21.30415197756247 6.054744263955296 -20.6256262726614 Z"  />
<path  style="fill:rgb(0,0,255); " fill-rule="evenodd"   d="M 5.55 -0.55 L 5.55 -1.45 6.45 -1.45 6.45 -0.55 Z"  />
<path  style="fill:rgb(13,9,242); " fill-rule="evenodd"   d="M 5.614874505024014 -1.550398305747696 L 5.57852568214819 -2.441141010830175 6.479076757934518 -2.48482565234261 6.514189304776723 -1.585510852589902 Z"  />
<path  style="fill:rgb(27,19,228); " fill-rule="evenodd"   d="M 5.557272096916825 -2.614410285510878 L 5.565643422677154 -3.534615911805255 6.444467152782303 -3.527035582578548 6.457182273383399 -2.627125406111974 Z"  />
<path  style="fill:rgb(40,27,215); " fill-rule="evenodd"   d="M 5.698605207081348 -3.68139148335426 L 5.641991079831294 -4.548327037421894 6.503542479415568 -4.667330623264604 6.594043413203629 -3.771892417142322 Z"  />
<path  style="fill:rgb(54,49,201); " fill-rule="evenodd"   d="M 5.651530131926201 -4.587809560310519 L 5.568346534618821 -5.438106820890837 6.467554688992302 -5.564591993744432 6.547933627176207 -4.668188498494425 Z"  />
<path  style="fill:rgb(67,39,188); " fill-rule="evenodd"   d="M 5.836571272457803 -5.649754955616581 L 5.760997339208284 -6.547716063572992 6.696331721359714 -6.58827078952882 6.735709413864878 -5.689132648121746 Z"  />
<path  style="fill:rgb(81,40,174); " fill-rule="evenodd"   d="M 5.821866377108736 -6.76959651339982 L 5.648151045208489 -7.57761672116048 6.441572192328805 -7.88133600742818 6.68758903173295 -7.015613352803966 Z"  />
<path  style="fill:rgb(94,85,161); " fill-rule="evenodd"   d="M 6.059706344625726 -7.690102502767437 L 5.664076809031355 -8.55751682854602 6.603589127759927 -8.84083771045433 6.907015340036272 -7.993528715043785 Z"  />
<path  style="fill:rgb(107,99,148); " fill-rule="evenodd"   d="M 6.091420713679118 -8.845579198079138 L 5.878946288848435 -9.708889812716071 6.821149701686424 -9.88840977111669 6.977700494201548 -9.002129990594261 Z"  />
<path  style="fill:rgb(121,77,134); " fill-rule="evenodd"   d="M 5.6649133239593 -9.601045477651633 L 5.615972993582353 -10.560395139138166 6.441418695420864 -10.609529194967553 6.557407868348043 -9.717034650578812 Z"  />
<path  style="fill:rgb(134,93,121); " fill-rule="evenodd"   d="M 6.119519562286377 -10.44753061648863 L 5.652316723525697 -11.168305898640291 6.478114794206024 -11.668763378759808 6.90943355938179 -10.878849381664397 Z"  />
<path  style="fill:rgb(148,126,107); " fill-rule="evenodd"   d="M 5.981803146669778 -11.510693577987043 L 5.850101407238633 -12.442969231525593 6.840896751082071 -12.449819862816668 6.880913091290738 -11.55070991819571 Z"  />
<path  style="fill:rgb(161,51,94); " fill-rule="evenodd"   d="M 5.955301234523313 -12.48734474895051 L 5.606859436380406 -13.283405565421358 6.268962372025305 -13.720883030002604 6.728900943800356 -12.947283320725562 Z"  />
<path  style="fill:rgb(174,59,81); " fill-rule="evenodd"   d="M 6.2770922672587 -13.58761033656147 L 6.120840638184779 -14.433621847406624 7.121106033921738 -14.540312158583067 7.175450061601018 -13.64195436424075 Z"  />
<path  style="fill:rgb(188,18,67); " fill-rule="evenodd"   d="M 5.861552405499161 -14.911670196918012 L 5.49119028593023 -15.55277998110151 6.302156679076733 -16.105767292679147 6.678903090168515 -15.288416608009795 Z"  />
<path  style="fill:rgb(201,167,54); " fill-rule="evenodd"   d="M 5.784805601514775 -16.2622204277003 L 5.872192215741862 -17.0887903520078 6.568858850628937 -17.2648472289347 6.678145626689057 -16.371507203760416 Z"  />
<path  style="fill:rgb(215,200,40); " fill-rule="evenodd"   d="M 6.172990424911802 -16.581723807927823 L 5.832595038784134 -17.622173961338042 6.771113442398564 -17.705222297447293 7.033801178414918 -16.844411543944176 Z"  />
<path  style="fill:rgb(228,25,27); " fill-rule="evenodd"   d="M 6.402101110760855 -17.838589582263264 L 5.737353311187096 -18.295831305906944 6.37764290506116 -19.111146770044602 7.026150601801676 -18.48709727900378 Z"  />
<path  style="fill:rgb(242,49,13); " fill-rule="evenodd"   d="M 6.643143986786242 -18.995342526262455 L 5.961898167110764 -19.781729398158507 6.519735560229154 -20.262137837374198 7.214837429063572 -19.690444395096872 Z"  />
<path  style="fill:rgb(255,4,0); " fill-rule="evenodd"   d="M 6.370624076791204 -20.375528714580536 L 6.145639069107148 -21.166717317474433 6.804353535829217 -21.57214007854237 7.185794488291125 -20.756969667042448 Z"  />
<path  style="fill:rgb(0,0,255); " fill-rule="evenodd"   d="M 6.55 -0.55 L 6.55 -1.45 7.45 -1.45 7.45 -0.55 Z"  />
<path  style="fill:rgb(13,7,242); " fill-rule="evenodd"   d="M 6.585080358236479 -1.57980714873599 L 6.561975785422448 -2.486107280147364 7.470366080769092 -2.494284698750155 7.484961994509868 -1.594403062476766 Z"  />
<path  style="fill:rgb(27,25,228); " fill-rule="evenodd"   d="M 6.64053002571469 -2.496956404337518 L 6.555933881018986 -3.418403406390952 7.472217955689004 -3.46043717069201 7.538114373879093 -2.562852822527607 Z"  />
<path  style="fill:rgb(40,24,215); " fill-rule="evenodd"   d="M 6.691526074616106 -3.694677823303061 L 6.67580209465874 -4.584429389515037 7.570828059599608 -4.614910413034632 7.591293361973642 -3.715143125677095 Z"  />
<path  style="fill:rgb(54,33,201); " fill-rule="evenodd"   d="M 6.575112984528142 -4.684062704902924 L 6.565231503035596 -5.619070072893094 7.413694997890436 -5.641549105258168 7.473147191386911 -4.743514898399399 Z"  />
<path  style="fill:rgb(67,13,188); " fill-rule="evenodd"   d="M 6.637837261066386 -5.504097976472493 L 6.511542589638418 -6.447210829721906 7.345612166352054 -6.561951786527486 7.520651618736717 -5.679137428857156 Z"  />
<path  style="fill:rgb(81,54,174); " fill-rule="evenodd"   d="M 6.858095628446314 -6.693001746607365 L 6.668414759888133 -7.503189169639372 7.449103056223475 -7.820259578832196 7.71722825844731 -6.9611269488312 Z"  />
<path  style="fill:rgb(94,13,161); " fill-rule="evenodd"   d="M 6.598066362887645 -7.901166837177458 L 6.660216107166112 -8.774147317341628 7.473567595658122 -8.825016170898802 7.497741646133556 -7.925340887652892 Z"  />
<path  style="fill:rgb(107,3,148); " fill-rule="evenodd"   d="M 6.883638554344534 -8.661900747909783 L 6.717024826035526 -9.55442375012429 7.509555615605413 -9.770155155716289 7.750724288878226 -8.903069421182597 Z"  />
<path  style="fill:rgb(121,118,134); " fill-rule="evenodd"   d="M 7.168224885024182 -9.667155115728185 L 6.797998814454464 -10.582832079837956 7.724448015766496 -10.811976424416672 8.018747104739584 -9.961454204701274 Z"  />
<path  style="fill:rgb(134,40,121); " fill-rule="evenodd"   d="M 7.189114620163938 -10.865754538086513 L 6.994085215697354 -11.862193717813106 7.935399784061533 -11.896801798955936 8.077780832547448 -11.008135586572429 Z"  />
<path  style="fill:rgb(148,127,107); " fill-rule="evenodd"   d="M 6.813769561892341 -11.677578377478316 L 6.585583888532675 -12.57806518472362 7.333879760630185 -12.839251903547014 7.654661424295612 -11.998360041143744 Z"  />
<path  style="fill:rgb(161,159,94); " fill-rule="evenodd"   d="M 6.877985691719168 -12.688629289525872 L 6.462640552700051 -13.361209468038377 7.36729780303548 -13.863607441543676 7.710130823386226 -13.03146230987662 Z"  />
<path  style="fill:rgb(174,56,81); " fill-rule="evenodd"   d="M 6.849856740988883 -13.999711400903873 L 6.68801247049867 -14.89425947574221 7.443194671187372 -15.125744304769373 7.709542158020878 -14.26605888773738 Z"  />
<path  style="fill:rgb(188,104,67); " fill-rule="evenodd"   d="M 7.266563358988296 -14.90536345055335 L 6.839641288144145 -15.694760299932272 7.483559255723373 -16.159521646635547 8.002140405396931 -15.423944600226909 Z"  />
<path  style="fill:rgb(201,51,54); " fill-rule="evenodd"   d="M 7.42487059219035 -15.996084906100032 L 6.856251717630249 -16.726627935142922 7.730847582331738 -17.231551652517766 8.19559246046991 -16.460829784238207 Z"  />
<path  style="fill:rgb(215,104,40); " fill-rule="evenodd"   d="M 7.44484535933718 -16.967525900398712 L 7.144280850823301 -17.792572414869486 7.913176953930397 -18.15102305608003 8.27075973447445 -17.325108680942765 Z"  />
<path  style="fill:rgb(228,204,27); " fill-rule="evenodd"   d="M 7.502703650922992 -17.793944786981324 L 6.721608295919722 -18.368914372523367 7.509117390926728 -19.066720833243654 8.142298544056025 -18.427125940110624 Z"  />
<path  style="fill:rgb(242,37,13); " fill-rule="evenodd"   d="M 6.950949361792684 -18.7861744858347 L 6.727915169792922 -19.822226035121844 7.69501437797947 -19.818825080995985 7.839307167466721 -18.930467275321952 Z"  />
<path  style="fill:rgb(255,231,0); " fill-rule="evenodd"   d="M 7.800419958096704 -19.3441575391096 L 6.946781093380544 -20.084396153498847 7.910725354274896 -20.612160977422747 8.489574375342375 -19.923006560177075 Z"  />
<path  style="fill:rgb(0,0,255); " fill-rule="evenodd"   d="M 7.55 -0.55 L 7.55 -1.45 8.45 -1.45 8.45 -0.55 Z"  />
<path  style="fill:rgb(13,10,242); " fill-rule="evenodd"   d="M 7.608870401318657 -1.594024346686617 L 7.591106727650994 -2.492988910467749 8.491883957139253 -2.510696076498912 8.508713044135101 -1.610853433682466 Z"  />
<path  style="fill:rgb(27,23,228); " fill-rule="evenodd"   d="M 7.710519674462828 -2.602775899672786 L 7.619403779019062 -3.494330700050078 8.535260735476186 -3.572209849087887 8.607607179677057 -2.675122343873658 Z"  />
<path  style="fill:rgb(40,7,215); " fill-rule="evenodd"   d="M 7.673655958773066 -3.559025994653768 L 7.538769011523143 -4.445431512064555 8.460521965245384 -4.559446850023301 8.567299389693993 -3.665803419102374 Z"  />
<path  style="fill:rgb(54,33,201); " fill-rule="evenodd"   d="M 7.564896118556781 -4.638491529699066 L 7.524423022562789 -5.585588053654838 8.394674088765827 -5.603617697697713 8.462348187660627 -4.706165628593864 Z"  />
<path  style="fill:rgb(67,24,188); " fill-rule="evenodd"   d="M 7.658553874053447 -5.481220487122401 L 7.512120059004464 -6.390103960318391 8.425624282859838 -6.496899072076123 8.549928370933504 -5.605524575196066 Z"  />
<path  style="fill:rgb(81,45,174); " fill-rule="evenodd"   d="M 7.626042595749818 -6.597720108236587 L 7.659663158074538 -7.453119728299763 8.480523590697594 -7.541045200277001 8.524945639243912 -6.642142156782904 Z"  />
<path  style="fill:rgb(94,66,161); " fill-rule="evenodd"   d="M 7.811376635731797 -7.719308643367596 L 7.75780316975268 -8.576200369016643 8.573052279698038 -8.739039104513388 8.702079688287814 -7.848336051957372 Z"  />
<path  style="fill:rgb(107,12,148); " fill-rule="evenodd"   d="M 7.854750857189556 -8.769156296042139 L 7.706177814436817 -9.687013431925058 8.52376383226623 -9.851940503157783 8.730649448285716 -8.976041912061625 Z"  />
<path  style="fill:rgb(121,69,134); " fill-rule="evenodd"   d="M 7.945874596170774 -9.687896004319384 L 7.570163834006482 -10.456615835361069 8.469510822195808 -10.847984407327646 8.787736910687421 -10.006122092810998 Z"  />
<path  style="fill:rgb(134,112,121); " fill-rule="evenodd"   d="M 7.969852249420741 -10.709993825976113 L 7.58186715746307 -11.666601779169259 8.501330291762159 -11.866510618119198 8.813849666662993 -11.022513200876947 Z"  />
<path  style="fill:rgb(148,3,107); " fill-rule="evenodd"   d="M 8.114137326803583 -11.940180933507111 L 8.09115820584085 -12.854840183626047 8.958124193600947 -12.89290658587172 9.012493586384569 -11.994550326290733 Z"  />
<path  style="fill:rgb(161,57,94); " fill-rule="evenodd"   d="M 7.73327923393876 -12.676606105993006 L 7.666873680285741 -13.503588833856334 8.48080845264672 -13.70675175937308 8.622116669982777 -12.817914323329063 Z"  />
<path  style="fill:rgb(174,5,81); " fill-rule="evenodd"   d="M 8.137536113422488 -13.576162002265876 L 7.680245156469023 -14.422285863945444 8.56691149398494 -14.774342615765715 8.951314110453632 -13.960564618734569 Z"  />
<path  style="fill:rgb(188,165,67); " fill-rule="evenodd"   d="M 8.44180403030761 -14.719118196837892 L 7.888794876875288 -15.41874986959533 8.698923505255273 -15.96566926903776 9.193639303881373 -15.213833995463995 Z"  />
<path  style="fill:rgb(201,80,54); " fill-rule="evenodd"   d="M 8.123359102347747 -16.216296233305165 L 7.89753138054354 -17.054234161860926 8.821844162856527 -17.280306863066937 9.004606947483024 -16.399059017931663 Z"  />
<path  style="fill:rgb(215,20,40); " fill-rule="evenodd"   d="M 8.000873943510452 -17.43720008766471 L 8.08211281345849 -18.144062830400916 8.797296833005833 -18.4300296707694 8.895500179810487 -17.535403434469366 Z"  />
<path  style="fill:rgb(228,204,27); " fill-rule="evenodd"   d="M 8.697963014142722 -17.631997636089096 L 8.067548019731674 -18.35548359084424 8.890180384058517 -18.89019177162727 9.423168766869706 -18.164986018900283 Z"  />
<path  style="fill:rgb(242,17,13); " fill-rule="evenodd"   d="M 8.247559798292208 -19.163830597500105 L 7.871337754280009 -19.721257114636074 8.392457472743157 -20.42834815923608 8.952267416385672 -19.72364054114262 Z"  />
<path  style="fill:rgb(255,129,0); " fill-rule="evenodd"   d="M 7.976344407844561 -19.406356924172808 L 7.955157615147383 -20.56255675178622 8.660717234694072 -20.479498962241394 8.85510184030361 -19.600741529782344 Z"  />
<path  style="fill:rgb(0,0,255); " fill-rule="evenodd"   d="M 8.55 -0.55 L 8.55 -1.45 9.45 -1.45 9.45 -0.55 Z"  />
<path  style="fill:rgb(13,2,242); " fill-rule="evenodd"   d="M 8.561196407169126 -1.543680887858612 L 8.546613632126672 -2.454032011555134 9.451080624378987 -2.453684228490279 9.461140186089889 -1.553740449569515 Z"  />
<path  style="fill:rgb(27,12,228); " fill-rule="evenodd"   d="M 8.63028273261698 -2.603549698900078 L 8.523379973359425 -3.505268477485832 9.435904682267138 -3.588929460333139 9.525783588158589 -2.693428604791529 Z"  />
<path  style="fill:rgb(40,2,215); " fill-rule="evenodd"   d="M 8.666036554815383 -3.531584261192243 L 8.57282157440668 -4.460852321128518 9.486172069495174 -4.504917573866226 9.56277096849227 -3.608183160189338 Z"  />
<path  style="fill:rgb(54,52,201); " fill-rule="evenodd"   d="M 8.666763642564595 -4.57290776089013 L 8.626144314670055 -5.437173392842168 9.501719241973515 -5.533558137986651 9.564566630817314 -4.635755149733929 Z"  />
<path  style="fill:rgb(67,31,188); " fill-rule="evenodd"   d="M 8.696041598471997 -5.659263977665735 L 8.623150858208394 -6.495719329761428 9.544649699165742 -6.607875748326922 9.594651534149463 -5.709265812649455 Z"  />
<path  style="fill:rgb(81,41,174); " fill-rule="evenodd"   d="M 8.798166593090883 -6.749017470105596 L 8.63887467586575 -7.655034275085592 9.471620558291775 -7.829045134915711 9.674907408096388 -6.952304319910207 Z"  />
<path  style="fill:rgb(94,15,161); " fill-rule="evenodd"   d="M 8.857137386298518 -7.728054100671013 L 8.76650155011958 -8.678622948579122 9.673413426556557 -8.704626384785534 9.753561548484798 -7.808202222599254 Z"  />
<path  style="fill:rgb(107,31,148); " fill-rule="evenodd"   d="M 9.034052531718675 -8.601057490325715 L 8.842069093213812 -9.451135098233507 9.692103251437626 -9.690538674319898 9.907818483575243 -8.816772722463332 Z"  />
<path  style="fill:rgb(121,40,134); " fill-rule="evenodd"   d="M 8.783439477888464 -9.876164263778726 L 8.651376831594659 -10.68555162584685 9.492748683333573 -10.932989912157314 9.666506904800313 -10.049922485245466 Z"  />
<path  style="fill:rgb(134,60,121); " fill-rule="evenodd"   d="M 9.030877465116305 -10.763216697320432 L 8.913933366717897 -11.522016932303044 9.767470333973222 -11.801210409030253 9.918170755399673 -10.913917118746884 Z"  />
<path  style="fill:rgb(148,12,107); " fill-rule="evenodd"   d="M 9.337445021139825 -11.973213137401041 L 8.893341483834739 -12.766452604666924 9.76278395672106 -13.17283257283822 10.149924206649032 -12.360353387329011 Z"  />
<path  style="fill:rgb(161,31,94); " fill-rule="evenodd"   d="M 8.904193465727756 -12.648063431902914 L 8.927722307451454 -13.561067924026975 9.79649050759649 -13.555701018758102 9.804160780089715 -12.655733704396141 Z"  />
<path  style="fill:rgb(174,102,81); " fill-rule="evenodd"   d="M 9.016485230430444 -13.74873851183225 L 8.876097826680473 -14.696689116422256 9.836612286588371 -14.72207895163619 9.913218978411377 -13.825345203655257 Z"  />
<path  style="fill:rgb(188,34,67); " fill-rule="evenodd"   d="M 8.754933864749454 -14.91511924589351 L 8.620746270120431 -15.97097008019406 9.397292875812639 -16.01392537115216 9.62551643291037 -15.143342802991246 Z"  />
<path  style="fill:rgb(201,137,54); " fill-rule="evenodd"   d="M 9.311930022812922 -15.68278414318019 L 8.725501054720814 -16.566210083299666 9.408801158598408 -16.951884605338968 9.994915821785053 -16.268898806366835 Z"  />
<path  style="fill:rgb(215,88,40); " fill-rule="evenodd"   d="M 9.445449487142785 -16.78479705310565 L 9.001698359453677 -17.42765125348883 9.565874328869839 -18.05187947248294 10.139203117694958 -17.358125841930768 Z"  />
<path  style="fill:rgb(228,90,27); " fill-rule="evenodd"   d="M 9.434268388886242 -17.770596052220295 L 9.22029447504541 -18.570145011353063 9.959315154307191 -18.930046738589056 10.276517114781097 -18.0877980126942 Z"  />
<path  style="fill:rgb(242,82,13); " fill-rule="evenodd"   d="M 9.391498808968905 -19.306979314426794 L 9.407272433873436 -20.26979822615827 10.16338292221539 -20.319004470101138 10.28345344342932 -19.427049835640723 Z"  />
<path  style="fill:rgb(255,138,0); " fill-rule="evenodd"   d="M 9.832917083640282 -20.23332321323994 L 9.09072612279158 -20.877803378127844 9.600414058804404 -21.48469939306844 10.342353661136592 -20.97526281557213 Z"  />
<path  style="fill:rgb(0,0,255); " fill-rule="evenodd"   d="M 9.55 -0.55 L 9.55 -1.45 10.45 -1.45 10.45 -0.55 Z"  />
<path  style="fill:rgb(13,9,242); " fill-rule="evenodd"   d="M 9.588142277219905 -1.557932603700415 L 9.573312254602058 -2.463104310866117 10.473228580901873 -2.472603164631831 10.488020709526596 -1.572724732325139 Z"  />
<path  style="fill:rgb(27,25,228); " fill-rule="evenodd"   d="M 9.689339170184672 -2.538307646493779 L 9.608975264140662 -3.430928971885884 10.521567601178031 -3.501321581307979 10.58696035308845 -2.603700398404198 Z"  />
<path  style="fill:rgb(40,6,215); " fill-rule="evenodd"   d="M 9.623767619125218 -3.638162068369567 L 9.509716199022844 -4.54010535400506 10.39209002201919 -4.652893897579252 10.515294735177045 -3.761366781527423 Z"  />
<path  style="fill:rgb(54,2,201); " fill-rule="evenodd"   d="M 9.74076128907096 -4.57214385946631 L 9.641232403547352 -5.441595909283544 10.498389948737097 -5.594884693721251 10.630946036031498 -4.70469994676071 Z"  />
<path  style="fill:rgb(67,5,188); " fill-rule="evenodd"   d="M 9.729917565397688 -5.757097025385818 L 9.55009437990165 -6.580544465951168 10.49600578923587 -6.77351664015939 10.621171484703565 -5.882262720853512 Z"  />
<path  style="fill:rgb(81,56,174); " fill-rule="evenodd"   d="M 9.631874537263293 -6.520993872006558 L 9.467114693332741 -7.392187930949927 10.262481463077028 -7.626586430373225 10.499974279353493 -6.758486688283023 Z"  />
<path  style="fill:rgb(94,3,161); " fill-rule="evenodd"   d="M 9.752200683868422 -7.577841546690567 L 9.580496926924605 -8.525678091412054 10.463197902138653 -8.63353229478491 10.635544667050707 -7.750188311602623 Z"  />
<path  style="fill:rgb(107,30,148); " fill-rule="evenodd"   d="M 9.634664633559634 -8.916635902588698 L 9.533244802621056 -9.757880155030234 10.39514359034444 -9.937259122140112 10.525215721727744 -9.046708033972005 Z"  />
<path  style="fill:rgb(121,47,134); " fill-rule="evenodd"   d="M 10.09392437189889 -9.66428022764708 L 9.891668056257826 -10.525789312901708 10.720660904803264 -10.772071416600575 10.961188232827825 -9.904807555671642 Z"  />
<path  style="fill:rgb(134,134,121); " fill-rule="evenodd"   d="M 10.207790119763736 -10.680197251386389 L 9.717482364129465 -11.509129840497323 10.64244003666506 -11.876474581163084 11.02325374310275 -11.061010957824074 Z"  />
<path  style="fill:rgb(148,112,107); " fill-rule="evenodd"   d="M 10.395737029687805 -11.499855926597636 L 9.822741994264312 -12.154206048435274 10.687599692584751 -12.73873291242258 11.16110685404875 -11.973363088061635 Z"  />
<path  style="fill:rgb(161,86,94); " fill-rule="evenodd"   d="M 9.749531420054437 -13.180503362788057 L 9.627767138484518 -13.946162866304157 10.451465572346034 -14.24224177023439 10.631367699923402 -13.360405490365425 Z"  />
<path  style="fill:rgb(174,69,81); " fill-rule="evenodd"   d="M 10.03374455633071 -14.152885145565014 L 9.830434310232967 -14.858904466849054 10.755192633172173 -15.201461643690806 10.91875684381434 -14.31644935620718 Z"  />
<path  style="fill:rgb(188,111,67); " fill-rule="evenodd"   d="M 10.608383436579246 -14.698563226908504 L 10.11191077720214 -15.596344889130648 11.17014144718917 -15.840678780394917 11.460320218627412 -14.988741998346747 Z"  />
<path  style="fill:rgb(201,37,54); " fill-rule="evenodd"   d="M 10.33494044167594 -15.979930792827227 L 10.191162436885907 -16.708687880250046 11.141521829685342 -16.964525361427334 11.230528419980693 -16.06893738312258 Z"  />
<path  style="fill:rgb(215,33,40); " fill-rule="evenodd"   d="M 10.72503065513963 -16.64981276496203 L 10.101115726116646 -17.394207762385612 11.08587905128079 -17.870381663059277 11.515739302258837 -17.079673015940074 Z"  />
<path  style="fill:rgb(228,123,27); " fill-rule="evenodd"   d="M 10.230694909487521 -18.027063972596547 L 9.902120434340517 -19.067763350453884 10.81123820222042 -19.159746401727876 11.087307770419635 -18.30313354079576 Z"  />
<path  style="fill:rgb(242,2,13); " fill-rule="evenodd"   d="M 10.386713751238847 -19.014638624119534 L 9.958006449777947 -19.850475354707964 10.994117281233027 -20.13314698428078 11.249669696316563 -19.27019103920307 Z"  />
<path  style="fill:rgb(255,164,0); " fill-rule="evenodd"   d="M 10.473715303709824 -19.984844821484376 L 10.13634036729123 -20.60382531456718 10.807120481557032 -21.213193708154883 11.25459233596868 -20.432316675896026 Z"  />
<path  style="fill:rgb(0,0,255); " fill-rule="evenodd"   d="M 10.55 -0.55 L 10.55 -1.45 11.45 -1.45 11.45 -0.55 Z"  />
<path  style="fill:rgb(13,8,242); " fill-rule="evenodd"   d="M 10.599207988386402 -1.55131194294296 L 10.575604751662187 -2.440046704280258 11.464065037753914 -2.485133277117393 11.498547180157374 -1.58579408534642 Z"  />
<path  style="fill:rgb(27,17,228); " fill-rule="evenodd"   d="M 10.575401635554332 -2.577383280751932 L 10.57123740472253 -3.499698996728376 11.453133060027552 -3.499114015018838 11.475132714924394 -2.599382935648774 Z"  />
<path  style="fill:rgb(40,31,215); " fill-rule="evenodd"   d="M 10.640601476629023 -3.542970582091089 L 10.558213564207882 -4.464995853394484 11.487660573874846 -4.492965785117446 11.53912862676511 -3.594438634981355 Z"  />
<path  style="fill:rgb(54,18,201); " fill-rule="evenodd"   d="M 10.661061835959336 -4.690927729366474 L 10.584889530610964 -5.564505370813476 11.443955795988884 -5.69446001452189 11.554274958551817 -4.801246891929407 Z"  />
<path  style="fill:rgb(67,41,188); " fill-rule="evenodd"   d="M 10.577840822335485 -5.593225357241384 L 10.607931271917517 -6.459584582778954 11.470433729540606 -6.500571984505248 11.477810589569977 -5.600602217270756 Z"  />
<path  style="fill:rgb(81,13,174); " fill-rule="evenodd"   d="M 10.929562496987636 -6.703182585089159 L 10.67833438930522 -7.611442757617109 11.648466427963529 -7.753504982273665 11.814175661067834 -6.868891818193465 Z"  />
<path  style="fill:rgb(94,48,161); " fill-rule="evenodd"   d="M 10.77266509847417 -7.559823584767714 L 10.77699033894756 -8.479257996278776 11.626726754851388 -8.503528351687006 11.671548310122425 -7.604645140038749 Z"  />
<path  style="fill:rgb(107,6,148); " fill-rule="evenodd"   d="M 10.673193449771771 -8.605649837542964 L 10.473941936059935 -9.473979111964441 11.384344740678387 -9.661236802904819 11.556562577906005 -8.777867674770583 Z"  />
<path  style="fill:rgb(121,85,134); " fill-rule="evenodd"   d="M 10.714271662259815 -9.706636698268566 L 10.64822966340352 -10.637975546692076 11.449847095479292 -10.74535166496731 11.601416862218926 -9.8582064650082 Z"  />
<path  style="fill:rgb(134,20,121); " fill-rule="evenodd"   d="M 10.823400809530416 -10.656610619959302 L 10.472933832984637 -11.4810798291401 11.294330300765543 -11.839076439458967 11.650098464897813 -11.01237878409157 Z"  />
<path  style="fill:rgb(148,39,107); " fill-rule="evenodd"   d="M 11.175704971444159 -11.954772233046487 L 10.926522171955643 -12.725738709280439 11.645660762727237 -13.137625374497059 12.002109437810986 -12.311220908130235 Z"  />
<path  style="fill:rgb(161,24,94); " fill-rule="evenodd"   d="M 11.253718182781228 -12.27488891741346 L 10.64387825764803 -13.111587902642778 11.531846482559729 -13.51692138432498 12.013798566126237 -12.756841000979968 Z"  />
<path  style="fill:rgb(174,49,81); " fill-rule="evenodd"   d="M 11.30955700357969 -13.345953542500789 L 11.029127808779196 -14.380949045559912 12.050169901424715 -14.381082778657117 12.197428070580367 -13.493211711656441 Z"  />
<path  style="fill:rgb(188,156,67); " fill-rule="evenodd"   d="M 11.04376573964971 -14.830379205681503 L 10.627550456417723 -15.617500837725494 11.416628740469296 -16.047331621604084 11.838673448020796 -15.252423913233002 Z"  />
<path  style="fill:rgb(201,101,54); " fill-rule="evenodd"   d="M 10.849548891175953 -16.012153345698394 L 10.837363535067418 -16.90198866666551 11.58579554138738 -17.05039265821379 11.736791872539364 -16.163149676850377 Z"  />
<path  style="fill:rgb(215,179,40); " fill-rule="evenodd"   d="M 10.928928609301552 -16.73423451698968 L 10.525148472473038 -17.380599838293385 10.999429050517259 -18.005072700154 11.599597921491565 -17.334403387963988 Z"  />
<path  style="fill:rgb(228,105,27); " fill-rule="evenodd"   d="M 11.39646869950915 -17.758470363892787 L 11.353355958704418 -18.56789570870074 12.124275164724315 -18.802643601047908 12.282458550694292 -17.916653749862764 Z"  />
<path  style="fill:rgb(242,8,13); " fill-rule="evenodd"   d="M 11.024107044253196 -18.571751999232944 L 10.554527600402388 -19.591063538579505 11.586621151463337 -19.71349535007392 11.876235773278752 -18.86136662104836 Z"  />
<path  style="fill:rgb(255,97,0); " fill-rule="evenodd"   d="M 11.53601144675985 -19.980683538174976 L 11.087850234363668 -20.7256024330265 11.913720642950722 -21.196140556383696 12.332594553959648 -20.399557449183902 Z"  />
<path  style="fill:rgb(0,0,255); " fill-rule="evenodd"   d="M 11.55 -0.55 L 11.55 -1.45 12.45 -1.45 12.45 -0.55 Z"  />
<path  style="fill:rgb(13,12,242); " fill-rule="evenodd"   d="M 11.561421646407625 -1.581114234390708 L 11.558111249387547 -2.479029227439166 12.459048327029073 -2.483481311713744 12.461418525379866 -1.583484432741501 Z"  />
<path  style="fill:rgb(27,12,228); " fill-rule="evenodd"   d="M 11.599475966390354 -2.605314300016413 L 11.56233106791831 -3.518657271008736 12.474441525665547 -3.529670979054459 12.499137085546973 -2.630009859897838 Z"  />
<path  style="fill:rgb(40,18,215); " fill-rule="evenodd"   d="M 11.62936235020478 -3.516090327028541 L 11.584222232773833 -4.431921608430557 12.488629614700471 -4.455057721652064 12.528479679764386 -3.555940392092456 Z"  />
<path  style="fill:rgb(54,47,201); " fill-rule="evenodd"   d="M 11.767972256609072 -4.770798819386353 L 11.737447995270857 -5.619446922669207 12.667694326004339 -5.671076664189332 12.667972213708195 -4.771076707090208 Z"  />
<path  style="fill:rgb(67,47,188); " fill-rule="evenodd"   d="M 11.773873318994525 -5.587112863771431 L 11.595942085123655 -6.510465083358216 12.494736166138551 -6.636091774716455 12.658794198039049 -5.75117089567193 Z"  />
<path  style="fill:rgb(81,37,174); " fill-rule="evenodd"   d="M 11.685442349191739 -6.591179608628102 L 11.493637136722004 -7.482663576925371 12.389420673286136 -7.651563746195826 12.567623580022797 -6.769382515364764 Z"  />
<path  style="fill:rgb(94,10,161); " fill-rule="evenodd"   d="M 11.824536941546306 -7.833820546552772 L 11.87105016509085 -8.663398471650847 12.68502408029685 -8.771670152856949 12.723705314073666 -7.872501780329587 Z"  />
<path  style="fill:rgb(107,88,148); " fill-rule="evenodd"   d="M 11.855061534315027 -8.690361883485393 L 11.579014358444557 -9.48957831859477 12.461592555451935 -9.809343617205213 12.71781791174339 -8.946587239776848 Z"  />
<path  style="fill:rgb(121,23,134); " fill-rule="evenodd"   d="M 11.83235295087753 -9.805117167871806 L 11.443319939125882 -10.64378642573974 12.253137060332842 -11.006341848449882 12.643357345894223 -10.19533745343319 Z"  />
<path  style="fill:rgb(134,41,121); " fill-rule="evenodd"   d="M 12.07682682419204 -10.586907397006083 L 11.68361287187615 -11.433097524518693 12.512546612998962 -11.782795462688672 12.892630751436796 -10.966991535443917 Z"  />
<path  style="fill:rgb(148,123,107); " fill-rule="evenodd"   d="M 11.76586363145345 -11.6233114001866 L 11.465505043771195 -12.366203504496575 12.293517570509998 -12.781577915543968 12.60882385866041 -11.93861768833701 Z"  />
<path  style="fill:rgb(161,94,94); " fill-rule="evenodd"   d="M 11.622855241181966 -12.385177399829166 L 11.454512157030742 -13.4279704696143 12.203989880068967 -13.5175565463546 12.479612133888182 -12.660799653648384 Z"  />
<path  style="fill:rgb(174,114,81); " fill-rule="evenodd"   d="M 12.536453651178672 -13.858302600714612 L 12.064452607557968 -14.704713640791443 13.08343617419299 -15.007567635211394 13.384577429934222 -14.159443856455848 Z"  />
<path  style="fill:rgb(188,115,67); " fill-rule="evenodd"   d="M 12.166672440390107 -14.602183294097978 L 12.228534896937614 -15.617182592821246 13.062914628391031 -15.505925481033673 13.066664627858417 -14.605933293565364 Z"  />
<path  style="fill:rgb(201,90,54); " fill-rule="evenodd"   d="M 12.678973400204871 -16.31028248238877 L 12.187591925518683 -16.934986069331856 13.131490663478282 -17.499916092556013 13.500048836925195 -16.678840655835685 Z"  />
<path  style="fill:rgb(215,86,40); " fill-rule="evenodd"   d="M 12.397591469293914 -17.155092731534907 L 12.15508225209674 -18.08054969556008 12.855143517378835 -18.34279897606395 13.220220615600898 -17.520169829756966 Z"  />
<path  style="fill:rgb(228,50,27); " fill-rule="evenodd"   d="M 12.132789164654673 -17.973141558326738 L 11.79592447355466 -18.662985388754436 12.36721540821462 -19.22415887888244 12.875510946712497 -18.481437096824614 Z"  />
<path  style="fill:rgb(242,6,13); " fill-rule="evenodd"   d="M 12.06731567811906 -18.825023588920974 L 12.166608650574394 -19.5813607437875 12.927538572429652 -19.76311557380513 12.966473117716435 -18.863958134207756 Z"  />
<path  style="fill:rgb(255,119,0); " fill-rule="evenodd"   d="M 12.655784966779303 -19.76407187212832 L 12.38032237075491 -20.615820776539316 13.114259884031473 -20.951422178588302 13.478697578635378 -20.128509566732227 Z"  />
<path  style="fill:rgb(0,0,255); " fill-rule="evenodd"   d="M 12.55 -0.55 L 12.55 -1.45 13.45 -1.45 13.45 -0.55 Z"  />
<path  style="fill:rgb(13,3,242); " fill-rule="evenodd"   d="M 12.558787166287223 -1.541224334102974 L 12.550950243802644 -2.446962260484224 13.443778671607076 -2.455986617710961 13.458664060751142 -1.55610972324704 Z"  />
<path  style="fill:rgb(27,19,228); " fill-rule="evenodd"   d="M 12.543338920441016 -2.557623747443206 L 12.560209998883465 -3.473606036843892 13.435373386603926 -3.465519397381815 13.443303978491775 -2.565554339331054 Z"  />
<path  style="fill:rgb(40,0,215); " fill-rule="evenodd"   d="M 12.585358596046678 -3.655228428631664 L 12.543790130740472 -4.524468425963644 13.454042850138345 -4.585490578078369 13.484831797815863 -3.686017376309183 Z"  />
<path  style="fill:rgb(54,1,201); " fill-rule="evenodd"   d="M 12.687317135701502 -4.46236245877424 L 12.553208003130644 -5.403239179771226 13.407642019197892 -5.511710857646564 13.572153776885857 -4.626874216462205 Z"  />
<path  style="fill:rgb(67,47,188); " fill-rule="evenodd"   d="M 12.972371043218752 -5.416748475821875 L 12.70872215248208 -6.329827624122472 13.62970899068496 -6.506659858834692 13.845995708458265 -5.633035193595178 Z"  />
<path  style="fill:rgb(81,57,174); " fill-rule="evenodd"   d="M 12.747790702637 -6.8026185273917 L 12.75861927239387 -7.707342254659687 13.6225138696281 -7.727204586733424 13.647445315803411 -6.82754997356701 Z"  />
<path  style="fill:rgb(94,85,161); " fill-rule="evenodd"   d="M 12.71538822802966 -7.725264259723208 L 12.575144896600072 -8.609061165799002 13.352078439775338 -8.827364787927074 13.584783598004432 -7.957969417952302 Z"  />
<path  style="fill:rgb(107,2,148); " fill-rule="evenodd"   d="M 12.812688150636507 -8.632170648152176 L 12.785278359467789 -9.466027814688982 13.612820371721668 -9.62201327644282 13.707675575324409 -8.727025851754918 Z"  />
<path  style="fill:rgb(121,103,134); " fill-rule="evenodd"   d="M 12.686979431817154 -9.645076489207495 L 12.632232719623094 -10.647715462684658 13.519031949000611 -10.608242419174221 13.584588655392245 -9.71063319559913 Z"  />
<path  style="fill:rgb(134,35,121); " fill-rule="evenodd"   d="M 13.036535736496873 -10.46266345095929 L 12.62793547666103 -11.342461236231728 13.56432155040335 -11.620869881022202 13.879531858481567 -10.777873759037508 Z"  />
<path  style="fill:rgb(148,77,107); " fill-rule="evenodd"   d="M 12.675776820051766 -11.897037503587638 L 12.470379335739821 -12.74880106889141 13.370611241169817 -12.963435706525704 13.556393132079824 -12.082819394497646 Z"  />
<path  style="fill:rgb(161,50,94); " fill-rule="evenodd"   d="M 12.589903730644732 -12.646485242949153 L 12.60082887658937 -13.470726506917034 13.403774948961326 -13.625062598090718 13.486128017373812 -12.72883831136164 Z"  />
<path  style="fill:rgb(174,58,81); " fill-rule="evenodd"   d="M 12.903974721617262 -13.93522355697627 L 12.761942053977839 -14.79569925755984 13.746670012800335 -14.889091811096236 13.802256494268782 -13.990810038444717 Z"  />
<path  style="fill:rgb(188,134,67); " fill-rule="evenodd"   d="M 12.745566953051728 -14.75263761751565 L 12.617371540627397 -15.596646975330383 13.633842632076782 -15.664211157090254 13.645491562351557 -14.764286547790425 Z"  />
<path  style="fill:rgb(201,180,54); " fill-rule="evenodd"   d="M 12.960088400907573 -15.934200733922081 L 12.538255317363516 -16.625651471119923 13.003641398525675 -17.206247563405363 13.617888314458266 -16.548447649854673 Z"  />
<path  style="fill:rgb(215,128,40); " fill-rule="evenodd"   d="M 13.480483721100226 -16.944142971001526 L 13.247926318727762 -17.67090755613865 13.831875026926902 -18.16746800965209 14.267841893338849 -17.38010983741347 Z"  />
<path  style="fill:rgb(228,148,27); " fill-rule="evenodd"   d="M 12.524785722229492 -17.662805341618007 L 12.445540955656448 -18.573267760347907 13.13187136867073 -18.781486269266736 13.387669009274475 -17.918602982221753 Z"  />
<path  style="fill:rgb(242,195,13); " fill-rule="evenodd"   d="M 13.86746043413994 -18.961221316785995 L 13.243490069851864 -19.7867529491624 14.298127722273264 -20.158938181045606 14.68165251033641 -19.34474610484914 Z"  />
<path  style="fill:rgb(255,209,0); " fill-rule="evenodd"   d="M 12.98875419682816 -20.063873505314778 L 13.144570637202772 -20.74422510629845 13.875121739704866 -20.9773025276995 13.888652479458873 -20.077404245068784 Z"  />
<path  style="fill:rgb(0,0,255); " fill-rule="evenodd"   d="M 13.55 -0.55 L 13.55 -1.45 14.45 -1.45 14.45 -0.55 Z"  />
<path  style="fill:rgb(13,4,242); " fill-rule="evenodd"   d="M 13.60175227360422 -1.579879374639315 L 13.564362326445218 -2.486886797038981 14.47282622012411 -2.507904255606555 14.501301687347784 -1.608354841862989 Z"  />
<path  style="fill:rgb(27,27,228); " fill-rule="evenodd"   d="M 13.60414883868263 -2.604940220714069 L 13.574489851857795 -3.512540837578747 14.47817457860799 -3.530185596788938 14.503784396682743 -2.630550038788823 Z"  />
<path  style="fill:rgb(40,15,215); " fill-rule="evenodd"   d="M 13.588263872497006 -3.576940702955718 L 13.565491456357067 -4.500411035038392 14.434364264618617 -4.527789863680832 14.486738648920369 -3.629315087257469 Z"  />
<path  style="fill:rgb(54,45,201); " fill-rule="evenodd"   d="M 13.741193924632825 -4.622115918440167 L 13.602600561007975 -5.517859335750296 14.499145339318176 -5.644617582485988 14.63142046399841 -4.754391043120402 Z"  />
<path  style="fill:rgb(67,23,188); " fill-rule="evenodd"   d="M 13.830028440446027 -5.581893541268738 L 13.722952236433509 -6.505506210150007 14.645403586513682 -6.559218139943685 14.726378312817326 -5.662868267572382 Z"  />
<path  style="fill:rgb(81,80,174); " fill-rule="evenodd"   d="M 13.730229638760264 -6.644476512838551 L 13.719990470254677 -7.600523246442036 14.628178078681508 -7.546523406987078 14.630227305795149 -6.646525739952192 Z"  />
<path  style="fill:rgb(94,68,161); " fill-rule="evenodd"   d="M 13.809485993515406 -7.74640056391442 L 13.610561469468394 -8.534227576171405 14.360453856360099 -8.893760321842313 14.6586498039017 -8.044596511456021 Z"  />
<path  style="fill:rgb(107,1,148); " fill-rule="evenodd"   d="M 13.839380997209693 -8.96975201533976 L 13.72630695933001 -9.816840799355035 14.715568481417005 -9.892950527317792 14.739073995302366 -8.993257529225119 Z"  />
<path  style="fill:rgb(121,56,134); " fill-rule="evenodd"   d="M 14.091321444211866 -9.56937324369382 L 13.934911363303131 -10.401474101063432 14.862489237993014 -10.581944344325628 14.983190891418344 -9.69007489711915 Z"  />
<path  style="fill:rgb(134,73,121); " fill-rule="evenodd"   d="M 13.681461874728916 -10.879011252090892 L 13.612386817454759 -11.822783505163711 14.570666031339567 -11.7896791212212 14.581397887599396 -10.889743108350721 Z"  />
<path  style="fill:rgb(148,81,107); " fill-rule="evenodd"   d="M 13.878285466026895 -11.83975585075712 L 13.650949541477683 -12.762959219980779 14.567349449796332 -12.909891742254915 14.757885403660513 -12.030291804621298 Z"  />
<path  style="fill:rgb(161,38,94); " fill-rule="evenodd"   d="M 14.179650914013973 -12.693309344926963 L 13.764574395317737 -13.620333802921337 14.613476849192963 -13.889885735286587 14.994852076783278 -13.074684572517278 Z"  />
<path  style="fill:rgb(174,52,81); " fill-rule="evenodd"   d="M 13.797579867155608 -14.135331219533867 L 13.487415417456658 -14.870560695652628 14.322776639577032 -15.294713964893706 14.639869626046238 -14.452424206003073 Z"  />
<path  style="fill:rgb(188,36,67); " fill-rule="evenodd"   d="M 14.354339709742936 -14.991497047651608 L 14.00051481019188 -15.82568880760279 14.735405559571799 -16.2059058824738 15.152077052068465 -15.408168540148273 Z"  />
<path  style="fill:rgb(201,131,54); " fill-rule="evenodd"   d="M 14.129730232260417 -15.564674914901437 L 13.740772230013 -16.546281070228986 14.625309172442552 -16.7370236318146 14.963694060808066 -15.903059803266954 Z"  />
<path  style="fill:rgb(215,27,40); " fill-rule="evenodd"   d="M 13.946290388916346 -16.809618855497774 L 13.486945039276888 -17.584304116339457 14.503583445076881 -17.953919711721895 14.797087345108672 -17.103122755529565 Z"  />
<path  style="fill:rgb(228,7,27); " fill-rule="evenodd"   d="M 14.090498595979259 -18.10957122520835 L 13.654228811801042 -19.020066929049353 14.69446947277298 -19.229936870872756 14.952666857208325 -18.367768609643694 Z"  />
<path  style="fill:rgb(242,65,13); " fill-rule="evenodd"   d="M 13.965427409106358 -18.606476675740353 L 13.408361062392274 -19.304427899533728 13.939647554039269 -19.879007775192427 14.588803031298852 -19.255632152999937 Z"  />
<path  style="fill:rgb(255,197,0); " fill-rule="evenodd"   d="M 14.706899157254146 -19.77099189550443 L 14.317037913814964 -20.589129210558628 15.227605234824006 -20.93239844825924 15.54795547241648 -20.091342133096905 Z"  />
<path  style="fill:rgb(0,0,255); " fill-rule="evenodd"   d="M 14.55 -0.55 L 14.55 -1.45 15.45 -1.45 15.45 -0.55 Z"  />
<path  style="fill:rgb(13,12,242); " fill-rule="evenodd"   d="M 14.570309638287736 -1.555515645066172 L 14.545062683544622 -2.458159000951973 15.458037751767936 -2.467622435160887 15.470227090075193 -1.567704983373429 Z"  />
<path  style="fill:rgb(27,11,228); " fill-rule="evenodd"   d="M 14.648055510724529 -2.588319045274736 L 14.638319301549702 -3.489888231727065 15.534588948235477 -3.501587058606538 15.547956236145904 -2.601686333185162 Z"  />
<path  style="fill:rgb(40,19,215); " fill-rule="evenodd"   d="M 14.701352607275854 -3.671629572775497 L 14.63627900988325 -4.553520506059932 15.490442216418721 -4.670297479911174 15.595231365415126 -3.7764187217719 Z"  />
<path  style="fill:rgb(54,47,201); " fill-rule="evenodd"   d="M 14.683385493478873 -4.667329718580522 L 14.557862500917242 -5.576760165119794 15.455953548044787 -5.678832858004338 15.575421090473737 -4.786797261009472 Z"  />
<path  style="fill:rgb(67,62,188); " fill-rule="evenodd"   d="M 14.655235565279597 -5.613770977891678 L 14.639807905892614 -6.483474688285759 15.49513351414073 -6.570103260886904 15.553350681207775 -5.671988144958724 Z"  />
<path  style="fill:rgb(81,23,174); " fill-rule="evenodd"   d="M 14.880477585504567 -6.841224936317375 L 14.683107685930327 -7.661463772976938 15.64124174177093 -7.861635588231754 15.771064989594937 -6.971048184141382 Z"  />
<path  style="fill:rgb(94,6,161); " fill-rule="evenodd"   d="M 14.945014594023894 -7.762657185732847 L 14.8456295626199 -8.604393100488416 15.77254546977368 -8.729710777671155 15.84230682786794 -7.832418543827108 Z"  />
<path  style="fill:rgb(107,32,148); " fill-rule="evenodd"   d="M 14.93911823229261 -8.538111131220278 L 14.88554272422147 -9.515286360974212 15.822687201428186 -9.454247516689547 15.838970909595032 -8.554394839387125 Z"  />
<path  style="fill:rgb(121,6,134); " fill-rule="evenodd"   d="M 14.678678140024733 -9.763324554055753 L 14.49531302356402 -10.685696092333767 15.248686916182832 -10.901344762620935 15.532692632386373 -10.047330270259293 Z"  />
<path  style="fill:rgb(134,116,121); " fill-rule="evenodd"   d="M 15.148367084287363 -10.704613255183023 L 14.72953561091654 -11.49152729670282 15.686935749622283 -11.857845145445932 15.994267362086278 -11.011944867647017 Z"  />
<path  style="fill:rgb(148,39,107); " fill-rule="evenodd"   d="M 14.95616260572348 -11.92151319982611 L 14.93501443867936 -12.6886288447864 15.792610719752854 -12.880864309971242 15.854062217810734 -11.982964697883988 Z"  />
<path  style="fill:rgb(161,157,94); " fill-rule="evenodd"   d="M 14.945059964654622 -12.630163840411344 L 14.798363047492462 -13.453230131376701 15.531482383291562 -13.759813674174 15.80309609085442 -12.9017775479742 Z"  />
<path  style="fill:rgb(174,70,81); " fill-rule="evenodd"   d="M 14.98232820626594 -13.897267167116457 L 14.921678611033109 -14.880695678341851 15.807546650354777 -14.86629478258239 15.879451236043325 -13.969171752805007 Z"  />
<path  style="fill:rgb(188,146,67); " fill-rule="evenodd"   d="M 14.970653279734371 -14.766863204635062 L 14.735851828711503 -15.540516431924853 15.341226948831254 -15.984514696553855 15.76476586024221 -15.190402116046016 Z"  />
<path  style="fill:rgb(201,16,54); " fill-rule="evenodd"   d="M 15.562355809715996 -15.663780309050686 L 15.146378330981744 -16.475543895518452 15.88005356531802 -16.896285130982612 16.33745709848297 -16.12118384221564 Z"  />
<path  style="fill:rgb(215,66,40); " fill-rule="evenodd"   d="M 14.413346736684101 -17.249559322439044 L 14.581354628059984 -18.268531487204548 15.296185304874566 -18.166399582525504 15.313186150822563 -17.26656016838704 Z"  />
<path  style="fill:rgb(228,96,27); " fill-rule="evenodd"   d="M 15.999196745065381 -18.151519663467255 L 15.360419288157754 -18.616098602507115 16.021343139597317 -19.424119183037035 16.64656970211624 -18.77674622598618 Z"  />
<path  style="fill:rgb(242,24,13); " fill-rule="evenodd"   d="M 15.30463638165505 -19.08872377925261 L 14.895533974716418 -19.619913973507202 15.55702069952943 -20.33624217835183 16.054587740141848 -19.586290819865027 Z"  />
<path  style="fill:rgb(255,149,0); " fill-rule="evenodd"   d="M 15.28477861977039 -19.683086884399316 L 15.305523382464672 -20.584907754865434 16.07907609761064 -20.677617686685814 16.179192759833764 -19.783203546622442 Z"  />
<path  style="fill:rgb(0,0,255); " fill-rule="evenodd"   d="M 15.55 -0.55 L 15.55 -1.45 16.45 -1.45 16.45 -0.55 Z"  />
<path  style="fill:rgb(13,1,242); " fill-rule="evenodd"   d="M 15.589182816270759 -1.556940462383816 L 15.5923320276013 -2.450580018980746 16.48178836646721 -2.464274652061736 16.48915268620794 -1.56430478212455 Z"  />
<path  style="fill:rgb(27,14,228); " fill-rule="evenodd"   d="M 15.562144285443557 -2.572481396440908 L 15.55703366487745 -3.484209477486894 16.460651494112486 -3.473971715839828 16.46214304947748 -2.573972951805902 Z"  />
<path  style="fill:rgb(40,2,215); " fill-rule="evenodd"   d="M 15.56479134091005 -3.63682633653345 L 15.584321746377924 -4.544060920880924 16.461854930671468 -4.539753197316955 16.46478656618251 -3.639757972044492 Z"  />
<path  style="fill:rgb(54,32,201); " fill-rule="evenodd"   d="M 15.816605217089617 -4.748458589797622 L 15.724566775143924 -5.602228319022878 16.67512727096713 -5.688107398132911 16.715690648196016 -4.789021967026508 Z"  />
<path  style="fill:rgb(67,58,188); " fill-rule="evenodd"   d="M 15.824332622591335 -5.728180243243194 L 15.671968082529462 -6.631992233466466 16.58563203385253 -6.748191618872582 16.714988016036628 -5.857536225427291 Z"  />
<path  style="fill:rgb(81,8,174); " fill-rule="evenodd"   d="M 15.792708515637887 -6.55289745294691 L 15.554341064258923 -7.470905954347325 16.399125173914243 -7.671941168163135 16.655438702384178 -6.809210981416843 Z"  />
<path  style="fill:rgb(94,6,161); " fill-rule="evenodd"   d="M 15.875220277971119 -7.610182569558519 L 15.704662834114528 -8.545975026543069 16.67754513934033 -8.598248770189258 16.770415808971094 -7.70305323918928 Z"  />
<path  style="fill:rgb(107,69,148); " fill-rule="evenodd"   d="M 15.70053147934514 -8.50947374555318 L 15.557214790892596 -9.396713524885214 16.415837765412725 -9.562249560773207 16.584572529988947 -8.6782085101294 Z"  />
<path  style="fill:rgb(121,22,134); " fill-rule="evenodd"   d="M 15.658966852712279 -9.51520145971727 L 15.683489843459146 -10.43677726206001 16.462535141742155 -10.502256678469285 16.554278606603226 -9.60694492457834 Z"  />
<path  style="fill:rgb(134,29,121); " fill-rule="evenodd"   d="M 15.62723627023887 -10.818202714721998 L 15.541665377249853 -11.79912776799178 16.440071750401156 -11.797640554602268 16.523372930260148 -10.901503894580987 Z"  />
<path  style="fill:rgb(148,105,107); " fill-rule="evenodd"   d="M 16.021901163875434 -11.847937276596026 L 15.839974421406332 -12.661142445487986 16.78278526158108 -12.868258495555365 16.912503822207928 -11.977655837222875 Z"  />
<path  style="fill:rgb(161,99,94); " fill-rule="evenodd"   d="M 15.74928537866732 -12.969912140312381 L 15.36075070441953 -13.8029346414645 16.05491385349655 -14.20546514822971 16.5198761200406 -13.43487440685643 Z"  />
<path  style="fill:rgb(174,68,81); " fill-rule="evenodd"   d="M 15.941721665202301 -13.26956896083924 L 15.470173729741635 -14.217331058879683 16.37936157653594 -14.464755686003087 16.758134983451043 -13.648342367754346 Z"  />
<path  style="fill:rgb(188,30,67); " fill-rule="evenodd"   d="M 16.338174400705007 -14.646302572628317 L 15.62190973934604 -15.413083117913844 16.426375936594603 -15.916035020456091 17.017141392563694 -15.237068028597408 Z"  />
<path  style="fill:rgb(201,93,54); " fill-rule="evenodd"   d="M 16.321952084269512 -16.067695790415343 L 16.100188563029157 -16.777918143239685 16.96516690458259 -17.166001164584845 17.1927121815108 -16.295241067343557 Z"  />
<path  style="fill:rgb(215,103,40); " fill-rule="evenodd"   d="M 16.509635843748462 -16.622716451881118 L 16.064072236674303 -17.41424173982619 16.80475028750342 -17.86082285485592 17.276246267113343 -17.094212431491037 Z"  />
<path  style="fill:rgb(228,144,27); " fill-rule="evenodd"   d="M 16.847395432334412 -17.972691314395718 L 16.30022310557836 -18.619371615908847 17.08535266643611 -19.22304180715311 17.591549295763958 -18.478887943723564 Z"  />
<path  style="fill:rgb(242,143,13); " fill-rule="evenodd"   d="M 16.43113932178516 -19.056315672021803 L 16.076416692306267 -19.809912066284575 17.039844870536783 -20.17411599181017 17.294392256055154 -19.310863057540175 Z"  />
<path  style="fill:rgb(255,47,0); " fill-rule="evenodd"   d="M 16.684099083872322 -19.742449221543062 L 16.232069570034348 -20.712408279871642 16.935770022263533 -20.990111731506907 17.43376580804985 -20.24044500732938 Z"  />
<path  style="fill:rgb(0,0,255); " fill-rule="evenodd"   d="M 16.55 -0.55 L 16.55 -1.45 17.45 -1.45 17.45 -0.55 Z"  />
<path  style="fill:rgb(13,8,242); " fill-rule="evenodd"   d="M 16.603660482084226 -1.577581528105986 L 16.573043754049777 -2.468947808624453 17.46593479047514 -2.51378824517705 17.502900994815214 -1.614547732446064 Z"  />
<path  style="fill:rgb(27,11,228); " fill-rule="evenodd"   d="M 16.632210415509483 -2.600179706346728 L 16.607100816674638 -3.505938509542983 17.524709916466907 -3.507618211585923 17.532179418607793 -2.607649208487612 Z"  />
<path  style="fill:rgb(40,32,215); " fill-rule="evenodd"   d="M 16.696308629951652 -3.658614085588007 L 16.530334964204034 -4.511340802167377 17.4498941541964 -4.684337663190068 17.585963180875055 -3.794683112266664 Z"  />
<path  style="fill:rgb(54,29,201); " fill-rule="evenodd"   d="M 16.603318995684013 -4.612634819409623 L 16.562659101865822 -5.495604985491314 17.480834555775946 -5.534571065468176 17.503044898759256 -4.634845162392931 Z"  />
<path  style="fill:rgb(67,62,188); " fill-rule="evenodd"   d="M 16.74010569991572 -5.745338939619932 L 16.77575587596131 -6.673298198102055 17.616076816101476 -6.66874275356499 17.639793164981125 -5.769055288499582 Z"  />
<path  style="fill:rgb(81,60,174); " fill-rule="evenodd"   d="M 16.737232114700447 -6.671068114301946 L 16.53084798566828 -7.477883974376566 17.35984995000583 -7.781179384022074 17.603596667213203 -6.914814831509316 Z"  />
<path  style="fill:rgb(94,76,161); " fill-rule="evenodd"   d="M 16.817764465367745 -7.619097628429472 L 16.547073740339275 -8.402493001751967 17.34611302824625 -8.777047452948747 17.660913659066633 -7.933898259249855 Z"  />
<path  style="fill:rgb(107,10,148); " fill-rule="evenodd"   d="M 16.79956353906443 -8.618542502982717 L 16.79247768539124 -9.531648623678048 17.597538811113985 -9.610124806776728 17.694342326986213 -8.715346018854946 Z"  />
<path  style="fill:rgb(121,77,134); " fill-rule="evenodd"   d="M 17.064472188312507 -9.91691509310209 L 16.823172635463234 -10.735097019283868 17.57061763639404 -11.08474075876728 17.901457745185866 -10.247755201893918 Z"  />
<path  style="fill:rgb(134,87,121); " fill-rule="evenodd"   d="M 17.289729562234704 -10.478696130528288 L 16.850703207766983 -11.355391773631464 17.743736931891185 -11.667761859702921 18.11126611165026 -10.846225310287362 Z"  />
<path  style="fill:rgb(148,147,107); " fill-rule="evenodd"   d="M 17.2086643110596 -11.571238873118517 L 16.948375318988905 -12.303386287882674 17.817027811210075 -12.689225389890815 18.071839319520986 -11.826050381429425 Z"  />
<path  style="fill:rgb(161,115,94); " fill-rule="evenodd"   d="M 17.355642568938105 -12.98530063477031 L 16.86404962370357 -13.725356035926849 17.649887207276244 -14.223614041307302 18.12192159137567 -13.457335018869736 Z"  />
<path  style="fill:rgb(174,116,81); " fill-rule="evenodd"   d="M 16.944136626045744 -14.113320371413868 L 16.506328232478644 -14.859037740405197 17.482057993856333 -15.266854333658925 17.789864291073567 -14.421126668631102 Z"  />
<path  style="fill:rgb(188,133,67); " fill-rule="evenodd"   d="M 17.237987846384826 -15.057447338839982 L 17.0070076941923 -15.946567318057213 17.898260768266393 -16.14558320748414 18.11219224164769 -15.271378812221275 Z"  />
<path  style="fill:rgb(201,188,54); " fill-rule="evenodd"   d="M 17.45747256649978 -15.830346451883296 L 17.13215509109743 -16.55376851656503 18.033441811802614 -16.965361618506755 18.312964772462927 -16.10986941254361 Z"  />
<path  style="fill:rgb(215,122,40); " fill-rule="evenodd"   d="M 17.159090289917643 -16.311699232256327 L 16.7965677867599 -17.34316607912496 17.752239964529824 -17.437831313100954 18.018731167646045 -16.578190435372548 Z"  />
<path  style="fill:rgb(228,20,27); " fill-rule="evenodd"   d="M 16.950832517751447 -18.0311584613314 L 16.534839448903014 -18.641075095061723 17.10489842479496 -19.29459175845747 17.659582119836237 -18.585842156372685 Z"  />
<path  style="fill:rgb(242,177,13); " fill-rule="evenodd"   d="M 17.62995920581422 -18.857390312441495 L 17.22929108356682 -19.577769351606605 17.700041397711665 -20.128251629178628 18.300430960131507 -19.457779874861345 Z"  />
<path  style="fill:rgb(255,73,0); " fill-rule="evenodd"   d="M 17.477707242897903 -20.263138516946935 L 17.37429992306728 -21.108773576356022 18.373708828239163 -21.167119246313405 18.37769840025177 -20.267128088959538 Z"  />
<path  style="fill:rgb(0,0,255); " fill-rule="evenodd"   d="M 17.55 -0.55 L 17.55 -1.45 18.45 -1.45 18.45 -0.55 Z"  />
<path  style="fill:rgb(13,11,242); " fill-rule="evenodd"   d="M 17.601233721700677 -1.5734093986764 L 17.574879867606946 -2.464956915628429 18.464157744827038 -2.509017292140006 18.50049967999566 -1.60975133384502 Z"  />
<path  style="fill:rgb(27,2,228); " fill-rule="evenodd"   d="M 17.65689245350145 -2.606960408505276 L 17.64147142904468 -3.527287456803232 18.55657296236851 -3.507279786262248 18.556892396813463 -2.607279842950229 Z"  />
<path  style="fill:rgb(40,6,215); " fill-rule="evenodd"   d="M 17.69164437436316 -3.613853549442251 L 17.669305378232963 -4.475868739932572 18.556200845312944 -4.547953173967848 18.59097242210085 -3.648625126230159 Z"  />
<path  style="fill:rgb(54,1,201); " fill-rule="evenodd"   d="M 17.70883175697526 -4.682753768568078 L 17.60353178250551 -5.591145399083487 18.538538438050946 -5.647941223614178 18.606278825036153 -4.750494155553284 Z"  />
<path  style="fill:rgb(67,39,188); " fill-rule="evenodd"   d="M 17.7159645934747 -5.430712461679626 L 17.555035199089478 -6.381125376077298 18.427223135302725 -6.486227163934723 18.59935121551626 -5.60284054189316 Z"  />
<path  style="fill:rgb(81,75,174); " fill-rule="evenodd"   d="M 17.747195645049178 -6.483607230354983 L 17.589777497943913 -7.404772091272421 18.529222482222224 -7.487815389025845 18.64031314297113 -6.59469789110389 Z"  />
<path  style="fill:rgb(94,27,161); " fill-rule="evenodd"   d="M 17.774207355234893 -7.649716113203069 L 17.511388705319245 -8.458821547201616 18.32890488080141 -8.79527739708551 18.62433675995937 -7.94514799236103 Z"  />
<path  style="fill:rgb(107,86,148); " fill-rule="evenodd"   d="M 17.934814104771277 -8.495324049722832 L 17.789519213503628 -9.426866589765046 18.709324740534495 -9.505340522405158 18.82707765899405 -8.613076968182385 Z"  />
<path  style="fill:rgb(121,43,134); " fill-rule="evenodd"   d="M 17.95982898670809 -9.591485495129273 L 17.501696543142053 -10.257612679073858 18.354414752926218 -10.801568993528473 18.762163619016754 -9.99923436121981 Z"  />
<path  style="fill:rgb(134,45,121); " fill-rule="evenodd"   d="M 18.19841409056835 -10.621729972153105 L 18.019007424949415 -11.634141641669457 19.043834668275437 -11.573183621465256 19.096851204077968 -10.674746507955637 Z"  />
<path  style="fill:rgb(148,57,107); " fill-rule="evenodd"   d="M 17.731913123413857 -11.670620502669419 L 17.432672380663 -12.650732742492039 18.36061793900169 -12.777295818584918 18.59960318916552 -11.90960575283325 Z"  />
<path  style="fill:rgb(161,55,94); " fill-rule="evenodd"   d="M 17.772864178660118 -12.919628388871837 L 17.422138026685012 -13.847558411505124 18.347004176823837 -14.055569964177783 18.62790496539495 -13.200529177442947 Z"  />
<path  style="fill:rgb(174,9,81); " fill-rule="evenodd"   d="M 17.910987952160546 -13.805185295365138 L 17.71686020111826 -14.53542767250735 18.562596325311837 -14.898531776604788 18.783465379356016 -14.026054349409314 Z"  />
<path  style="fill:rgb(188,102,67); " fill-rule="evenodd"   d="M 17.895457515226912 -14.903969607072895 L 17.578948281295418 -15.932548757073047 18.591868118038168 -15.969339154362505 18.776347590277343 -15.08844907931207 Z"  />
<path  style="fill:rgb(201,86,54); " fill-rule="evenodd"   d="M 18.003137017833417 -15.449216904770323 L 17.36769827891664 -16.147647287720133 18.073347919378065 -16.72007111722126 18.67366957483121 -16.049538560223468 Z"  />
<path  style="fill:rgb(215,136,40); " fill-rule="evenodd"   d="M 17.98859244320049 -17.329156345281767 L 17.715395344118825 -18.047655591376653 18.66606466964231 -18.406668007585218 18.866084387573128 -17.52917606321258 Z"  />
<path  style="fill:rgb(228,41,27); " fill-rule="evenodd"   d="M 18.01150746395335 -18.510846040876864 L 17.635803867292115 -19.1348188807173 18.671729403021597 -19.599012843886847 18.885701834992464 -18.724818472847733 Z"  />
<path  style="fill:rgb(242,207,13); " fill-rule="evenodd"   d="M 18.339002828122265 -18.62916126710001 L 17.94319218085699 -19.597149876545664 18.742751443633164 -19.83621845525351 19.144405729954464 -19.030815553421313 Z"  />
<path  style="fill:rgb(255,96,0); " fill-rule="evenodd"   d="M 18.458678694688256 -19.795774438466097 L 17.87688967132171 -20.30015467198045 18.484059713405635 -21.068313555306467 19.107638762467133 -20.419353487527587 Z"  />
<path  style="fill:rgb(0,0,255); " fill-rule="evenodd"   d="M 18.55 -0.55 L 18.55 -1.45 19.45 -1.45 19.45 -0.55 Z"  />
<path  style="fill:rgb(13,9,242); " fill-rule="evenodd"   d="M 18.593944211331365 -1.532449092100519 L 18.569386666243386 -2.441651843681529 19.461248200561762 -2.463998226749379 19.493370773270993 -1.56457166480975 Z"  />
<path  style="fill:rgb(27,8,228); " fill-rule="evenodd"   d="M 18.633483372142287 -2.490332008676389 L 18.572438868155587 -3.410177335800811 19.445261984412397 -3.470645981167248 19.52952966452277 -2.574599688786761 Z"  />
<path  style="fill:rgb(40,29,215); " fill-rule="evenodd"   d="M 18.584332579325118 -3.543999155784274 L 18.535723015258252 -4.426873866437859 19.427230263440848 -4.497688567549098 19.482626127265394 -3.599395019608821 Z"  />
<path  style="fill:rgb(54,0,201); " fill-rule="evenodd"   d="M 18.777143890229976 -4.567835538365937 L 18.739927414163162 -5.494845760006534 19.653892870568477 -5.490500821919727 19.67685102217612 -4.590793689973581 Z"  />
<path  style="fill:rgb(67,37,188); " fill-rule="evenodd"   d="M 18.799146566759326 -5.61940087100594 L 18.60509056583565 -6.506459796025084 19.434544910724977 -6.722246709954298 19.66826865821633 -5.853124618497294 Z"  />
<path  style="fill:rgb(81,20,174); " fill-rule="evenodd"   d="M 18.83304294817286 -6.707230153861128 L 18.59074342327326 -7.617712538769783 19.491201078434738 -7.796646454257899 19.706830163502183 -6.922859238928573 Z"  />
<path  style="fill:rgb(94,53,161); " fill-rule="evenodd"   d="M 18.796845640680097 -7.742653192788625 L 18.685964888598644 -8.649865020289038 19.553832836647075 -8.765868900810178 19.686947092674362 -7.875767448815912 Z"  />
<path  style="fill:rgb(107,24,148); " fill-rule="evenodd"   d="M 18.84052768696389 -8.882911891085245 L 18.75979548622085 -9.736877355898706 19.619765665821593 -9.8892856647428 19.733333563221517 -8.996479788485168 Z"  />
<path  style="fill:rgb(121,30,134); " fill-rule="evenodd"   d="M 18.716093878482923 -9.944442526374932 L 18.44689854005629 -10.712558755370544 19.149644056867587 -11.141118858063088 19.53120713351933 -10.32600560302668 Z"  />
<path  style="fill:rgb(134,121,121); " fill-rule="evenodd"   d="M 18.739266741591624 -10.87124833431361 L 18.436703101633505 -11.785490295228982 19.302212784056284 -12.012778777741804 19.59150498453805 -11.160540534795377 Z"  />
<path  style="fill:rgb(148,85,107); " fill-rule="evenodd"   d="M 18.898422422189338 -11.478729342544387 L 18.530499927974393 -12.395580207062427 19.316450666064004 -12.680915845264764 19.70852979548686 -11.87080847196724 Z"  />
<path  style="fill:rgb(161,2,94); " fill-rule="evenodd"   d="M 18.854177706782544 -13.052230544934682 L 18.442078231753428 -13.749356229690543 19.265344983443534 -14.256780863768716 19.662036504530057 -13.448922066021202 Z"  />
<path  style="fill:rgb(174,108,81); " fill-rule="evenodd"   d="M 19.364667616811175 -13.978715378980636 L 18.83524469687198 -14.696277741146785 19.538295624064034 -15.239609234583638 20.081928548239105 -14.522348303155708 Z"  />
<path  style="fill:rgb(188,44,67); " fill-rule="evenodd"   d="M 19.020752732307102 -14.898818891996264 L 18.468762080306618 -15.678511639535468 19.15149150771383 -16.164878674394057 19.71915201120936 -15.466479395491799 Z"  />
<path  style="fill:rgb(201,27,54); " fill-rule="evenodd"   d="M 19.198337808277802 -15.496163025116289 L 18.796532707648183 -16.330814838250255 19.42686691162634 -16.748271027216227 19.938656361002042 -16.007952474491987 Z"  />
<path  style="fill:rgb(215,178,40); " fill-rule="evenodd"   d="M 19.28952192493681 -16.514826445661978 L 19.055877110883966 -17.347738485125042 19.793379560251722 -17.683641008941738 20.125858024234148 -16.847304909644404 Z"  />
<path  style="fill:rgb(228,81,27); " fill-rule="evenodd"   d="M 19.277297183565246 -17.530455551651052 L 19.10121655623167 -18.358337943445196 19.923034284772992 -18.627279874924298 20.148577895805744 -17.755999162683803 Z"  />
<path  style="fill:rgb(242,81,13); " fill-rule="evenodd"   d="M 19.705323790875337 -19.185761987956283 L 19.104198778666454 -19.824758330911557 19.818126797541392 -20.45354567679562 20.395617138628037 -19.763252329042928 Z"  />
<path  style="fill:rgb(255,194,0); " fill-rule="evenodd"   d="M 19.744400150350263 -19.819808695181976 L 18.99268614580143 -20.477994513298633 19.886152777504947 -21.084682678112586 20.447713455392908 -20.381369373069944 Z"  />
<path  style="fill:rgb(0,0,255); " fill-rule="evenodd"   d="M 19.55 -0.55 L 19.55 -1.45 20.45 -1.45 20.45 -0.55 Z"  />
<path  style="fill:rgb(13,6,242); " fill-rule="evenodd"   d="M 19.563789268258798 -1.543003454940481 L 19.553623360815457 -2.442274354789654 20.440040555052686 -2.466141409090378 20.46348388873069 -1.566446788618486 Z"  />
<path  style="fill:rgb(27,6,228); " fill-rule="evenodd"   d="M 19.66164914093233 -2.558905916438227 L 19.59504746412367 -3.450868201277988 20.507081189834445 -3.510349372818674 20.560086893573608 -2.611911620177393 Z"  />
<path  style="fill:rgb(40,12,215); " fill-rule="evenodd"   d="M 19.718874766812466 -3.607378722738282 L 19.58469547144556 -4.520279375630384 20.49482709245303 -4.616288029035434 20.611305582781323 -3.723857213066575 Z"  />
<path  style="fill:rgb(54,31,201); " fill-rule="evenodd"   d="M 19.821796910030788 -4.476765267443202 L 19.65005126442511 -5.366836982021446 20.52882365246108 -5.535119265634922 20.704487280341795 -4.652428895323913 Z"  />
<path  style="fill:rgb(67,29,188); " fill-rule="evenodd"   d="M 19.65534904532404 -5.734985834140994 L 19.584993819184874 -6.675613926716785 20.543581511702456 -6.646601479943171 20.555273101414336 -5.746677423852876 Z"  />
<path  style="fill:rgb(81,15,174); " fill-rule="evenodd"   d="M 19.63975280579962 -6.762689896511623 L 19.658262039440597 -7.720968921845666 20.513261203361445 -7.688423702413174 20.539373907531306 -6.788802600681485 Z"  />
<path  style="fill:rgb(94,19,161); " fill-rule="evenodd"   d="M 19.696659029278447 -7.471107705525424 L 19.600457181844757 -8.413974018319053 20.43038896340177 -8.511127120618898 20.583533703886847 -7.624252446010497 Z"  />
<path  style="fill:rgb(107,61,148); " fill-rule="evenodd"   d="M 19.95097823070238 -8.769506107603778 L 19.92684963656343 -9.73168949137948 20.830153033698394 -9.68986020564263 20.850742681219813 -8.790095755125195 Z"  />
<path  style="fill:rgb(121,63,134); " fill-rule="evenodd"   d="M 19.547372276270327 -9.749995546451595 L 19.549025636204092 -10.575341998815892 20.33476842318052 -10.749999200360406 20.44107217667983 -9.856299299950903 Z"  />
<path  style="fill:rgb(134,51,121); " fill-rule="evenodd"   d="M 19.609082504829452 -10.862096817971631 L 19.472671763034135 -11.757462587161406 20.23326423472153 -11.971329511354277 20.475789716466814 -11.104622299716915 Z"  />
<path  style="fill:rgb(148,80,107); " fill-rule="evenodd"   d="M 19.88356037516462 -11.499831109431183 L 19.57475686347623 -12.391251404333085 20.48338831638172 -12.622420277798335 20.74476892995675 -11.76121172300621 Z"  />
<path  style="fill:rgb(161,94,94); " fill-rule="evenodd"   d="M 20.31308357320952 -12.595069753024692 L 19.789676519046665 -13.301524792311994 20.65587818398118 -13.820831497747498 21.097361750956754 -13.036553320000266 Z"  />
<path  style="fill:rgb(174,41,81); " fill-rule="evenodd"   d="M 20.028650812176767 -13.767550327983985 L 19.90255327302394 -14.803967372834434 20.649176016880503 -14.878832681991005 20.894554591532142 -14.012928902635627 Z"  />
<path  style="fill:rgb(188,173,67); " fill-rule="evenodd"   d="M 19.97968399639308 -14.963396179663125 L 19.897680134747766 -15.9379724033607 20.619862109042593 -16.063474351469342 20.849812138620948 -15.19334620924148 Z"  />
<path  style="fill:rgb(201,5,54); " fill-rule="evenodd"   d="M 20.176323650061793 -15.584492335063652 L 19.583881342826288 -16.456626947683525 20.513678724601633 -16.811762294641497 20.958636167120638 -16.029449777582656 Z"  />
<path  style="fill:rgb(215,195,40); " fill-rule="evenodd"   d="M 20.43811154496289 -16.85963402979591 L 20.184985600589318 -17.745282816271995 21.241608583794495 -17.84674724953762 21.333416674249552 -16.951442120250967 Z"  />
<path  style="fill:rgb(228,165,27); " fill-rule="evenodd"   d="M 19.886299872557476 -18.0980391681837 L 19.91519353360309 -18.859212087651365 20.592320782696458 -19.157064415496777 20.768822951283504 -18.27454133677075 Z"  />
<path  style="fill:rgb(242,103,13); " fill-rule="evenodd"   d="M 20.44472004401198 -19.1527436946617 L 19.66673968567672 -19.726309714404977 20.24601061917289 -20.409928869757287 20.973957919140226 -19.88069099462904 Z"  />
<path  style="fill:rgb(255,29,0); " fill-rule="evenodd"   d="M 20.715680565714475 -19.830808949852596 L 20.287181878410596 -20.814136710334207 21.338668111379082 -20.940712782599732 21.582126254920347 -20.07426709339386 Z"  />
</svg>
