<svg xmlns="http://www.w3.org/2000/svg" viewBox="-224.14817375687952 -224.14817375687952 448.29634751375903 448.29634751375903"  style="background-color:#ffffff; " > 
<path  style="fill:hsl(200,100%,60%); stroke:#000000; stroke-width:.02; " fill-rule="evenodd"   d="M 0.707106781186548 -0.707106781186548 L 0.707106781186548 -1.224744871391589 1.224744871391589 -1.224744871391589 1.224744871391589 -0.707106781186548 Z"  />
<path  style="fill:hsl(200,100%,30%); stroke:#000000; stroke-width:.02; " fill-rule="evenodd"   d="M 1.224744871391589 -0.707106781186548 L 1.414213562373096 -1.414213562373096 2.121320343559643 -1.224744871391589 1.931851652578138 -0.517638090205042 Z"  />
<path  style="fill:hsl(40,100%,30%); stroke:#000000; stroke-width:.02; " fill-rule="evenodd"   d="M 1.414213562373096 -1.414213562373096 L 1.414213562373096 -2.44948974278318 2.449489742783179 -2.449489742783179 2.44948974278318 -1.414213562373096 Z"  />
<path  style="fill:hsl(40,100%,60%); stroke:#000000; stroke-width:.02; " fill-rule="evenodd"   d="M 2.44948974278318 -1.414213562373096 L 2.828427124746193 -2.828427124746192 4.242640687119289 -2.44948974278318 3.863703305156277 -1.035276180410084 Z"  />
<path  style="fill:hsl(200,100%,60%); stroke:#000000; stroke-width:.02; " fill-rule="evenodd"   d="M 2.828427124746193 -2.828427124746192 L 2.828427124746194 -4.898979485566362 4.898979485566361 -4.89897948556636 4.898979485566362 -2.828427124746193 Z"  />
<path  style="fill:hsl(200,100%,30%); stroke:#000000; stroke-width:.02; " fill-rule="evenodd"   d="M 4.898979485566362 -2.828427124746193 L 5.656854249492388 -5.656854249492387 8.48528137423858 -4.898979485566361 7.727406610312557 -2.070552360820169 Z"  />
<path  style="fill:hsl(40,100%,30%); stroke:#000000; stroke-width:.02; " fill-rule="evenodd"   d="M 5.656854249492388 -5.656854249492387 L 5.65685424949239 -9.797958971132728 9.797958971132726 -9.797958971132724 9.797958971132728 -5.65685424949239 Z"  />
<path  style="fill:hsl(40,100%,60%); stroke:#000000; stroke-width:.02; " fill-rule="evenodd"   d="M 9.79795897113273 -5.656854249492389 L 11.31370849898478 -11.313708498984779 16.97056274847717 -9.797958971132728 15.45481322062512 -4.141104721640339 Z"  />
<path  style="fill:hsl(200,100%,60%); stroke:#000000; stroke-width:.02; " fill-rule="evenodd"   d="M 11.31370849898478 -11.313708498984779 L 11.313708498984784 -19.595917942265462 19.595917942265462 -19.59591794226546 19.595917942265462 -11.313708498984782 Z"  />
<path  style="fill:hsl(200,100%,30%); stroke:#000000; stroke-width:.02; " fill-rule="evenodd"   d="M 19.595917942265466 -11.31370849898478 L 22.627416997969572 -22.62741699796957 33.941125496954356 -19.595917942265462 30.909626441250253 -8.282209443280681 Z"  />
<path  style="fill:hsl(40,100%,30%); stroke:#000000; stroke-width:.02; " fill-rule="evenodd"   d="M 22.627416997969572 -22.62741699796957 L 22.62741699796958 -39.191835884530946 39.19183588453094 -39.19183588453093 39.191835884530946 -22.627416997969576 Z"  />
<path  style="fill:hsl(40,100%,60%); stroke:#000000; stroke-width:.02; " fill-rule="evenodd"   d="M 39.191835884530946 -22.627416997969572 L 45.254833995939165 -45.25483399593916 67.88225099390873 -39.19183588453094 61.819252882500535 -16.56441888656137 Z"  />
<path  style="fill:hsl(200,100%,60%); stroke:#000000; stroke-width:.02; " fill-rule="evenodd"   d="M 45.254833995939165 -45.25483399593916 L 45.25483399593918 -78.38367176906192 78.38367176906192 -78.3836717690619 78.38367176906192 -45.25483399593917 Z"  />
<path  style="fill:hsl(200,100%,30%); stroke:#000000; stroke-width:.02; " fill-rule="evenodd"   d="M 78.38367176906193 -45.254833995939165 L 90.50966799187837 -90.50966799187836 135.76450198781754 -78.38367176906192 123.63850576500113 -33.128837773122754 Z"  />
<path  style="fill:hsl(40,100%,30%); stroke:#000000; stroke-width:.02; " fill-rule="evenodd"   d="M 90.50966799187837 -90.50966799187836 L 90.5096679918784 -156.76734353812392 156.7673435381239 -156.76734353812387 156.76734353812392 -90.50966799187839 Z"  />
<path  style="fill:hsl(40,100%,30%); stroke:#000000; stroke-width:.02; " fill-rule="evenodd"   d="M 0.258819045102521 -0.965925826289068 L 4.006140973603044e-16 -1.414213562373095 0.448287736084027 -1.673032607475616 0.707106781186548 -1.224744871391589 Z"  />
<path  style="fill:hsl(40,100%,60%); stroke:#000000; stroke-width:.02; " fill-rule="evenodd"   d="M 0.707106781186548 -1.224744871391589 L 0.517638090205042 -1.931851652578137 1.22474487139159 -2.121320343559643 1.414213562373096 -1.414213562373096 Z"  />
<path  style="fill:hsl(200,100%,60%); stroke:#000000; stroke-width:.02; " fill-rule="evenodd"   d="M 0.517638090205042 -1.931851652578137 L 8.012281947206093e-16 -2.828427124746192 0.896575472168055 -3.346065214951233 1.414213562373096 -2.44948974278318 Z"  />
<path  style="fill:hsl(200,100%,30%); stroke:#000000; stroke-width:.02; " fill-rule="evenodd"   d="M 1.414213562373096 -2.44948974278318 L 1.035276180410085 -3.863703305156276 2.44948974278318 -4.242640687119288 2.828427124746193 -2.828427124746192 Z"  />
<path  style="fill:hsl(40,100%,30%); stroke:#000000; stroke-width:.02; " fill-rule="evenodd"   d="M 1.035276180410085 -3.863703305156276 L 1.602456389441219e-15 -5.656854249492387 1.79315094433611 -6.692130429902469 2.828427124746194 -4.898979485566362 Z"  />
<path  style="fill:hsl(40,100%,60%); stroke:#000000; stroke-width:.02; " fill-rule="evenodd"   d="M 2.828427124746194 -4.898979485566362 L 2.07055236082017 -7.727406610312556 4.898979485566363 -8.48528137423858 5.656854249492388 -5.656854249492387 Z"  />
<path  style="fill:hsl(200,100%,60%); stroke:#000000; stroke-width:.02; " fill-rule="evenodd"   d="M 2.07055236082017 -7.727406610312556 L 3.20491277888244e-15 -11.313708498984779 3.586301888672222 -13.384260859804943 5.65685424949239 -9.797958971132728 Z"  />
<path  style="fill:hsl(200,100%,30%); stroke:#000000; stroke-width:.02; " fill-rule="evenodd"   d="M 5.65685424949239 -9.797958971132728 L 4.141104721640342 -15.454813220625118 9.797958971132731 -16.970562748477168 11.31370849898478 -11.313708498984779 Z"  />
<path  style="fill:hsl(40,100%,30%); stroke:#000000; stroke-width:.02; " fill-rule="evenodd"   d="M 4.141104721640342 -15.454813220625118 L 6.409825557764882e-15 -22.627416997969565 7.172603777344447 -26.7685217196099 11.313708498984784 -19.595917942265462 Z"  />
<path  style="fill:hsl(40,100%,60%); stroke:#000000; stroke-width:.02; " fill-rule="evenodd"   d="M 11.313708498984784 -19.595917942265462 L 8.282209443280689 -30.90962644125025 19.59591794226547 -33.94112549695435 22.627416997969572 -22.62741699796957 Z"  />
<path  style="fill:hsl(200,100%,60%); stroke:#000000; stroke-width:.02; " fill-rule="evenodd"   d="M 8.282209443280689 -30.90962644125025 L 1.281965111552977e-14 -45.25483399593915 14.3452075546889 -53.53704343921982 22.62741699796958 -39.191835884530946 Z"  />
<path  style="fill:hsl(200,100%,30%); stroke:#000000; stroke-width:.02; " fill-rule="evenodd"   d="M 22.62741699796958 -39.191835884530946 L 16.564418886561384 -61.81925288250053 39.19183588453095 -67.88225099390873 45.254833995939165 -45.25483399593916 Z"  />
<path  style="fill:hsl(40,100%,30%); stroke:#000000; stroke-width:.02; " fill-rule="evenodd"   d="M 16.564418886561384 -61.81925288250053 L 2.563930223105955e-14 -90.50966799187835 28.690415109377813 -107.0740868784397 45.25483399593918 -78.38367176906192 Z"  />
<path  style="fill:hsl(40,100%,60%); stroke:#000000; stroke-width:.02; " fill-rule="evenodd"   d="M 45.25483399593918 -78.38367176906192 L 33.12883777312278 -123.63850576500111 78.38367176906195 -135.7645019878175 90.50966799187837 -90.50966799187836 Z"  />
<path  style="fill:hsl(200,100%,60%); stroke:#000000; stroke-width:.02; " fill-rule="evenodd"   d="M 33.12883777312278 -123.63850576500111 L 5.127860446211913e-14 -181.01933598375678 57.38083021875565 -214.1481737568795 90.5096679918784 -156.76734353812392 Z"  />
<path  style="fill:hsl(200,100%,60%); stroke:#000000; stroke-width:.02; " fill-rule="evenodd"   d="M -0.258819045102521 -0.965925826289068 L -0.707106781186548 -1.224744871391589 -0.448287736084027 -1.673032607475616 8.659560562354935e-17 -1.414213562373095 Z"  />
<path  style="fill:hsl(200,100%,30%); stroke:#000000; stroke-width:.02; " fill-rule="evenodd"   d="M 8.659560562354935e-17 -1.414213562373095 L -0.517638090205042 -1.931851652578138 1.499879886521847e-16 -2.449489742783179 0.517638090205042 -1.931851652578138 Z"  />
<path  style="fill:hsl(40,100%,30%); stroke:#000000; stroke-width:.02; " fill-rule="evenodd"   d="M -0.517638090205042 -1.931851652578138 L -1.414213562373096 -2.44948974278318 -0.896575472168053 -3.346065214951233 1.731912112470988e-16 -2.828427124746192 Z"  />
<path  style="fill:hsl(40,100%,60%); stroke:#000000; stroke-width:.02; " fill-rule="evenodd"   d="M 1.731912112470988e-16 -2.828427124746192 L -1.035276180410083 -3.863703305156277 2.999759773043695e-16 -4.89897948556636 1.035276180410084 -3.863703305156277 Z"  />
<path  style="fill:hsl(200,100%,60%); stroke:#000000; stroke-width:.02; " fill-rule="evenodd"   d="M -1.035276180410083 -3.863703305156277 L -2.828427124746192 -4.898979485566362 -1.793150944336108 -6.69213042990247 3.463824224941977e-16 -5.656854249492387 Z"  />
<path  style="fill:hsl(200,100%,30%); stroke:#000000; stroke-width:.02; " fill-rule="evenodd"   d="M 3.463824224941977e-16 -5.656854249492387 L -2.070552360820168 -7.727406610312557 5.999519546087392e-16 -9.797958971132724 2.070552360820169 -7.727406610312557 Z"  />
<path  style="fill:hsl(40,100%,30%); stroke:#000000; stroke-width:.02; " fill-rule="evenodd"   d="M -2.070552360820168 -7.727406610312557 L -5.656854249492388 -9.79795897113273 -3.586301888672217 -13.384260859804945 6.927648449883958e-16 -11.313708498984779 Z"  />
<path  style="fill:hsl(40,100%,60%); stroke:#000000; stroke-width:.02; " fill-rule="evenodd"   d="M 6.927648449883958e-16 -11.313708498984779 L -4.141104721640337 -15.45481322062512 1.199903909217479e-15 -19.59591794226546 4.141104721640339 -15.45481322062512 Z"  />
<path  style="fill:hsl(200,100%,60%); stroke:#000000; stroke-width:.02; " fill-rule="evenodd"   d="M -4.141104721640337 -15.45481322062512 L -11.313708498984779 -19.595917942265466 -7.172603777344438 -26.768521719609904 1.385529689976792e-15 -22.627416997969565 Z"  />
<path  style="fill:hsl(200,100%,30%); stroke:#000000; stroke-width:.02; " fill-rule="evenodd"   d="M 1.385529689976792e-15 -22.627416997969565 L -8.282209443280678 -30.909626441250253 2.399807818434959e-15 -39.19183588453093 8.282209443280681 -30.909626441250253 Z"  />
<path  style="fill:hsl(40,100%,30%); stroke:#000000; stroke-width:.02; " fill-rule="evenodd"   d="M -8.282209443280678 -30.909626441250253 L -22.62741699796957 -39.191835884530946 -14.345207554688882 -53.53704343921983 2.771059379953585e-15 -45.25483399593915 Z"  />
<path  style="fill:hsl(40,100%,60%); stroke:#000000; stroke-width:.02; " fill-rule="evenodd"   d="M 2.771059379953585e-15 -45.25483399593915 L -16.564418886561363 -61.819252882500535 4.79961563686992e-15 -78.38367176906189 16.56441888656137 -61.819252882500535 Z"  />
<path  style="fill:hsl(200,100%,60%); stroke:#000000; stroke-width:.02; " fill-rule="evenodd"   d="M -16.564418886561363 -61.819252882500535 L -45.25483399593916 -78.38367176906193 -28.690415109377778 -107.07408687843972 5.542118759907173e-15 -90.50966799187835 Z"  />
<path  style="fill:hsl(200,100%,30%); stroke:#000000; stroke-width:.02; " fill-rule="evenodd"   d="M 5.542118759907173e-15 -90.50966799187835 L -33.12883777312274 -123.63850576500113 9.599231273739845e-15 -156.76734353812387 33.128837773122754 -123.63850576500113 Z"  />
<path  style="fill:hsl(40,100%,30%); stroke:#000000; stroke-width:.02; " fill-rule="evenodd"   d="M -33.12883777312274 -123.63850576500113 L -90.50966799187836 -156.76734353812392 -57.38083021875558 -214.14817375687952 1.108423751981435e-14 -181.01933598375678 Z"  />
<path  style="fill:hsl(40,100%,30%); stroke:#000000; stroke-width:.02; " fill-rule="evenodd"   d="M -0.707106781186548 -0.707106781186548 L -1.224744871391589 -0.707106781186548 -1.224744871391589 -1.224744871391589 -0.707106781186548 -1.224744871391589 Z"  />
<path  style="fill:hsl(40,100%,60%); stroke:#000000; stroke-width:.02; " fill-rule="evenodd"   d="M -0.707106781186548 -1.224744871391589 L -1.414213562373096 -1.414213562373096 -1.224744871391589 -2.121320343559643 -0.517638090205042 -1.931851652578138 Z"  />
<path  style="fill:hsl(200,100%,60%); stroke:#000000; stroke-width:.02; " fill-rule="evenodd"   d="M -1.414213562373096 -1.414213562373096 L -2.44948974278318 -1.414213562373096 -2.449489742783179 -2.449489742783179 -1.414213562373096 -2.44948974278318 Z"  />
<path  style="fill:hsl(200,100%,30%); stroke:#000000; stroke-width:.02; " fill-rule="evenodd"   d="M -1.414213562373096 -2.44948974278318 L -2.828427124746192 -2.828427124746193 -2.449489742783179 -4.242640687119289 -1.035276180410083 -3.863703305156277 Z"  />
<path  style="fill:hsl(40,100%,30%); stroke:#000000; stroke-width:.02; " fill-rule="evenodd"   d="M -2.828427124746192 -2.828427124746193 L -4.898979485566362 -2.828427124746193 -4.89897948556636 -4.898979485566361 -2.828427124746192 -4.898979485566362 Z"  />
<path  style="fill:hsl(40,100%,60%); stroke:#000000; stroke-width:.02; " fill-rule="evenodd"   d="M -2.828427124746192 -4.898979485566362 L -5.656854249492387 -5.656854249492388 -4.89897948556636 -8.48528137423858 -2.070552360820168 -7.727406610312557 Z"  />
<path  style="fill:hsl(200,100%,60%); stroke:#000000; stroke-width:.02; " fill-rule="evenodd"   d="M -5.656854249492387 -5.656854249492388 L -9.79795897113273 -5.656854249492389 -9.797958971132724 -9.797958971132726 -5.656854249492388 -9.79795897113273 Z"  />
<path  style="fill:hsl(200,100%,30%); stroke:#000000; stroke-width:.02; " fill-rule="evenodd"   d="M -5.656854249492388 -9.79795897113273 L -11.313708498984779 -11.31370849898478 -9.797958971132726 -16.97056274847717 -4.141104721640337 -15.45481322062512 Z"  />
<path  style="fill:hsl(40,100%,30%); stroke:#000000; stroke-width:.02; " fill-rule="evenodd"   d="M -11.313708498984779 -11.31370849898478 L -19.595917942265466 -11.31370849898478 -19.59591794226546 -19.595917942265462 -11.313708498984779 -19.595917942265466 Z"  />
<path  style="fill:hsl(40,100%,60%); stroke:#000000; stroke-width:.02; " fill-rule="evenodd"   d="M -11.313708498984779 -19.595917942265466 L -22.62741699796957 -22.627416997969572 -19.59591794226546 -33.941125496954356 -8.282209443280678 -30.909626441250253 Z"  />
<path  style="fill:hsl(200,100%,60%); stroke:#000000; stroke-width:.02; " fill-rule="evenodd"   d="M -22.62741699796957 -22.627416997969572 L -39.191835884530946 -22.627416997969572 -39.19183588453093 -39.19183588453094 -22.62741699796957 -39.191835884530946 Z"  />
<path  style="fill:hsl(200,100%,30%); stroke:#000000; stroke-width:.02; " fill-rule="evenodd"   d="M -22.62741699796957 -39.191835884530946 L -45.25483399593916 -45.254833995939165 -39.19183588453093 -67.88225099390873 -16.564418886561363 -61.819252882500535 Z"  />
<path  style="fill:hsl(40,100%,30%); stroke:#000000; stroke-width:.02; " fill-rule="evenodd"   d="M -45.25483399593916 -45.254833995939165 L -78.38367176906193 -45.254833995939165 -78.3836717690619 -78.38367176906192 -45.25483399593916 -78.38367176906193 Z"  />
<path  style="fill:hsl(40,100%,60%); stroke:#000000; stroke-width:.02; " fill-rule="evenodd"   d="M -45.25483399593916 -78.38367176906193 L -90.50966799187836 -90.50966799187837 -78.3836717690619 -135.76450198781754 -33.12883777312274 -123.63850576500113 Z"  />
<path  style="fill:hsl(200,100%,60%); stroke:#000000; stroke-width:.02; " fill-rule="evenodd"   d="M -90.50966799187836 -90.50966799187837 L -156.76734353812392 -90.50966799187837 -156.76734353812387 -156.7673435381239 -90.50966799187836 -156.76734353812392 Z"  />
<path  style="fill:hsl(200,100%,60%); stroke:#000000; stroke-width:.02; " fill-rule="evenodd"   d="M -0.965925826289068 -0.258819045102521 L -1.414213562373095 -1.731912112470987e-16 -1.673032607475616 -0.448287736084027 -1.224744871391589 -0.707106781186548 Z"  />
<path  style="fill:hsl(200,100%,30%); stroke:#000000; stroke-width:.02; " fill-rule="evenodd"   d="M -1.224744871391589 -0.707106781186548 L -1.931851652578137 -0.517638090205042 -2.121320343559643 -1.22474487139159 -1.414213562373095 -1.414213562373096 Z"  />
<path  style="fill:hsl(40,100%,30%); stroke:#000000; stroke-width:.02; " fill-rule="evenodd"   d="M -1.931851652578137 -0.517638090205042 L -2.828427124746192 -3.463824224941976e-16 -3.346065214951233 -0.896575472168055 -2.449489742783179 -1.414213562373097 Z"  />
<path  style="fill:hsl(40,100%,60%); stroke:#000000; stroke-width:.02; " fill-rule="evenodd"   d="M -2.449489742783179 -1.414213562373097 L -3.863703305156276 -1.035276180410085 -4.242640687119287 -2.449489742783182 -2.828427124746191 -2.828427124746194 Z"  />
<path  style="fill:hsl(200,100%,60%); stroke:#000000; stroke-width:.02; " fill-rule="evenodd"   d="M -3.863703305156276 -1.035276180410085 L -5.656854249492387 -6.927648449883954e-16 -6.692130429902469 -1.79315094433611 -4.898979485566361 -2.828427124746195 Z"  />
<path  style="fill:hsl(200,100%,30%); stroke:#000000; stroke-width:.02; " fill-rule="evenodd"   d="M -4.898979485566361 -2.828427124746195 L -7.727406610312556 -2.070552360820171 -8.485281374238578 -4.898979485566366 -5.656854249492384 -5.65685424949239 Z"  />
<path  style="fill:hsl(40,100%,30%); stroke:#000000; stroke-width:.02; " fill-rule="evenodd"   d="M -7.727406610312556 -2.070552360820171 L -11.313708498984779 -1.385529689976792e-15 -13.384260859804943 -3.586301888672223 -9.797958971132726 -5.656854249492393 Z"  />
<path  style="fill:hsl(40,100%,60%); stroke:#000000; stroke-width:.02; " fill-rule="evenodd"   d="M -9.797958971132726 -5.656854249492393 L -15.454813220625118 -4.141104721640343 -16.970562748477168 -9.797958971132736 -11.313708498984774 -11.313708498984786 Z"  />
<path  style="fill:hsl(200,100%,60%); stroke:#000000; stroke-width:.02; " fill-rule="evenodd"   d="M -15.454813220625118 -4.141104721640343 L -22.627416997969565 -2.771059379953584e-15 -26.7685217196099 -7.172603777344449 -19.59591794226546 -11.31370849898479 Z"  />
<path  style="fill:hsl(200,100%,30%); stroke:#000000; stroke-width:.02; " fill-rule="evenodd"   d="M -19.59591794226546 -11.31370849898479 L -30.90962644125025 -8.28220944328069 -33.94112549695435 -19.59591794226548 -22.627416997969558 -22.627416997969583 Z"  />
<path  style="fill:hsl(40,100%,30%); stroke:#000000; stroke-width:.02; " fill-rule="evenodd"   d="M -30.90962644125025 -8.28220944328069 L -45.25483399593915 -5.54211875990717e-15 -53.53704343921982 -14.345207554688903 -39.19183588453094 -22.62741699796959 Z"  />
<path  style="fill:hsl(40,100%,60%); stroke:#000000; stroke-width:.02; " fill-rule="evenodd"   d="M -39.19183588453094 -22.62741699796959 L -61.81925288250053 -16.564418886561388 -67.88225099390871 -39.191835884530974 -45.25483399593914 -45.25483399593919 Z"  />
<path  style="fill:hsl(200,100%,60%); stroke:#000000; stroke-width:.02; " fill-rule="evenodd"   d="M -61.81925288250053 -16.564418886561388 L -90.50966799187835 -1.108423751981435e-14 -107.0740868784397 -28.69041510937782 -78.3836717690619 -45.2548339959392 Z"  />
<path  style="fill:hsl(200,100%,30%); stroke:#000000; stroke-width:.02; " fill-rule="evenodd"   d="M -78.3836717690619 -45.2548339959392 L -123.63850576500111 -33.12883777312279 -135.7645019878175 -78.38367176906199 -90.50966799187832 -90.50966799187842 Z"  />
<path  style="fill:hsl(40,100%,30%); stroke:#000000; stroke-width:.02; " fill-rule="evenodd"   d="M -123.63850576500111 -33.12883777312279 L -181.01933598375678 -2.21684750396287e-14 -214.1481737568795 -57.38083021875566 -156.7673435381239 -90.50966799187844 Z"  />
<path  style="fill:hsl(40,100%,30%); stroke:#000000; stroke-width:.02; " fill-rule="evenodd"   d="M -0.965925826289068 0.258819045102521 L -1.224744871391589 0.707106781186548 -1.673032607475616 0.448287736084027 -1.414213562373095 -1.731912112470987e-16 Z"  />
<path  style="fill:hsl(40,100%,60%); stroke:#000000; stroke-width:.02; " fill-rule="evenodd"   d="M -1.414213562373095 -1.731912112470987e-16 L -1.931851652578138 0.517638090205042 -2.449489742783179 -2.999759773043693e-16 -1.931851652578137 -0.517638090205042 Z"  />
<path  style="fill:hsl(200,100%,60%); stroke:#000000; stroke-width:.02; " fill-rule="evenodd"   d="M -1.931851652578138 0.517638090205042 L -2.44948974278318 1.414213562373096 -3.346065214951233 0.896575472168054 -2.828427124746192 -3.463824224941976e-16 Z"  />
<path  style="fill:hsl(200,100%,30%); stroke:#000000; stroke-width:.02; " fill-rule="evenodd"   d="M -2.828427124746192 -3.463824224941976e-16 L -3.863703305156277 1.035276180410084 -4.89897948556636 -5.999519546087391e-16 -3.863703305156276 -1.035276180410085 Z"  />
<path  style="fill:hsl(40,100%,30%); stroke:#000000; stroke-width:.02; " fill-rule="evenodd"   d="M -3.863703305156277 1.035276180410084 L -4.898979485566362 2.828427124746194 -6.69213042990247 1.793150944336109 -5.656854249492387 -6.927648449883954e-16 Z"  />
<path  style="fill:hsl(40,100%,60%); stroke:#000000; stroke-width:.02; " fill-rule="evenodd"   d="M -5.656854249492387 -6.927648449883954e-16 L -7.727406610312557 2.070552360820169 -9.797958971132724 -1.199903909217478e-15 -7.727406610312556 -2.070552360820171 Z"  />
<path  style="fill:hsl(200,100%,60%); stroke:#000000; stroke-width:.02; " fill-rule="evenodd"   d="M -7.727406610312557 2.070552360820169 L -9.797958971132728 5.65685424949239 -13.384260859804945 3.58630188867222 -11.313708498984779 -1.385529689976792e-15 Z"  />
<path  style="fill:hsl(200,100%,30%); stroke:#000000; stroke-width:.02; " fill-rule="evenodd"   d="M -11.313708498984779 -1.385529689976792e-15 L -15.45481322062512 4.14110472164034 -19.59591794226546 -2.399807818434958e-15 -15.454813220625118 -4.141104721640343 Z"  />
<path  style="fill:hsl(40,100%,30%); stroke:#000000; stroke-width:.02; " fill-rule="evenodd"   d="M -15.45481322062512 4.14110472164034 L -19.595917942265462 11.313708498984784 -26.768521719609904 7.172603777344443 -22.627416997969565 -2.771059379953584e-15 Z"  />
<path  style="fill:hsl(40,100%,60%); stroke:#000000; stroke-width:.02; " fill-rule="evenodd"   d="M -22.627416997969565 -2.771059379953584e-15 L -30.909626441250253 8.282209443280683 -39.19183588453093 -4.799615636869918e-15 -30.90962644125025 -8.28220944328069 Z"  />
<path  style="fill:hsl(200,100%,60%); stroke:#000000; stroke-width:.02; " fill-rule="evenodd"   d="M -30.909626441250253 8.282209443280683 L -39.191835884530946 22.62741699796958 -53.53704343921983 14.34520755468889 -45.25483399593915 -5.54211875990717e-15 Z"  />
<path  style="fill:hsl(200,100%,30%); stroke:#000000; stroke-width:.02; " fill-rule="evenodd"   d="M -45.25483399593915 -5.54211875990717e-15 L -61.819252882500535 16.564418886561374 -78.38367176906189 -9.599231273739839e-15 -61.81925288250053 -16.564418886561388 Z"  />
<path  style="fill:hsl(40,100%,30%); stroke:#000000; stroke-width:.02; " fill-rule="evenodd"   d="M -61.819252882500535 16.564418886561374 L -78.38367176906192 45.25483399593918 -107.07408687843972 28.690415109377795 -90.50966799187835 -1.108423751981435e-14 Z"  />
<path  style="fill:hsl(40,100%,60%); stroke:#000000; stroke-width:.02; " fill-rule="evenodd"   d="M -90.50966799187835 -1.108423751981435e-14 L -123.63850576500113 33.12883777312276 -156.76734353812387 -1.919846254747969e-14 -123.63850576500111 -33.12883777312279 Z"  />
<path  style="fill:hsl(200,100%,60%); stroke:#000000; stroke-width:.02; " fill-rule="evenodd"   d="M -123.63850576500113 33.12883777312276 L -156.76734353812392 90.5096679918784 -214.14817375687952 57.38083021875561 -181.01933598375678 -2.21684750396287e-14 Z"  />
<path  style="fill:hsl(200,100%,60%); stroke:#000000; stroke-width:.02; " fill-rule="evenodd"   d="M -0.707106781186548 0.707106781186548 L -0.707106781186548 1.224744871391589 -1.224744871391589 1.224744871391589 -1.22474487139159 0.707106781186547 Z"  />
<path  style="fill:hsl(200,100%,30%); stroke:#000000; stroke-width:.02; " fill-rule="evenodd"   d="M -1.22474487139159 0.707106781186547 L -1.414213562373096 1.414213562373096 -2.121320343559644 1.224744871391589 -1.931851652578138 0.517638090205041 Z"  />
<path  style="fill:hsl(40,100%,30%); stroke:#000000; stroke-width:.02; " fill-rule="evenodd"   d="M -1.414213562373096 1.414213562373096 L -1.414213562373097 2.449489742783179 -2.44948974278318 2.449489742783179 -2.44948974278318 1.414213562373095 Z"  />
<path  style="fill:hsl(40,100%,60%); stroke:#000000; stroke-width:.02; " fill-rule="evenodd"   d="M -2.44948974278318 1.414213562373095 L -2.828427124746193 2.828427124746192 -4.242640687119289 2.449489742783179 -3.863703305156277 1.035276180410082 Z"  />
<path  style="fill:hsl(200,100%,60%); stroke:#000000; stroke-width:.02; " fill-rule="evenodd"   d="M -2.828427124746193 2.828427124746192 L -2.828427124746196 4.89897948556636 -4.898979485566362 4.89897948556636 -4.898979485566363 2.828427124746192 Z"  />
<path  style="fill:hsl(200,100%,30%); stroke:#000000; stroke-width:.02; " fill-rule="evenodd"   d="M -4.898979485566363 2.828427124746192 L -5.656854249492389 5.656854249492387 -8.485281374238582 4.89897948556636 -7.727406610312558 2.070552360820166 Z"  />
<path  style="fill:hsl(40,100%,30%); stroke:#000000; stroke-width:.02; " fill-rule="evenodd"   d="M -5.656854249492389 5.656854249492387 L -5.656854249492395 9.797958971132726 -9.797958971132728 9.797958971132724 -9.797958971132731 5.656854249492387 Z"  />
<path  style="fill:hsl(40,100%,60%); stroke:#000000; stroke-width:.02; " fill-rule="evenodd"   d="M -9.797958971132731 5.656854249492387 L -11.313708498984782 11.313708498984779 -16.970562748477175 9.797958971132726 -15.454813220625121 4.141104721640333 Z"  />
<path  style="fill:hsl(200,100%,60%); stroke:#000000; stroke-width:.02; " fill-rule="evenodd"   d="M -11.313708498984782 11.313708498984779 L -11.313708498984793 19.59591794226546 -19.595917942265466 19.59591794226546 -19.595917942265466 11.313708498984777 Z"  />
<path  style="fill:hsl(200,100%,30%); stroke:#000000; stroke-width:.02; " fill-rule="evenodd"   d="M -19.595917942265466 11.313708498984777 L -22.627416997969576 22.62741699796957 -33.941125496954356 19.59591794226546 -30.909626441250257 8.282209443280669 Z"  />
<path  style="fill:hsl(40,100%,30%); stroke:#000000; stroke-width:.02; " fill-rule="evenodd"   d="M -22.627416997969576 22.62741699796957 L -22.627416997969597 39.19183588453093 -39.191835884530946 39.19183588453093 -39.19183588453095 22.627416997969565 Z"  />
<path  style="fill:hsl(40,100%,60%); stroke:#000000; stroke-width:.02; " fill-rule="evenodd"   d="M -39.19183588453095 22.627416997969565 L -45.25483399593917 45.25483399593916 -67.88225099390874 39.19183588453093 -61.81925288250054 16.564418886561345 Z"  />
<path  style="fill:hsl(200,100%,60%); stroke:#000000; stroke-width:.02; " fill-rule="evenodd"   d="M -45.25483399593917 45.25483399593916 L -45.254833995939215 78.3836717690619 -78.38367176906193 78.3836717690619 -78.38367176906195 45.25483399593915 Z"  />
<path  style="fill:hsl(200,100%,30%); stroke:#000000; stroke-width:.02; " fill-rule="evenodd"   d="M -78.38367176906195 45.25483399593915 L -90.50966799187839 90.50966799187836 -135.76450198781757 78.3836717690619 -123.63850576500114 33.128837773122704 Z"  />
<path  style="fill:hsl(40,100%,30%); stroke:#000000; stroke-width:.02; " fill-rule="evenodd"   d="M -90.50966799187839 90.50966799187836 L -90.50966799187847 156.76734353812387 -156.76734353812392 156.76734353812387 -156.76734353812395 90.50966799187835 Z"  />
<path  style="fill:hsl(40,100%,30%); stroke:#000000; stroke-width:.02; " fill-rule="evenodd"   d="M -0.258819045102522 0.965925826289068 L -1.515860783817668e-15 1.414213562373095 -0.448287736084028 1.673032607475616 -0.707106781186548 1.224744871391589 Z"  />
<path  style="fill:hsl(40,100%,60%); stroke:#000000; stroke-width:.02; " fill-rule="evenodd"   d="M -0.707106781186548 1.224744871391589 L -0.517638090205043 1.931851652578137 -1.22474487139159 2.121320343559642 -1.414213562373096 1.414213562373095 Z"  />
<path  style="fill:hsl(200,100%,60%); stroke:#000000; stroke-width:.02; " fill-rule="evenodd"   d="M -0.517638090205043 1.931851652578137 L -3.031721567635338e-15 2.828427124746192 -0.896575472168057 3.346065214951233 -1.414213562373097 2.449489742783179 Z"  />
<path  style="fill:hsl(200,100%,30%); stroke:#000000; stroke-width:.02; " fill-rule="evenodd"   d="M -1.414213562373097 2.449489742783179 L -1.035276180410087 3.863703305156276 -2.449489742783182 4.242640687119287 -2.828427124746194 2.828427124746191 Z"  />
<path  style="fill:hsl(40,100%,30%); stroke:#000000; stroke-width:.02; " fill-rule="evenodd"   d="M -1.035276180410087 3.863703305156276 L -6.063443135270679e-15 5.656854249492387 -1.793150944336114 6.692130429902468 -2.828427124746196 4.89897948556636 Z"  />
<path  style="fill:hsl(40,100%,60%); stroke:#000000; stroke-width:.02; " fill-rule="evenodd"   d="M -2.828427124746196 4.89897948556636 L -2.070552360820175 7.727406610312555 -4.898979485566366 8.485281374238578 -5.65685424949239 5.656854249492384 Z"  />
<path  style="fill:hsl(200,100%,60%); stroke:#000000; stroke-width:.02; " fill-rule="evenodd"   d="M -2.070552360820175 7.727406610312555 L -1.212688627054136e-14 11.313708498984779 -3.586301888672229 13.384260859804941 -5.656854249492395 9.797958971132726 Z"  />
<path  style="fill:hsl(200,100%,30%); stroke:#000000; stroke-width:.02; " fill-rule="evenodd"   d="M -5.656854249492395 9.797958971132726 L -4.141104721640351 15.454813220625116 -9.797958971132738 16.970562748477164 -11.313708498984786 11.313708498984774 Z"  />
<path  style="fill:hsl(40,100%,30%); stroke:#000000; stroke-width:.02; " fill-rule="evenodd"   d="M -4.141104721640351 15.454813220625116 L -2.425377254108273e-14 22.627416997969565 -7.172603777344462 26.768521719609897 -11.313708498984793 19.59591794226546 Z"  />
<path  style="fill:hsl(40,100%,60%); stroke:#000000; stroke-width:.02; " fill-rule="evenodd"   d="M -11.313708498984793 19.59591794226546 L -8.282209443280706 30.909626441250246 -19.595917942265483 33.94112549695434 -22.627416997969583 22.627416997969558 Z"  />
<path  style="fill:hsl(200,100%,60%); stroke:#000000; stroke-width:.02; " fill-rule="evenodd"   d="M -8.282209443280706 30.909626441250246 L -4.850754508216549e-14 45.25483399593915 -14.34520755468893 53.537043439219815 -22.627416997969597 39.19183588453093 Z"  />
<path  style="fill:hsl(200,100%,30%); stroke:#000000; stroke-width:.02; " fill-rule="evenodd"   d="M -22.627416997969597 39.19183588453093 L -16.56441888656142 61.81925288250052 -39.19183588453098 67.88225099390871 -45.25483399593919 45.25483399593914 Z"  />
<path  style="fill:hsl(40,100%,30%); stroke:#000000; stroke-width:.02; " fill-rule="evenodd"   d="M -16.56441888656142 61.81925288250052 L -9.701509016433104e-14 90.50966799187835 -28.690415109377877 107.07408687843969 -45.254833995939215 78.3836717690619 Z"  />
<path  style="fill:hsl(40,100%,60%); stroke:#000000; stroke-width:.02; " fill-rule="evenodd"   d="M -45.254833995939215 78.3836717690619 L -33.128837773122854 123.6385057650011 -78.383671769062 135.76450198781748 -90.50966799187842 90.50966799187832 Z"  />
<path  style="fill:hsl(200,100%,60%); stroke:#000000; stroke-width:.02; " fill-rule="evenodd"   d="M -33.128837773122854 123.6385057650011 L -1.940301803286622e-13 181.01933598375678 -57.380830218755776 214.14817375687946 -90.50966799187847 156.76734353812387 Z"  />
<path  style="fill:hsl(200,100%,60%); stroke:#000000; stroke-width:.02; " fill-rule="evenodd"   d="M 0.25881904510252 0.965925826289068 L 0.707106781186547 1.22474487139159 0.448287736084026 1.673032607475616 -2.59786816870648e-16 1.414213562373095 Z"  />
<path  style="fill:hsl(200,100%,30%); stroke:#000000; stroke-width:.02; " fill-rule="evenodd"   d="M -2.59786816870648e-16 1.414213562373095 L 0.517638090205041 1.931851652578138 -4.49963965956554e-16 2.449489742783179 -0.517638090205042 1.931851652578138 Z"  />
<path  style="fill:hsl(40,100%,30%); stroke:#000000; stroke-width:.02; " fill-rule="evenodd"   d="M 0.517638090205041 1.931851652578138 L 1.414213562373094 2.449489742783181 0.896575472168052 3.346065214951234 -5.195736337412963e-16 2.828427124746192 Z"  />
<path  style="fill:hsl(40,100%,60%); stroke:#000000; stroke-width:.02; " fill-rule="evenodd"   d="M -5.195736337412963e-16 2.828427124746192 L 1.035276180410082 3.863703305156277 -8.999279319131084e-16 4.89897948556636 -1.035276180410083 3.863703305156277 Z"  />
<path  style="fill:hsl(200,100%,60%); stroke:#000000; stroke-width:.02; " fill-rule="evenodd"   d="M 1.035276180410082 3.863703305156277 L 2.82842712474619 4.898979485566364 1.793150944336106 6.692130429902471 -1.039147267482593e-15 5.656854249492387 Z"  />
<path  style="fill:hsl(200,100%,30%); stroke:#000000; stroke-width:.02; " fill-rule="evenodd"   d="M -1.039147267482593e-15 5.656854249492387 L 2.070552360820165 7.727406610312558 -1.799855863826218e-15 9.797958971132724 -2.070552360820168 7.727406610312557 Z"  />
<path  style="fill:hsl(40,100%,30%); stroke:#000000; stroke-width:.02; " fill-rule="evenodd"   d="M 2.070552360820165 7.727406610312558 L 5.656854249492382 9.797958971132733 3.586301888672212 13.384260859804947 -2.078294534965187e-15 11.313708498984779 Z"  />
<path  style="fill:hsl(40,100%,60%); stroke:#000000; stroke-width:.02; " fill-rule="evenodd"   d="M -2.078294534965187e-15 11.313708498984779 L 4.141104721640332 15.454813220625121 -3.599711727652437e-15 19.59591794226546 -4.141104721640337 15.45481322062512 Z"  />
<path  style="fill:hsl(200,100%,60%); stroke:#000000; stroke-width:.02; " fill-rule="evenodd"   d="M 4.141104721640332 15.454813220625121 L 11.313708498984768 19.595917942265473 7.172603777344428 26.768521719609907 -4.156589069930376e-15 22.627416997969565 Z"  />
<path  style="fill:hsl(200,100%,30%); stroke:#000000; stroke-width:.02; " fill-rule="evenodd"   d="M -4.156589069930376e-15 22.627416997969565 L 8.282209443280667 30.909626441250257 -7.199423455304877e-15 39.19183588453093 -8.282209443280678 30.909626441250253 Z"  />
<path  style="fill:hsl(40,100%,30%); stroke:#000000; stroke-width:.02; " fill-rule="evenodd"   d="M 8.282209443280667 30.909626441250257 L 22.627416997969547 39.19183588453096 14.345207554688862 53.537043439219836 -8.313178139860755e-15 45.25483399593915 Z"  />
<path  style="fill:hsl(40,100%,60%); stroke:#000000; stroke-width:.02; " fill-rule="evenodd"   d="M -8.313178139860755e-15 45.25483399593915 L 16.56441888656134 61.81925288250054 -1.439884691060976e-14 78.38367176906189 -16.564418886561363 61.819252882500535 Z"  />
<path  style="fill:hsl(200,100%,60%); stroke:#000000; stroke-width:.02; " fill-rule="evenodd"   d="M 16.56441888656134 61.81925288250054 L 45.254833995939116 78.38367176906196 28.69041510937774 107.07408687843973 -1.662635627972152e-14 90.50966799187835 Z"  />
<path  style="fill:hsl(200,100%,30%); stroke:#000000; stroke-width:.02; " fill-rule="evenodd"   d="M -1.662635627972152e-14 90.50966799187835 L 33.1288377731227 123.63850576500114 -2.879769382121953e-14 156.76734353812387 -33.12883777312274 123.63850576500113 Z"  />
<path  style="fill:hsl(40,100%,30%); stroke:#000000; stroke-width:.02; " fill-rule="evenodd"   d="M 33.1288377731227 123.63850576500114 L 90.50966799187827 156.767343538124 57.380830218755506 214.14817375687952 -3.325271255944305e-14 181.01933598375678 Z"  />
<path  style="fill:hsl(40,100%,30%); stroke:#000000; stroke-width:.02; " fill-rule="evenodd"   d="M 0.707106781186547 0.707106781186548 L 1.224744871391588 0.70710678118655 1.224744871391588 1.22474487139159 0.707106781186547 1.22474487139159 Z"  />
<path  style="fill:hsl(40,100%,60%); stroke:#000000; stroke-width:.02; " fill-rule="evenodd"   d="M 0.707106781186547 1.22474487139159 L 1.414213562373094 1.414213562373097 1.224744871391588 2.121320343559644 0.517638090205041 1.931851652578138 Z"  />
<path  style="fill:hsl(200,100%,60%); stroke:#000000; stroke-width:.02; " fill-rule="evenodd"   d="M 1.414213562373094 1.414213562373097 L 2.449489742783178 1.4142135623731 2.449489742783176 2.449489742783182 1.414213562373094 2.449489742783181 Z"  />
<path  style="fill:hsl(200,100%,30%); stroke:#000000; stroke-width:.02; " fill-rule="evenodd"   d="M 1.414213562373094 2.449489742783181 L 2.82842712474619 2.828427124746196 2.449489742783177 4.242640687119291 1.035276180410082 3.863703305156277 Z"  />
<path  style="fill:hsl(40,100%,30%); stroke:#000000; stroke-width:.02; " fill-rule="evenodd"   d="M 2.82842712474619 2.828427124746196 L 4.898979485566358 2.8284271247462 4.898979485566356 4.898979485566366 2.82842712474619 4.898979485566364 Z"  />
<path  style="fill:hsl(40,100%,60%); stroke:#000000; stroke-width:.02; " fill-rule="evenodd"   d="M 2.82842712474619 4.898979485566364 L 5.656854249492382 5.656854249492394 4.898979485566356 8.485281374238584 2.070552360820165 7.727406610312558 Z"  />
<path  style="fill:hsl(200,100%,60%); stroke:#000000; stroke-width:.02; " fill-rule="evenodd"   d="M 5.656854249492382 5.656854249492394 L 9.79795897113272 5.656854249492404 9.797958971132715 9.797958971132736 5.656854249492382 9.797958971132733 Z"  />
<path  style="fill:hsl(200,100%,30%); stroke:#000000; stroke-width:.02; " fill-rule="evenodd"   d="M 5.656854249492382 9.797958971132733 L 11.313708498984768 11.313708498984793 9.797958971132717 16.970562748477178 4.141104721640332 15.454813220625121 Z"  />
<path  style="fill:hsl(40,100%,30%); stroke:#000000; stroke-width:.02; " fill-rule="evenodd"   d="M 11.313708498984768 11.313708498984793 L 19.595917942265448 11.313708498984811 19.59591794226544 19.595917942265483 11.313708498984768 19.595917942265473 Z"  />
<path  style="fill:hsl(40,100%,60%); stroke:#000000; stroke-width:.02; " fill-rule="evenodd"   d="M 11.313708498984768 19.595917942265473 L 22.627416997969547 22.627416997969597 19.59591794226544 33.94112549695437 8.282209443280667 30.909626441250257 Z"  />
<path  style="fill:hsl(200,100%,60%); stroke:#000000; stroke-width:.02; " fill-rule="evenodd"   d="M 22.627416997969547 22.627416997969597 L 39.19183588453091 22.627416997969632 39.191835884530896 39.19183588453098 22.627416997969547 39.19183588453096 Z"  />
<path  style="fill:hsl(200,100%,30%); stroke:#000000; stroke-width:.02; " fill-rule="evenodd"   d="M 22.627416997969547 39.19183588453096 L 45.254833995939116 45.254833995939215 39.191835884530896 67.88225099390876 16.56441888656134 61.81925288250054 Z"  />
<path  style="fill:hsl(40,100%,30%); stroke:#000000; stroke-width:.02; " fill-rule="evenodd"   d="M 45.254833995939116 45.254833995939215 L 78.38367176906186 45.254833995939286 78.38367176906183 78.383671769062 45.254833995939116 78.38367176906196 Z"  />
<path  style="fill:hsl(40,100%,60%); stroke:#000000; stroke-width:.02; " fill-rule="evenodd"   d="M 45.254833995939116 78.38367176906196 L 90.50966799187827 90.50966799187847 78.38367176906183 135.7645019878176 33.1288377731227 123.63850576500114 Z"  />
<path  style="fill:hsl(200,100%,60%); stroke:#000000; stroke-width:.02; " fill-rule="evenodd"   d="M 90.50966799187827 90.50966799187847 L 156.76734353812378 90.50966799187862 156.76734353812373 156.76734353812407 90.50966799187827 156.767343538124 Z"  />
<path  style="fill:hsl(200,100%,60%); stroke:#000000; stroke-width:.02; " fill-rule="evenodd"   d="M 0.965925826289068 0.258819045102522 L 1.414213562373095 1.602456389441218e-15 1.673032607475616 0.448287736084028 1.224744871391589 0.707106781186548 Z"  />
<path  style="fill:hsl(200,100%,30%); stroke:#000000; stroke-width:.02; " fill-rule="evenodd"   d="M 1.224744871391589 0.707106781186548 L 1.931851652578137 0.517638090205043 2.121320343559642 1.22474487139159 1.414213562373095 1.414213562373096 Z"  />
<path  style="fill:hsl(40,100%,30%); stroke:#000000; stroke-width:.02; " fill-rule="evenodd"   d="M 1.931851652578137 0.517638090205043 L 2.828427124746192 3.204912778882437e-15 3.346065214951233 0.896575472168057 2.449489742783179 1.414213562373097 Z"  />
<path  style="fill:hsl(40,100%,60%); stroke:#000000; stroke-width:.02; " fill-rule="evenodd"   d="M 2.449489742783179 1.414213562373097 L 3.863703305156276 1.035276180410087 4.242640687119287 2.449489742783182 2.828427124746192 2.828427124746193 Z"  />
<path  style="fill:hsl(200,100%,60%); stroke:#000000; stroke-width:.02; " fill-rule="evenodd"   d="M 3.863703305156276 1.035276180410087 L 5.656854249492387 6.409825557764877e-15 6.692130429902468 1.793150944336114 4.89897948556636 2.828427124746196 Z"  />
<path  style="fill:hsl(200,100%,30%); stroke:#000000; stroke-width:.02; " fill-rule="evenodd"   d="M 4.89897948556636 2.828427124746196 L 7.727406610312555 2.070552360820175 8.485281374238578 4.898979485566366 5.656854249492386 5.656854249492389 Z"  />
<path  style="fill:hsl(40,100%,30%); stroke:#000000; stroke-width:.02; " fill-rule="evenodd"   d="M 7.727406610312555 2.070552360820175 L 11.313708498984779 1.281965111552976e-14 13.384260859804941 3.58630188867223 9.797958971132726 5.656854249492395 Z"  />
<path  style="fill:hsl(40,100%,60%); stroke:#000000; stroke-width:.02; " fill-rule="evenodd"   d="M 9.797958971132726 5.656854249492395 L 15.454813220625116 4.141104721640352 16.970562748477164 9.797958971132738 11.313708498984777 11.313708498984782 Z"  />
<path  style="fill:hsl(200,100%,60%); stroke:#000000; stroke-width:.02; " fill-rule="evenodd"   d="M 15.454813220625116 4.141104721640352 L 22.627416997969565 2.563930223105953e-14 26.768521719609897 7.172603777344464 19.59591794226546 11.313708498984793 Z"  />
<path  style="fill:hsl(200,100%,30%); stroke:#000000; stroke-width:.02; " fill-rule="evenodd"   d="M 19.59591794226546 11.313708498984793 L 30.909626441250246 8.282209443280708 33.94112549695434 19.595917942265483 22.627416997969565 22.627416997969576 Z"  />
<path  style="fill:hsl(40,100%,30%); stroke:#000000; stroke-width:.02; " fill-rule="evenodd"   d="M 30.909626441250246 8.282209443280708 L 45.25483399593915 5.127860446211908e-14 53.537043439219815 14.345207554688933 39.19183588453093 22.627416997969597 Z"  />
<path  style="fill:hsl(40,100%,60%); stroke:#000000; stroke-width:.02; " fill-rule="evenodd"   d="M 39.19183588453093 22.627416997969597 L 61.81925288250052 16.564418886561423 67.88225099390871 39.19183588453098 45.25483399593915 45.25483399593917 Z"  />
<path  style="fill:hsl(200,100%,60%); stroke:#000000; stroke-width:.02; " fill-rule="evenodd"   d="M 61.81925288250052 16.564418886561423 L 90.50966799187835 1.025572089242382e-13 107.07408687843969 28.69041510937788 78.3836717690619 45.254833995939215 Z"  />
<path  style="fill:hsl(200,100%,30%); stroke:#000000; stroke-width:.02; " fill-rule="evenodd"   d="M 78.3836717690619 45.254833995939215 L 123.6385057650011 33.12883777312286 135.76450198781748 78.383671769062 90.50966799187835 90.50966799187839 Z"  />
<path  style="fill:hsl(40,100%,30%); stroke:#000000; stroke-width:.02; " fill-rule="evenodd"   d="M 123.6385057650011 33.12883777312286 L 181.01933598375678 2.051144178484765e-13 214.14817375687946 57.38083021875578 156.76734353812387 90.50966799187847 Z"  />
<path  style="fill:hsl(40,100%,30%); stroke:#000000; stroke-width:.02; " fill-rule="evenodd"   d="M 0.965925826289068 -0.25881904510252 L 1.22474487139159 -0.707106781186547 1.673032607475616 -0.448287736084026 1.414213562373095 3.463824224941974e-16 Z"  />
<path  style="fill:hsl(40,100%,60%); stroke:#000000; stroke-width:.02; " fill-rule="evenodd"   d="M 1.414213562373095 3.463824224941974e-16 L 1.931851652578138 -0.517638090205041 2.449489742783179 5.999519546087387e-16 1.931851652578138 0.517638090205042 Z"  />
<path  style="fill:hsl(200,100%,60%); stroke:#000000; stroke-width:.02; " fill-rule="evenodd"   d="M 1.931851652578138 -0.517638090205041 L 2.449489742783181 -1.414213562373094 3.346065214951234 -0.896575472168052 2.828427124746192 6.927648449883951e-16 Z"  />
<path  style="fill:hsl(200,100%,30%); stroke:#000000; stroke-width:.02; " fill-rule="evenodd"   d="M 2.828427124746192 6.927648449883951e-16 L 3.863703305156277 -1.035276180410082 4.89897948556636 1.199903909217478e-15 3.863703305156277 1.035276180410084 Z"  />
<path  style="fill:hsl(40,100%,30%); stroke:#000000; stroke-width:.02; " fill-rule="evenodd"   d="M 3.863703305156277 -1.035276180410082 L 4.898979485566364 -2.828427124746189 6.692130429902471 -1.793150944336105 5.656854249492387 1.385529689976791e-15 Z"  />
<path  style="fill:hsl(40,100%,60%); stroke:#000000; stroke-width:.02; " fill-rule="evenodd"   d="M 5.656854249492387 1.385529689976791e-15 L 7.727406610312558 -2.070552360820165 9.797958971132724 2.399807818434957e-15 7.727406610312557 2.070552360820168 Z"  />
<path  style="fill:hsl(200,100%,60%); stroke:#000000; stroke-width:.02; " fill-rule="evenodd"   d="M 7.727406610312558 -2.070552360820165 L 9.797958971132733 -5.656854249492382 13.384260859804947 -3.586301888672212 11.313708498984779 2.771059379953583e-15 Z"  />
<path  style="fill:hsl(200,100%,30%); stroke:#000000; stroke-width:.02; " fill-rule="evenodd"   d="M 11.313708498984779 2.771059379953583e-15 L 15.454813220625121 -4.141104721640331 19.59591794226546 4.799615636869916e-15 15.45481322062512 4.141104721640338 Z"  />
<path  style="fill:hsl(40,100%,30%); stroke:#000000; stroke-width:.02; " fill-rule="evenodd"   d="M 15.454813220625121 -4.141104721640331 L 19.595917942265473 -11.313708498984766 26.768521719609907 -7.172603777344427 22.627416997969565 5.542118759907168e-15 Z"  />
<path  style="fill:hsl(40,100%,60%); stroke:#000000; stroke-width:.02; " fill-rule="evenodd"   d="M 22.627416997969565 5.542118759907168e-15 L 30.909626441250257 -8.282209443280665 39.19183588453093 9.599231273739836e-15 30.909626441250253 8.28220944328068 Z"  />
<path  style="fill:hsl(200,100%,60%); stroke:#000000; stroke-width:.02; " fill-rule="evenodd"   d="M 30.909626441250257 -8.282209443280665 L 39.19183588453096 -22.627416997969544 53.537043439219836 -14.34520755468886 45.25483399593915 1.108423751981434e-14 Z"  />
<path  style="fill:hsl(200,100%,30%); stroke:#000000; stroke-width:.02; " fill-rule="evenodd"   d="M 45.25483399593915 1.108423751981434e-14 L 61.81925288250054 -16.564418886561338 78.38367176906189 1.919846254747968e-14 61.819252882500535 16.564418886561366 Z"  />
<path  style="fill:hsl(40,100%,30%); stroke:#000000; stroke-width:.02; " fill-rule="evenodd"   d="M 61.81925288250054 -16.564418886561338 L 78.38367176906196 -45.25483399593911 107.07408687843973 -28.690415109377735 90.50966799187835 2.216847503962869e-14 Z"  />
<path  style="fill:hsl(40,100%,60%); stroke:#000000; stroke-width:.02; " fill-rule="evenodd"   d="M 90.50966799187835 2.216847503962869e-14 L 123.63850576500114 -33.12883777312269 156.76734353812387 3.839692509495938e-14 123.63850576500113 33.12883777312275 Z"  />
<path  style="fill:hsl(200,100%,60%); stroke:#000000; stroke-width:.02; " fill-rule="evenodd"   d="M 123.63850576500114 -33.12883777312269 L 156.767343538124 -90.50966799187826 214.14817375687952 -57.38083021875549 181.01933598375678 4.433695007925741e-14 Z"  />
<text x="0.9659258262890684" y="-0.9659258262890684"  style="font:0.3px sans-serif; ">(1,1)</text>
<text x="1.6730326074756166" y="-0.9659258262890684"  style="font:0.3px sans-serif; ">(2,1)</text>
<text x="1.9318516525781377" y="-1.9318516525781377"  style="font:0.3px sans-serif; ">(3,1)</text>
<text x="3.3460652149512344" y="-1.931851652578138"  style="font:0.3px sans-serif; ">(4,1)</text>
<text x="3.8637033051562772" y="-3.8637033051562772"  style="font:0.3px sans-serif; ">(5,1)</text>
<text x="6.6921304299024715" y="-3.8637033051562772"  style="font:0.3px sans-serif; ">(6,1)</text>
<text x="7.727406610312556" y="-7.727406610312556"  style="font:0.3px sans-serif; ">(7,1)</text>
<text x="13.38426085980495" y="-7.727406610312558"  style="font:0.3px sans-serif; ">(8,1)</text>
<text x="15.454813220625123" y="-15.45481322062512"  style="font:0.3px sans-serif; ">(9,1)</text>
<text x="26.768521719609904" y="-15.454813220625125"  style="font:0.3px sans-serif; ">(10,1)</text>
<text x="30.909626441250253" y="-30.909626441250253"  style="font:0.3px sans-serif; ">(11,1)</text>
<text x="53.53704343921984" y="-30.90962644125026"  style="font:0.3px sans-serif; ">(12,1)</text>
<text x="61.81925288250055" y="-61.819252882500535"  style="font:0.3px sans-serif; ">(13,1)</text>
<text x="107.07408687843973" y="-61.81925288250056"  style="font:0.3px sans-serif; ">(14,1)</text>
<text x="123.63850576500113" y="-123.63850576500113"  style="font:0.3px sans-serif; ">(15,1)</text>
<text x="0.353553390593274" y="-1.319479216882342"  style="font:0.3px sans-serif; ">(1,2)</text>
<text x="0.9659258262890686" y="-1.673032607475616"  style="font:0.3px sans-serif; ">(2,2)</text>
<text x="0.7071067811865482" y="-2.638958433764685"  style="font:0.3px sans-serif; ">(3,2)</text>
<text x="1.9318516525781386" y="-3.3460652149512344"  style="font:0.3px sans-serif; ">(4,2)</text>
<text x="1.4142135623730976" y="-5.277916867529373"  style="font:0.3px sans-serif; ">(5,2)</text>
<text x="3.863703305156278" y="-6.692130429902471"  style="font:0.3px sans-serif; ">(6,2)</text>
<text x="2.8284271247461965" y="-10.555833735058751"  style="font:0.3px sans-serif; ">(7,2)</text>
<text x="7.72740661031256" y="-13.384260859804947"  style="font:0.3px sans-serif; ">(8,2)</text>
<text x="5.656854249492396" y="-21.111667470117514"  style="font:0.3px sans-serif; ">(9,2)</text>
<text x="15.45481322062513" y="-26.76852171960991"  style="font:0.3px sans-serif; ">(10,2)</text>
<text x="11.313708498984791" y="-42.223334940235034"  style="font:0.3px sans-serif; ">(11,2)</text>
<text x="30.909626441250268" y="-53.53704343921984"  style="font:0.3px sans-serif; ">(12,2)</text>
<text x="22.627416997969597" y="-84.44666988047011"  style="font:0.3px sans-serif; ">(13,2)</text>
<text x="61.81925288250058" y="-107.07408687843973"  style="font:0.3px sans-serif; ">(14,2)</text>
<text x="45.254833995939215" y="-168.8933397609403"  style="font:0.3px sans-serif; ">(15,2)</text>
<text x="-0.3535533905932737" y="-1.319479216882342"  style="font:0.3px sans-serif; ">(1,3)</text>
<text x="1.0358521839084689e-16" y="-1.9318516525781373"  style="font:0.3px sans-serif; ">(2,3)</text>
<text x="-0.7071067811865477" y="-2.6389584337646856"  style="font:0.3px sans-serif; ">(3,3)</text>
<text x="2.0717043678169352e-16" y="-3.8637033051562764"  style="font:0.3px sans-serif; ">(4,3)</text>
<text x="-1.4142135623730956" y="-5.277916867529374"  style="font:0.3px sans-serif; ">(5,3)</text>
<text x="4.833976858239513e-16" y="-7.727406610312556"  style="font:0.3px sans-serif; ">(6,3)</text>
<text x="-2.828427124746192" y="-10.555833735058751"  style="font:0.3px sans-serif; ">(7,3)</text>
<text x="8.286817471267727e-16" y="-15.45481322062512"  style="font:0.3px sans-serif; ">(8,3)</text>
<text x="-5.656854249492389" y="-21.111667470117514"  style="font:0.3px sans-serif; ">(9,3)</text>
<text x="1.657363494253544e-15" y="-30.909626441250246"  style="font:0.3px sans-serif; ">(10,3)</text>
<text x="-11.313708498984782" y="-42.22333494023504"  style="font:0.3px sans-serif; ">(11,3)</text>
<text x="3.867181486591601e-15" y="-61.81925288250052"  style="font:0.3px sans-serif; ">(12,3)</text>
<text x="-22.627416997969572" y="-84.44666988047013"  style="font:0.3px sans-serif; ">(13,3)</text>
<text x="7.734362973183193e-15" y="-123.6385057650011"  style="font:0.3px sans-serif; ">(14,3)</text>
<text x="-45.25483399593916" y="-168.89333976094034"  style="font:0.3px sans-serif; ">(15,3)</text>
<text x="-0.9659258262890683" y="-0.9659258262890683"  style="font:0.3px sans-serif; ">(1,4)</text>
<text x="-0.9659258262890684" y="-1.6730326074756166"  style="font:0.3px sans-serif; ">(2,4)</text>
<text x="-1.9318516525781375" y="-1.9318516525781375"  style="font:0.3px sans-serif; ">(3,4)</text>
<text x="-1.931851652578138" y="-3.3460652149512344"  style="font:0.3px sans-serif; ">(4,4)</text>
<text x="-3.863703305156277" y="-3.8637033051562772"  style="font:0.3px sans-serif; ">(5,4)</text>
<text x="-3.8637033051562772" y="-6.692130429902472"  style="font:0.3px sans-serif; ">(6,4)</text>
<text x="-7.727406610312557" y="-7.727406610312557"  style="font:0.3px sans-serif; ">(7,4)</text>
<text x="-7.727406610312557" y="-13.384260859804948"  style="font:0.3px sans-serif; ">(8,4)</text>
<text x="-15.454813220625121" y="-15.454813220625125"  style="font:0.3px sans-serif; ">(9,4)</text>
<text x="-15.454813220625125" y="-26.768521719609904"  style="font:0.3px sans-serif; ">(10,4)</text>
<text x="-30.90962644125025" y="-30.909626441250257"  style="font:0.3px sans-serif; ">(11,4)</text>
<text x="-30.909626441250257" y="-53.53704343921983"  style="font:0.3px sans-serif; ">(12,4)</text>
<text x="-61.81925288250054" y="-61.81925288250056"  style="font:0.3px sans-serif; ">(13,4)</text>
<text x="-61.81925288250054" y="-107.07408687843974"  style="font:0.3px sans-serif; ">(14,4)</text>
<text x="-123.63850576500116" y="-123.63850576500114"  style="font:0.3px sans-serif; ">(15,4)</text>
<text x="-1.3194792168823424" y="-0.3535533905932741"  style="font:0.3px sans-serif; ">(1,5)</text>
<text x="-1.673032607475616" y="-0.9659258262890693"  style="font:0.3px sans-serif; ">(2,5)</text>
<text x="-2.638958433764685" y="-0.7071067811865485"  style="font:0.3px sans-serif; ">(3,5)</text>
<text x="-3.346065214951233" y="-1.9318516525781395"  style="font:0.3px sans-serif; ">(4,5)</text>
<text x="-5.277916867529374" y="-1.4142135623730978"  style="font:0.3px sans-serif; ">(5,5)</text>
<text x="-6.69213042990247" y="-3.863703305156281"  style="font:0.3px sans-serif; ">(6,5)</text>
<text x="-10.555833735058751" y="-2.828427124746197"  style="font:0.3px sans-serif; ">(7,5)</text>
<text x="-13.384260859804945" y="-7.727406610312563"  style="font:0.3px sans-serif; ">(8,5)</text>
<text x="-21.111667470117506" y="-5.656854249492397"  style="font:0.3px sans-serif; ">(9,5)</text>
<text x="-26.768521719609907" y="-15.454813220625137"  style="font:0.3px sans-serif; ">(10,5)</text>
<text x="-42.223334940235034" y="-11.313708498984797"  style="font:0.3px sans-serif; ">(11,5)</text>
<text x="-53.53704343921982" y="-30.909626441250275"  style="font:0.3px sans-serif; ">(12,5)</text>
<text x="-84.44666988047011" y="-22.627416997969608"  style="font:0.3px sans-serif; ">(13,5)</text>
<text x="-107.07408687843972" y="-61.81925288250061"  style="font:0.3px sans-serif; ">(14,5)</text>
<text x="-168.8933397609403" y="-45.25483399593923"  style="font:0.3px sans-serif; ">(15,5)</text>
<text x="-1.319479216882342" y="0.35355339059327373"  style="font:0.3px sans-serif; ">(1,6)</text>
<text x="-1.9318516525781375" y="-2.0717043678169355e-16"  style="font:0.3px sans-serif; ">(2,6)</text>
<text x="-2.638958433764685" y="0.7071067811865479"  style="font:0.3px sans-serif; ">(3,6)</text>
<text x="-3.863703305156277" y="-4.143408735633867e-16"  style="font:0.3px sans-serif; ">(4,6)</text>
<text x="-5.277916867529374" y="1.4142135623730967"  style="font:0.3px sans-serif; ">(5,6)</text>
<text x="-7.727406610312556" y="-8.286817471267728e-16"  style="font:0.3px sans-serif; ">(6,6)</text>
<text x="-10.555833735058753" y="2.8284271247461943"  style="font:0.3px sans-serif; ">(7,6)</text>
<text x="-15.454813220625121" y="-1.657363494253544e-15"  style="font:0.3px sans-serif; ">(8,6)</text>
<text x="-21.11166747011751" y="5.65685424949239"  style="font:0.3px sans-serif; ">(9,6)</text>
<text x="-30.90962644125025" y="-3.3147269885070853e-15"  style="font:0.3px sans-serif; ">(10,6)</text>
<text x="-42.223334940235034" y="11.313708498984786"  style="font:0.3px sans-serif; ">(11,6)</text>
<text x="-61.819252882500535" y="-6.629453977014167e-15"  style="font:0.3px sans-serif; ">(12,6)</text>
<text x="-84.44666988047014" y="22.627416997969583"  style="font:0.3px sans-serif; ">(13,6)</text>
<text x="-123.63850576500111" y="-1.325890795402832e-14"  style="font:0.3px sans-serif; ">(14,6)</text>
<text x="-168.8933397609403" y="45.254833995939194"  style="font:0.3px sans-serif; ">(15,6)</text>
<text x="-0.9659258262890684" y="0.965925826289068"  style="font:0.3px sans-serif; ">(1,7)</text>
<text x="-1.673032607475617" y="0.9659258262890681"  style="font:0.3px sans-serif; ">(2,7)</text>
<text x="-1.9318516525781382" y="1.9318516525781373"  style="font:0.3px sans-serif; ">(3,7)</text>
<text x="-3.3460652149512353" y="1.931851652578137"  style="font:0.3px sans-serif; ">(4,7)</text>
<text x="-3.863703305156279" y="3.8637033051562764"  style="font:0.3px sans-serif; ">(5,7)</text>
<text x="-6.6921304299024715" y="3.863703305156276"  style="font:0.3px sans-serif; ">(6,7)</text>
<text x="-7.727406610312558" y="7.727406610312555"  style="font:0.3px sans-serif; ">(7,7)</text>
<text x="-13.384260859804952" y="7.727406610312557"  style="font:0.3px sans-serif; ">(8,7)</text>
<text x="-15.454813220625123" y="15.454813220625118"  style="font:0.3px sans-serif; ">(9,7)</text>
<text x="-26.768521719609915" y="15.454813220625118"  style="font:0.3px sans-serif; ">(10,7)</text>
<text x="-30.909626441250275" y="30.909626441250246"  style="font:0.3px sans-serif; ">(11,7)</text>
<text x="-53.53704343921985" y="30.90962644125025"  style="font:0.3px sans-serif; ">(12,7)</text>
<text x="-61.819252882500564" y="61.81925288250053"  style="font:0.3px sans-serif; ">(13,7)</text>
<text x="-107.07408687843977" y="61.81925288250053"  style="font:0.3px sans-serif; ">(14,7)</text>
<text x="-123.63850576500121" y="123.6385057650011"  style="font:0.3px sans-serif; ">(15,7)</text>
<text x="-0.3535533905932749" y="1.319479216882342"  style="font:0.3px sans-serif; ">(1,8)</text>
<text x="-0.9659258262890695" y="1.6730326074756157"  style="font:0.3px sans-serif; ">(2,8)</text>
<text x="-0.70710678118655" y="2.6389584337646848"  style="font:0.3px sans-serif; ">(3,8)</text>
<text x="-1.93185165257814" y="3.346065214951233"  style="font:0.3px sans-serif; ">(4,8)</text>
<text x="-1.4142135623731007" y="5.277916867529372"  style="font:0.3px sans-serif; ">(5,8)</text>
<text x="-3.8637033051562817" y="6.692130429902469"  style="font:0.3px sans-serif; ">(6,8)</text>
<text x="-2.828427124746202" y="10.555833735058748"  style="font:0.3px sans-serif; ">(7,8)</text>
<text x="-7.727406610312569" y="13.384260859804945"  style="font:0.3px sans-serif; ">(8,8)</text>
<text x="-5.656854249492407" y="21.111667470117514"  style="font:0.3px sans-serif; ">(9,8)</text>
<text x="-15.454813220625141" y="26.7685217196099"  style="font:0.3px sans-serif; ">(10,8)</text>
<text x="-11.313708498984822" y="42.22333494023504"  style="font:0.3px sans-serif; ">(11,8)</text>
<text x="-30.909626441250303" y="53.53704343921983"  style="font:0.3px sans-serif; ">(12,8)</text>
<text x="-22.62741699796965" y="84.44666988047011"  style="font:0.3px sans-serif; ">(13,8)</text>
<text x="-61.81925288250062" y="107.07408687843969"  style="font:0.3px sans-serif; ">(14,8)</text>
<text x="-45.25483399593933" y="168.89333976094028"  style="font:0.3px sans-serif; ">(15,8)</text>
<text x="0.3535533905932732" y="1.3194792168823422"  style="font:0.3px sans-serif; ">(1,9)</text>
<text x="-3.2801985823768205e-16" y="1.9318516525781373"  style="font:0.3px sans-serif; ">(2,9)</text>
<text x="0.7071067811865468" y="2.638958433764687"  style="font:0.3px sans-serif; ">(3,9)</text>
<text x="-7.250965287359279e-16" y="3.8637033051562764"  style="font:0.3px sans-serif; ">(4,9)</text>
<text x="1.414213562373094" y="5.277916867529375"  style="font:0.3px sans-serif; ">(5,9)</text>
<text x="-1.3811362452112904e-15" y="7.727406610312556"  style="font:0.3px sans-serif; ">(6,9)</text>
<text x="2.828427124746189" y="10.555833735058751"  style="font:0.3px sans-serif; ">(7,9)</text>
<text x="-2.624158865901449e-15" y="15.45481322062512"  style="font:0.3px sans-serif; ">(8,9)</text>
<text x="5.656854249492381" y="21.111667470117517"  style="font:0.3px sans-serif; ">(9,9)</text>
<text x="-5.248317731802893e-15" y="30.909626441250246"  style="font:0.3px sans-serif; ">(10,9)</text>
<text x="11.313708498984768" y="42.22333494023505"  style="font:0.3px sans-serif; ">(11,9)</text>
<text x="-1.1049089961690296e-14" y="61.81925288250052"  style="font:0.3px sans-serif; ">(12,9)</text>
<text x="22.627416997969544" y="84.44666988047015"  style="font:0.3px sans-serif; ">(13,9)</text>
<text x="-2.0993270927211538e-14" y="123.6385057650011"  style="font:0.3px sans-serif; ">(14,9)</text>
<text x="45.254833995939116" y="168.89333976094036"  style="font:0.3px sans-serif; ">(15,9)</text>
<text x="0.9659258262890674" y="0.9659258262890692"  style="font:0.3px sans-serif; ">(1,10)</text>
<text x="0.9659258262890674" y="1.6730326074756172"  style="font:0.3px sans-serif; ">(2,10)</text>
<text x="1.9318516525781353" y="1.9318516525781397"  style="font:0.3px sans-serif; ">(3,10)</text>
<text x="1.9318516525781353" y="3.3460652149512358"  style="font:0.3px sans-serif; ">(4,10)</text>
<text x="3.8637033051562732" y="3.8637033051562804"  style="font:0.3px sans-serif; ">(5,10)</text>
<text x="3.8637033051562724" y="6.692130429902474"  style="font:0.3px sans-serif; ">(6,10)</text>
<text x="7.72740661031255" y="7.727406610312566"  style="font:0.3px sans-serif; ">(7,10)</text>
<text x="7.72740661031255" y="13.384260859804959"  style="font:0.3px sans-serif; ">(8,10)</text>
<text x="15.454813220625104" y="15.45481322062514"  style="font:0.3px sans-serif; ">(9,10)</text>
<text x="15.454813220625107" y="26.768521719609918"  style="font:0.3px sans-serif; ">(10,10)</text>
<text x="30.90962644125022" y="30.909626441250293"  style="font:0.3px sans-serif; ">(11,10)</text>
<text x="30.909626441250214" y="53.53704343921985"  style="font:0.3px sans-serif; ">(12,10)</text>
<text x="61.819252882500486" y="61.819252882500614"  style="font:0.3px sans-serif; ">(13,10)</text>
<text x="61.81925288250047" y="107.07408687843977"  style="font:0.3px sans-serif; ">(14,10)</text>
<text x="123.638505765001" y="123.63850576500126"  style="font:0.3px sans-serif; ">(15,10)</text>
<text x="1.319479216882342" y="0.35355339059327495"  style="font:0.3px sans-serif; ">(1,11)</text>
<text x="1.6730326074756159" y="0.9659258262890694"  style="font:0.3px sans-serif; ">(2,11)</text>
<text x="2.638958433764685" y="0.7071067811865501"  style="font:0.3px sans-serif; ">(3,11)</text>
<text x="3.346065214951233" y="1.93185165257814"  style="font:0.3px sans-serif; ">(4,11)</text>
<text x="5.277916867529372" y="1.414213562373101"  style="font:0.3px sans-serif; ">(5,11)</text>
<text x="6.692130429902471" y="3.8637033051562817"  style="font:0.3px sans-serif; ">(6,11)</text>
<text x="10.55583373505875" y="2.828427124746203"  style="font:0.3px sans-serif; ">(7,11)</text>
<text x="13.384260859804943" y="7.727406610312567"  style="font:0.3px sans-serif; ">(8,11)</text>
<text x="21.111667470117506" y="5.656854249492409"  style="font:0.3px sans-serif; ">(9,11)</text>
<text x="26.768521719609904" y="15.454813220625143"  style="font:0.3px sans-serif; ">(10,11)</text>
<text x="42.22333494023504" y="11.313708498984823"  style="font:0.3px sans-serif; ">(11,11)</text>
<text x="53.537043439219836" y="30.909626441250293"  style="font:0.3px sans-serif; ">(12,11)</text>
<text x="84.44666988047011" y="22.62741699796966"  style="font:0.3px sans-serif; ">(13,11)</text>
<text x="107.07408687843972" y="61.81925288250061"  style="font:0.3px sans-serif; ">(14,11)</text>
<text x="168.89333976094028" y="45.254833995939336"  style="font:0.3px sans-serif; ">(15,11)</text>
<text x="1.3194792168823422" y="-0.3535533905932732"  style="font:0.3px sans-serif; ">(1,12)</text>
<text x="1.9318516525781373" y="4.488692796936702e-16"  style="font:0.3px sans-serif; ">(2,12)</text>
<text x="2.638958433764686" y="-0.7071067811865464"  style="font:0.3px sans-serif; ">(3,12)</text>
<text x="3.8637033051562764" y="9.66795371647904e-16"  style="font:0.3px sans-serif; ">(4,12)</text>
<text x="5.277916867529374" y="-1.4142135623730934"  style="font:0.3px sans-serif; ">(5,12)</text>
<text x="7.727406610312556" y="1.864533931035242e-15"  style="font:0.3px sans-serif; ">(6,12)</text>
<text x="10.555833735058755" y="-2.8284271247461894"  style="font:0.3px sans-serif; ">(7,12)</text>
<text x="15.45481322062512" y="3.590954237549351e-15"  style="font:0.3px sans-serif; ">(8,12)</text>
<text x="21.111667470117517" y="-5.65685424949238"  style="font:0.3px sans-serif; ">(9,12)</text>
<text x="30.909626441250246" y="7.458135724140953e-15"  style="font:0.3px sans-serif; ">(10,12)</text>
<text x="42.22333494023505" y="-11.313708498984766"  style="font:0.3px sans-serif; ">(11,12)</text>
<text x="61.81925288250052" y="1.49162714482819e-14"  style="font:0.3px sans-serif; ">(12,12)</text>
<text x="84.44666988047014" y="-22.62741699796954"  style="font:0.3px sans-serif; ">(13,12)</text>
<text x="123.6385057650011" y="2.983254289656377e-14"  style="font:0.3px sans-serif; ">(14,12)</text>
<text x="168.89333976094034" y="-45.254833995939094"  style="font:0.3px sans-serif; ">(15,12)</text>
</svg>
