<svg xmlns="http://www.w3.org/2000/svg" viewBox="1 1 9 9"  style="background-color:#0000ff; fill:#000000; " > 
<polygon  points="1.1,1 1,0.9 0.9,1 1,1.1 " />
<polygon  points="1.1,2 1,1.9 0.9,2 1,2.1 " />
<polygon  points="1.1,3 1,2.9 0.9,3 1,3.1 " />
<polygon  points="1.1,4 1,3.9 0.9,4 1,4.1 " />
<polygon  points="1.1,5 1,4.9 0.9,5 1,5.1 " />
<polygon  points="1.1,6 1,5.9 0.9,6 1,6.1 " />
<polygon  points="1.1,7 1,6.9 0.9,7 1,7.1 " />
<polygon  points="1.1,8 1,7.9 0.9,8 1,8.1 " />
<polygon  points="1.1,9 1,8.9 0.9,9 1,9.1 " />
<polygon  points="1.1,10 1,9.9 0.9,10 1,10.1 " />
<polygon  points="2.2,1 2,0.8 1.8,1 2,1.2 " />
<polygon  points="2.2,2 2,1.8 1.8,2 2,2.2 " />
<polygon  points="2.2,3 2,2.8 1.8,3 2,3.2 " />
<polygon  points="2.2,4 2,3.8 1.8,4 2,4.2 " />
<polygon  points="2.2,5 2,4.8 1.8,5 2,5.2 " />
<polygon  points="2.2,6 2,5.8 1.8,6 2,6.2 " />
<polygon  points="2.2,7 2,6.8 1.8,7 2,7.2 " />
<polygon  points="2.2,8 2,7.8 1.8,8 2,8.2 " />
<polygon  points="2.2,9 2,8.8 1.8,9 2,9.2 " />
<polygon  points="2.2,10 2,9.8 1.8,10 2,10.2 " />
<polygon  points="3.3,1 3,0.7 2.7,1 3,1.3 " />
<polygon  points="3.3,2 3,1.7 2.7,2 3,2.3 " />
<polygon  points="3.3,3 3,2.7 2.7,3 3,3.3 " />
<polygon  points="3.3,4 3,3.7 2.7,4 3,4.3 " />
<polygon  points="3.3,5 3,4.7 2.7,5 3,5.3 " />
<polygon  points="3.3,6 3,5.7 2.7,6 3,6.3 " />
<polygon  points="3.3,7 3,6.7 2.7,7 3,7.3 " />
<polygon  points="3.3,8 3,7.7 2.7,8 3,8.3 " />
<polygon  points="3.3,9 3,8.7 2.7,9 3,9.3 " />
<polygon  points="3.3,10 3,9.7 2.7,10 3,10.3 " />
<polygon  points="4.4,1 4,0.6 3.6,1 4,1.4 " />
<polygon  points="4.4,2 4,1.6 3.6,2 4,2.4 " />
<polygon  points="4.4,3 4,2.6 3.6,3 4,3.4 " />
<polygon  points="4.4,4 4,3.6 3.6,4 4,4.4 " />
<polygon  points="4.4,5 4,4.6 3.6,5 4,5.4 " />
<polygon  points="4.4,6 4,5.6 3.6,6 4,6.4 " />
<polygon  points="4.4,7 4,6.6 3.6,7 4,7.4 " />
<polygon  points="4.4,8 4,7.6 3.6,8 4,8.4 " />
<polygon  points="4.4,9 4,8.6 3.6,9 4,9.4 " />
<polygon  points="4.4,10 4,9.6 3.6,10 4,10.4 " />
<polygon  points="5.5,1 5,0.5 4.5,1 5,1.5 " />
<polygon  points="5.5,2 5,1.5 4.5,2 5,2.5 " />
<polygon  points="5.5,3 5,2.5 4.5,3 5,3.5 " />
<polygon  points="5.5,4 5,3.5 4.5,4 5,4.5 " />
<polygon  points="5.5,5 5,4.5 4.5,5 5,5.5 " />
<polygon  points="5.5,6 5,5.5 4.5,6 5,6.5 " />
<polygon  points="5.5,7 5,6.5 4.5,7 5,7.5 " />
<polygon  points="5.5,8 5,7.5 4.5,8 5,8.5 " />
<polygon  points="5.5,9 5,8.5 4.5,9 5,9.5 " />
<polygon  points="5.5,10 5,9.5 4.5,10 5,10.5 " />
<polygon  points="6.6,1 6,0.4 5.4,1 6,1.6 " />
<polygon  points="6.6,2 6,1.4 5.4,2 6,2.6 " />
<polygon  points="6.6,3 6,2.4 5.4,3 6,3.6 " />
<polygon  points="6.6,4 6,3.4 5.4,4 6,4.6 " />
<polygon  points="6.6,5 6,4.4 5.4,5 6,5.6 " />
<polygon  points="6.6,6 6,5.4 5.4,6 6,6.6 " />
<polygon  points="6.6,7 6,6.4 5.4,7 6,7.6 " />
<polygon  points="6.6,8 6,7.4 5.4,8 6,8.6 " />
<polygon  points="6.6,9 6,8.4 5.4,9 6,9.6 " />
<polygon  points="6.6,10 6,9.4 5.4,10 6,10.6 " />
<polygon  points="7.7,1 7,0.3 6.3,1 7,1.7 " />
<polygon  points="7.7,2 7,1.3 6.3,2 7,2.7 " />
<polygon  points="7.7,3 7,2.3 6.3,3 7,3.7 " />
<polygon  points="7.7,4 7,3.3 6.3,4 7,4.7 " />
<polygon  points="7.7,5 7,4.3 6.3,5 7,5.7 " />
<polygon  points="7.7,6 7,5.3 6.3,6 7,6.7 " />
<polygon  points="7.7,7 7,6.3 6.3,7 7,7.7 " />
<polygon  points="7.7,8 7,7.3 6.3,8 7,8.7 " />
<polygon  points="7.7,9 7,8.3 6.3,9 7,9.7 " />
<polygon  points="7.7,10 7,9.3 6.3,10 7,10.7 " />
<polygon  points="8.8,1 8,0.2 7.2,1 8,1.8 " />
<polygon  points="8.8,2 8,1.2 7.2,2 8,2.8 " />
<polygon  points="8.8,3 8,2.2 7.2,3 8,3.8 " />
<polygon  points="8.8,4 8,3.2 7.2,4 8,4.8 " />
<polygon  points="8.8,5 8,4.2 7.2,5 8,5.8 " />
<polygon  points="8.8,6 8,5.2 7.2,6 8,6.8 " />
<polygon  points="8.8,7 8,6.2 7.2,7 8,7.8 " />
<polygon  points="8.8,8 8,7.2 7.2,8 8,8.8 " />
<polygon  points="8.8,9 8,8.2 7.2,9 8,9.8 " />
<polygon  points="8.8,10 8,9.2 7.2,10 8,10.8 " />
<polygon  points="9.9,1 9,0.1 8.1,1 9,1.9 " />
<polygon  points="9.9,2 9,1.1 8.1,2 9,2.9 " />
<polygon  points="9.9,3 9,2.1 8.1,3 9,3.9 " />
<polygon  points="9.9,4 9,3.1 8.1,4 9,4.9 " />
<polygon  points="9.9,5 9,4.1 8.1,5 9,5.9 " />
<polygon  points="9.9,6 9,5.1 8.1,6 9,6.9 " />
<polygon  points="9.9,7 9,6.1 8.1,7 9,7.9 " />
<polygon  points="9.9,8 9,7.1 8.1,8 9,8.9 " />
<polygon  points="9.9,9 9,8.1 8.1,9 9,9.9 " />
<polygon  points="9.9,10 9,9.1 8.1,10 9,10.9 " />
<polygon  points="11,1 10,0 9,1 10,2 " />
<polygon  points="11,2 10,1 9,2 10,3 " />
<polygon  points="11,3 10,2 9,3 10,4 " />
<polygon  points="11,4 10,3 9,4 10,5 " />
<polygon  points="11,5 10,4 9,5 10,6 " />
<polygon  points="11,6 10,5 9,6 10,7 " />
<polygon  points="11,7 10,6 9,7 10,8 " />
<polygon  points="11,8 10,7 9,8 10,9 " />
<polygon  points="11,9 10,8 9,9 10,10 " />
<polygon  points="11,10 10,9 9,10 10,11 " />
</svg>
