<svg xmlns="http://www.w3.org/2000/svg" viewBox="43 -161 122 122.00000000000001"  style="background-color:#000000; " > 
<path  style="fill:hsl(260,100%,0%); " fill-rule="evenodd"   d="M 164 -160 L 44 -160 44 -39.999999999999986 164 -39.999999999999986 Z"  />
<path  style="fill:hsl(259,100%,74.5%); " fill-rule="evenodd"   d="M 162.91259040293522 -158.16835323672896 L 44.91259040293522 -158.16835323672896 44.91259040293522 -40.16835323672896 162.91259040293522 -40.16835323672896 Z"  />
<path  style="fill:hsl(258,100%,0%); " fill-rule="evenodd"   d="M 161.6541818305704 -156.3730534276968 L 45.65418183057041 -156.3730534276968 45.65418183057041 -40.3730534276968 161.6541818305704 -40.3730534276968 Z"  />
<path  style="fill:hsl(257,100%,73.5%); " fill-rule="evenodd"   d="M 160.23606797749977 -154.6488589908301 L 46.236067977499786 -154.6488589908301 46.236067977499786 -40.64885899083011 160.23606797749977 -40.64885899083011 Z"  />
<path  style="fill:hsl(256,100%,0%); " fill-rule="evenodd"   d="M 158.67652242543545 -153.02742069809042 L 46.67652242543544 -153.02742069809042 46.67652242543544 -41.027420698090424 158.67652242543545 -41.027420698090424 Z"  />
<path  style="fill:hsl(255,100%,72.5%); " fill-rule="evenodd"   d="M 157 -151.53589838486226 L 47 -151.53589838486226 47 -41.53589838486225 157 -41.53589838486225 Z"  />
<path  style="fill:hsl(254,100%,0%); " fill-rule="evenodd"   d="M 155.23606797749977 -150.19577393481939 L 47.236067977499786 -150.19577393481939 47.236067977499786 -42.195773934819385 155.23606797749977 -42.195773934819385 Z"  />
<path  style="fill:hsl(253,100%,71.5%); " fill-rule="evenodd"   d="M 153.41811385307062 -149.0219124185269 L 47.41811385307061 -149.0219124185269 47.41811385307061 -43.02191241852691 153.41811385307062 -43.02191241852691 Z"  />
<path  style="fill:hsl(252,100%,0%); " fill-rule="evenodd"   d="M 151.58188614692938 -148.0219124185269 L 47.58188614692939 -148.0219124185269 47.58188614692939 -44.02191241852691 151.58188614692938 -44.02191241852691 Z"  />
<path  style="fill:hsl(251,100%,70.5%); " fill-rule="evenodd"   d="M 149.76393202250023 -147.19577393481939 L 47.763932022500214 -147.19577393481939 47.763932022500214 -45.195773934819385 149.76393202250023 -45.195773934819385 Z"  />
<path  style="fill:hsl(250,100%,0%); " fill-rule="evenodd"   d="M 148 -146.53589838486226 L 48 -146.53589838486226 48 -46.53589838486225 148 -46.53589838486225 Z"  />
<path  style="fill:hsl(249,100%,69.5%); " fill-rule="evenodd"   d="M 146.32347757456455 -146.02742069809042 L 48.32347757456456 -146.02742069809042 48.32347757456456 -48.027420698090424 146.32347757456455 -48.027420698090424 Z"  />
<path  style="fill:hsl(248,100%,0%); " fill-rule="evenodd"   d="M 144.76393202250023 -145.6488589908301 L 48.763932022500214 -145.6488589908301 48.763932022500214 -49.64885899083011 144.76393202250023 -49.64885899083011 Z"  />
<path  style="fill:hsl(247,100%,68.5%); " fill-rule="evenodd"   d="M 143.3458181694296 -145.3730534276968 L 49.34581816942959 -145.3730534276968 49.34581816942959 -51.3730534276968 143.3458181694296 -51.3730534276968 Z"  />
<path  style="fill:hsl(246,100%,0%); " fill-rule="evenodd"   d="M 142.08740959706478 -145.16835323672896 L 50.08740959706478 -145.16835323672896 50.08740959706478 -53.16835323672896 142.08740959706478 -53.16835323672896 Z"  />
<path  style="fill:hsl(245,100%,67.5%); " fill-rule="evenodd"   d="M 141 -145 L 51 -145 51 -55 141 -55 Z"  />
<path  style="fill:hsl(244,100%,0%); " fill-rule="evenodd"   d="M 140.08740959706478 -144.83164676327104 L 52.08740959706478 -144.83164676327104 52.08740959706478 -56.83164676327104 140.08740959706478 -56.83164676327104 Z"  />
<path  style="fill:hsl(243,100%,66.5%); " fill-rule="evenodd"   d="M 139.3458181694296 -144.6269465723032 L 53.34581816942959 -144.6269465723032 53.34581816942959 -58.62694657230321 139.3458181694296 -58.62694657230321 Z"  />
<path  style="fill:hsl(242,100%,0%); " fill-rule="evenodd"   d="M 138.76393202250023 -144.3511410091699 L 54.763932022500214 -144.3511410091699 54.763932022500214 -60.35114100916989 138.76393202250023 -60.35114100916989 Z"  />
<path  style="fill:hsl(241,100%,65.5%); " fill-rule="evenodd"   d="M 138.32347757456458 -143.97257930190958 L 56.32347757456458 -143.97257930190958 56.32347757456458 -61.972579301909576 138.32347757456458 -61.972579301909576 Z"  />
<path  style="fill:hsl(240,100%,0%); " fill-rule="evenodd"   d="M 138 -143.46410161513774 L 58 -143.46410161513774 58 -63.46410161513775 138 -63.46410161513775 Z"  />
<path  style="fill:hsl(239,100%,64.5%); " fill-rule="evenodd"   d="M 137.76393202250023 -142.80422606518061 L 59.763932022500214 -142.80422606518061 59.763932022500214 -64.80422606518061 137.76393202250023 -64.80422606518061 Z"  />
<path  style="fill:hsl(238,100%,0%); " fill-rule="evenodd"   d="M 137.58188614692938 -141.9780875814731 L 61.58188614692939 -141.9780875814731 61.58188614692939 -65.97808758147309 137.58188614692938 -65.97808758147309 Z"  />
<path  style="fill:hsl(237,100%,63.5%); " fill-rule="evenodd"   d="M 137.41811385307062 -140.9780875814731 L 63.41811385307061 -140.9780875814731 63.41811385307061 -66.97808758147309 137.41811385307062 -66.97808758147309 Z"  />
<path  style="fill:hsl(236,100%,0%); " fill-rule="evenodd"   d="M 137.23606797749977 -139.80422606518061 L 65.23606797749979 -139.80422606518061 65.23606797749979 -67.80422606518061 137.23606797749977 -67.80422606518061 Z"  />
<path  style="fill:hsl(235,100%,62.5%); " fill-rule="evenodd"   d="M 137 -138.46410161513774 L 67 -138.46410161513774 67 -68.46410161513775 137 -68.46410161513775 Z"  />
<path  style="fill:hsl(234,100%,0%); " fill-rule="evenodd"   d="M 136.67652242543545 -136.97257930190958 L 68.67652242543544 -136.97257930190958 68.67652242543544 -68.97257930190958 136.67652242543545 -68.97257930190958 Z"  />
<path  style="fill:hsl(233,100%,61.5%); " fill-rule="evenodd"   d="M 136.23606797749977 -135.3511410091699 L 70.23606797749979 -135.3511410091699 70.23606797749979 -69.3511410091699 136.23606797749977 -69.3511410091699 Z"  />
<path  style="fill:hsl(232,100%,0%); " fill-rule="evenodd"   d="M 135.6541818305704 -133.6269465723032 L 71.65418183057041 -133.6269465723032 71.65418183057041 -69.6269465723032 135.6541818305704 -69.6269465723032 Z"  />
<path  style="fill:hsl(231,100%,60.5%); " fill-rule="evenodd"   d="M 134.91259040293522 -131.83164676327104 L 72.91259040293522 -131.83164676327104 72.91259040293522 -69.83164676327104 134.91259040293522 -69.83164676327104 Z"  />
<path  style="fill:hsl(230,100%,0%); " fill-rule="evenodd"   d="M 134 -130 L 74 -130 74 -70 134 -70 Z"  />
<path  style="fill:hsl(229,100%,59.5%); " fill-rule="evenodd"   d="M 132.91259040293522 -128.16835323672896 L 74.91259040293522 -128.16835323672896 74.91259040293522 -70.16835323672896 132.91259040293522 -70.16835323672896 Z"  />
<path  style="fill:hsl(228,100%,0%); " fill-rule="evenodd"   d="M 131.6541818305704 -126.3730534276968 L 75.65418183057041 -126.3730534276968 75.65418183057041 -70.3730534276968 131.6541818305704 -70.3730534276968 Z"  />
<path  style="fill:hsl(227,100%,58.5%); " fill-rule="evenodd"   d="M 130.23606797749977 -124.6488589908301 L 76.23606797749979 -124.6488589908301 76.23606797749979 -70.6488589908301 130.23606797749977 -70.6488589908301 Z"  />
<path  style="fill:hsl(226,100%,0%); " fill-rule="evenodd"   d="M 128.67652242543545 -123.02742069809042 L 76.67652242543544 -123.02742069809042 76.67652242543544 -71.02742069809042 128.67652242543545 -71.02742069809042 Z"  />
<path  style="fill:hsl(225,100%,57.5%); " fill-rule="evenodd"   d="M 127 -121.53589838486225 L 77 -121.53589838486225 77 -71.53589838486225 127 -71.53589838486225 Z"  />
<path  style="fill:hsl(224,100%,0%); " fill-rule="evenodd"   d="M 125.23606797749979 -120.19577393481939 L 77.23606797749979 -120.19577393481939 77.23606797749979 -72.19577393481939 125.23606797749979 -72.19577393481939 Z"  />
<path  style="fill:hsl(223,100%,56.5%); " fill-rule="evenodd"   d="M 123.41811385307061 -119.02191241852691 L 77.41811385307061 -119.02191241852691 77.41811385307061 -73.02191241852691 123.41811385307061 -73.02191241852691 Z"  />
<path  style="fill:hsl(222,100%,0%); " fill-rule="evenodd"   d="M 121.58188614692938 -118.02191241852691 L 77.58188614692938 -118.02191241852691 77.58188614692938 -74.02191241852691 121.58188614692938 -74.02191241852691 Z"  />
<path  style="fill:hsl(221,100%,55.5%); " fill-rule="evenodd"   d="M 119.76393202250021 -117.19577393481939 L 77.76393202250021 -117.19577393481939 77.76393202250021 -75.19577393481939 119.76393202250021 -75.19577393481939 Z"  />
<path  style="fill:hsl(220,100%,0%); " fill-rule="evenodd"   d="M 118 -116.53589838486225 L 78 -116.53589838486225 78 -76.53589838486225 118 -76.53589838486225 Z"  />
<path  style="fill:hsl(219,100%,54.5%); " fill-rule="evenodd"   d="M 116.32347757456456 -116.02742069809042 L 78.32347757456456 -116.02742069809042 78.32347757456456 -78.02742069809042 116.32347757456456 -78.02742069809042 Z"  />
<path  style="fill:hsl(218,100%,0%); " fill-rule="evenodd"   d="M 114.76393202250021 -115.6488589908301 L 78.76393202250021 -115.6488589908301 78.76393202250021 -79.6488589908301 114.76393202250021 -79.6488589908301 Z"  />
<path  style="fill:hsl(217,100%,53.5%); " fill-rule="evenodd"   d="M 113.34581816942959 -115.3730534276968 L 79.34581816942959 -115.3730534276968 79.34581816942959 -81.3730534276968 113.34581816942959 -81.3730534276968 Z"  />
<path  style="fill:hsl(216,100%,0%); " fill-rule="evenodd"   d="M 112.08740959706478 -115.16835323672896 L 80.08740959706478 -115.16835323672896 80.08740959706478 -83.16835323672896 112.08740959706478 -83.16835323672896 Z"  />
<path  style="fill:hsl(215,100%,52.5%); " fill-rule="evenodd"   d="M 111 -115 L 81 -115 81 -85 111 -85 Z"  />
<path  style="fill:hsl(214,100%,0%); " fill-rule="evenodd"   d="M 110.08740959706478 -114.83164676327104 L 82.08740959706478 -114.83164676327104 82.08740959706478 -86.83164676327104 110.08740959706478 -86.83164676327104 Z"  />
<path  style="fill:hsl(213,100%,51.5%); " fill-rule="evenodd"   d="M 109.34581816942959 -114.6269465723032 L 83.34581816942959 -114.6269465723032 83.34581816942959 -88.6269465723032 109.34581816942959 -88.6269465723032 Z"  />
<path  style="fill:hsl(212,100%,0%); " fill-rule="evenodd"   d="M 108.76393202250021 -114.3511410091699 L 84.76393202250021 -114.3511410091699 84.76393202250021 -90.3511410091699 108.76393202250021 -90.3511410091699 Z"  />
<path  style="fill:hsl(211,100%,50.5%); " fill-rule="evenodd"   d="M 108.32347757456456 -113.97257930190958 L 86.32347757456456 -113.97257930190958 86.32347757456456 -91.97257930190958 108.32347757456456 -91.97257930190958 Z"  />
<path  style="fill:hsl(210,100%,0%); " fill-rule="evenodd"   d="M 108 -113.46410161513775 L 88 -113.46410161513775 88 -93.46410161513775 108 -93.46410161513775 Z"  />
<path  style="fill:hsl(209,100%,49.5%); " fill-rule="evenodd"   d="M 107.76393202250021 -112.80422606518061 L 89.76393202250021 -112.80422606518061 89.76393202250021 -94.80422606518061 107.76393202250021 -94.80422606518061 Z"  />
<path  style="fill:hsl(208,100%,0%); " fill-rule="evenodd"   d="M 107.58188614692939 -111.97808758147309 L 91.58188614692939 -111.97808758147309 91.58188614692939 -95.97808758147309 107.58188614692939 -95.97808758147309 Z"  />
<path  style="fill:hsl(207,100%,48.5%); " fill-rule="evenodd"   d="M 107.41811385307061 -110.97808758147309 L 93.41811385307061 -110.97808758147309 93.41811385307061 -96.97808758147309 107.41811385307061 -96.97808758147309 Z"  />
<path  style="fill:hsl(206,100%,0%); " fill-rule="evenodd"   d="M 107.23606797749979 -109.80422606518061 L 95.23606797749979 -109.80422606518061 95.23606797749979 -97.80422606518061 107.23606797749979 -97.80422606518061 Z"  />
<path  style="fill:hsl(205,100%,47.5%); " fill-rule="evenodd"   d="M 107 -108.46410161513775 L 97 -108.46410161513775 97 -98.46410161513775 107 -98.46410161513775 Z"  />
<path  style="fill:hsl(204,100%,0%); " fill-rule="evenodd"   d="M 106.67652242543544 -106.97257930190958 L 98.67652242543544 -106.97257930190958 98.67652242543544 -98.97257930190958 106.67652242543544 -98.97257930190958 Z"  />
<path  style="fill:hsl(203,100%,46.5%); " fill-rule="evenodd"   d="M 106.23606797749979 -105.3511410091699 L 100.23606797749979 -105.3511410091699 100.23606797749979 -99.3511410091699 106.23606797749979 -99.3511410091699 Z"  />
<path  style="fill:hsl(202,100%,0%); " fill-rule="evenodd"   d="M 105.65418183057041 -103.6269465723032 L 101.65418183057041 -103.6269465723032 101.65418183057041 -99.6269465723032 105.65418183057041 -99.6269465723032 Z"  />
<path  style="fill:hsl(201,100%,45.5%); " fill-rule="evenodd"   d="M 104.91259040293522 -101.83164676327104 L 102.91259040293522 -101.83164676327104 102.91259040293522 -99.83164676327104 104.91259040293522 -99.83164676327104 Z"  />
</svg>
