<svg xmlns="http://www.w3.org/2000/svg" viewBox="55.992608180923426 -138.73647603159418 83.99999999999999 73.01408311032398"  style="background-color:#ffffff; " > 
<path  style="fill:hsl(198,100%,58.666666666666664%); " fill-rule="evenodd"   d="M 56.992608180923426 -102.22943447643219 L 77.49260818092343 -137.73647603159418 118.49260818092343 -137.73647603159418 138.9926081809234 -102.22943447643219 118.49260818092343 -66.7223929212702 77.49260818092343 -66.7223929212702 Z"  />
<path  style="fill:hsl(200,100%,0%); " fill-rule="evenodd"   d="M 58.5 -102.59807621135332 L 78.5 -137.23909236273084 118.5 -137.23909236273084 138.5 -102.59807621135332 118.5 -67.95706005997577 78.5 -67.95706005997577 Z"  />
<path  style="fill:hsl(202,100%,58%); " fill-rule="evenodd"   d="M 60.07294901687516 -102.85316954888546 L 79.57294901687516 -136.62816029647857 118.57294901687516 -136.62816029647857 138.07294901687516 -102.85316954888546 118.57294901687516 -69.07817880129235 79.57294901687516 -69.07817880129235 Z"  />
<path  style="fill:hsl(204,100%,0%); " fill-rule="evenodd"   d="M 61.68641461019705 -102.98356568610482 L 80.68641461019705 -135.8925310299135 118.68641461019705 -135.8925310299135 137.68641461019706 -102.98356568610482 118.68641461019705 -70.07460034229615 80.68641461019705 -70.07460034229615 Z"  />
<path  style="fill:hsl(206,100%,57.333333333333336%); " fill-rule="evenodd"   d="M 63.31358538980297 -102.98356568610482 L 81.81358538980297 -135.02650562612905 118.81358538980297 -135.02650562612905 137.31358538980297 -102.98356568610482 118.81358538980297 -70.9406257460806 81.81358538980297 -70.9406257460806 Z"  />
<path  style="fill:hsl(208,100%,0%); " fill-rule="evenodd"   d="M 64.92705098312484 -102.85316954888546 L 82.92705098312484 -134.03008408512525 118.92705098312484 -134.03008408512525 136.92705098312484 -102.85316954888546 118.92705098312484 -71.67625501264567 82.92705098312484 -71.67625501264567 Z"  />
<path  style="fill:hsl(210,100%,56.666666666666664%); " fill-rule="evenodd"   d="M 66.5 -102.59807621135332 L 84 -132.90896534380866 119 -132.90896534380866 136.5 -102.59807621135332 119 -72.28718707889797 84 -72.28718707889797 Z"  />
<path  style="fill:hsl(212,100%,0%); " fill-rule="evenodd"   d="M 68.00739181907657 -102.22943447643219 L 85.00739181907657 -131.6742982051031 119.00739181907657 -131.6742982051031 136.0073918190766 -102.22943447643219 119.00739181907657 -72.78457074776128 85.00739181907657 -72.78457074776128 Z"  />
<path  style="fill:hsl(214,100%,56%); " fill-rule="evenodd"   d="M 69.42705098312484 -101.76335575687742 L 85.92705098312484 -130.3421940817639 118.92705098312484 -130.3421940817639 135.42705098312484 -101.76335575687742 118.92705098312484 -73.18451743199094 85.92705098312484 -73.18451743199094 Z"  />
<path  style="fill:hsl(216,100%,0%); " fill-rule="evenodd"   d="M 70.74063637292781 -101.2202099292274 L 86.74063637292781 -128.93302285032942 118.74063637292781 -128.93302285032942 134.7406363729278 -101.2202099292274 118.74063637292781 -73.50739700812537 86.74063637292781 -73.50739700812537 Z"  />
<path  style="fill:hsl(218,100%,55.333333333333336%); " fill-rule="evenodd"   d="M 71.93444280220142 -100.62373507245327 L 87.43444280220142 -127.47052258977087 118.43444280220142 -127.47052258977087 133.93444280220143 -100.62373507245327 118.43444280220142 -73.77694755513568 87.43444280220142 -73.77694755513568 Z"  />
<path  style="fill:hsl(220,100%,0%); " fill-rule="evenodd"   d="M 73 -100 L 88 -125.98076211353316 118 -125.98076211353316 133 -100 118 -74.01923788646684 88 -74.01923788646684 Z"  />
<path  style="fill:hsl(222,100%,54.666666666666664%); " fill-rule="evenodd"   d="M 73.93444280220142 -99.37626492754673 L 88.43444280220142 -124.49100163729545 117.43444280220142 -124.49100163729545 131.93444280220143 -99.37626492754673 117.43444280220142 -74.261528217798 88.43444280220142 -74.261528217798 Z"  />
<path  style="fill:hsl(224,100%,0%); " fill-rule="evenodd"   d="M 74.74063637292781 -98.7797900707726 L 88.74063637292781 -123.02850137673688 116.74063637292781 -123.02850137673688 130.7406363729278 -98.7797900707726 116.74063637292781 -74.53107876480833 88.74063637292781 -74.53107876480833 Z"  />
<path  style="fill:hsl(226,100%,54%); " fill-rule="evenodd"   d="M 75.42705098312484 -98.23664424312258 L 88.92705098312484 -121.61933014530243 115.92705098312484 -121.61933014530243 129.42705098312484 -98.23664424312258 115.92705098312484 -74.85395834094274 88.92705098312484 -74.85395834094274 Z"  />
<path  style="fill:hsl(228,100%,0%); " fill-rule="evenodd"   d="M 76.00739181907657 -97.77056552356783 L 89.00739181907657 -120.28722602196322 115.00739181907657 -120.28722602196322 128.0073918190766 -97.77056552356783 115.00739181907657 -75.25390502517243 89.00739181907657 -75.25390502517243 Z"  />
<path  style="fill:hsl(230,100%,53.333333333333336%); " fill-rule="evenodd"   d="M 76.5 -97.40192378864668 L 89 -119.05255888325765 114 -119.05255888325765 126.5 -97.40192378864668 114 -75.75128869403572 89 -75.75128869403572 Z"  />
<path  style="fill:hsl(232,100%,0%); " fill-rule="evenodd"   d="M 76.92705098312484 -97.14683045111454 L 88.92705098312484 -117.93144014194107 112.92705098312484 -117.93144014194107 124.92705098312484 -97.14683045111454 112.92705098312484 -76.36222076028801 88.92705098312484 -76.36222076028801 Z"  />
<path  style="fill:hsl(234,100%,52.666666666666664%); " fill-rule="evenodd"   d="M 77.31358538980295 -97.01643431389518 L 88.81358538980295 -116.93501860093727 111.81358538980295 -116.93501860093727 123.31358538980295 -97.01643431389518 111.81358538980295 -77.09785002685308 88.81358538980295 -77.09785002685308 Z"  />
<path  style="fill:hsl(236,100%,0%); " fill-rule="evenodd"   d="M 77.68641461019703 -97.01643431389518 L 88.68641461019703 -116.06899319715282 110.68641461019703 -116.06899319715282 121.68641461019703 -97.01643431389518 110.68641461019703 -77.96387543063753 88.68641461019703 -77.96387543063753 Z"  />
<path  style="fill:hsl(238,100%,52%); " fill-rule="evenodd"   d="M 78.07294901687516 -97.14683045111454 L 88.57294901687516 -115.33336393058775 109.57294901687516 -115.33336393058775 120.07294901687516 -97.14683045111454 109.57294901687516 -78.96029697164133 88.57294901687516 -78.96029697164133 Z"  />
<path  style="fill:hsl(240,100%,0%); " fill-rule="evenodd"   d="M 78.5 -97.40192378864668 L 88.5 -114.72243186433545 108.5 -114.72243186433545 118.5 -97.40192378864668 108.5 -80.08141571295792 88.5 -80.08141571295792 Z"  />
<path  style="fill:hsl(242,100%,51.333333333333336%); " fill-rule="evenodd"   d="M 78.99260818092343 -97.77056552356783 L 88.49260818092343 -114.22504819547216 107.49260818092343 -114.22504819547216 116.99260818092343 -97.77056552356783 107.49260818092343 -81.3160828516635 88.49260818092343 -81.3160828516635 Z"  />
<path  style="fill:hsl(244,100%,0%); " fill-rule="evenodd"   d="M 79.57294901687516 -98.23664424312258 L 88.57294901687516 -113.82510151124248 106.57294901687516 -113.82510151124248 115.57294901687516 -98.23664424312258 106.57294901687516 -82.64818697500269 88.57294901687516 -82.64818697500269 Z"  />
<path  style="fill:hsl(246,100%,50.666666666666664%); " fill-rule="evenodd"   d="M 80.25936362707219 -98.7797900707726 L 88.75936362707219 -113.50222193510807 105.75936362707219 -113.50222193510807 114.25936362707219 -98.7797900707726 105.75936362707219 -84.05735820643714 88.75936362707219 -84.05735820643714 Z"  />
<path  style="fill:hsl(248,100%,0%); " fill-rule="evenodd"   d="M 81.06555719779858 -99.37626492754673 L 89.06555719779858 -113.23267138809774 105.06555719779858 -113.23267138809774 113.06555719779858 -99.37626492754673 105.06555719779858 -85.51985846699571 89.06555719779858 -85.51985846699571 Z"  />
<path  style="fill:hsl(250,100%,50%); " fill-rule="evenodd"   d="M 82 -100 L 89.5 -112.99038105676658 104.5 -112.99038105676658 112 -100 104.5 -87.00961894323342 89.5 -87.00961894323342 Z"  />
<path  style="fill:hsl(252,100%,0%); " fill-rule="evenodd"   d="M 83.06555719779858 -100.62373507245327 L 90.06555719779858 -112.74809072543542 104.06555719779858 -112.74809072543542 111.06555719779858 -100.62373507245327 104.06555719779858 -88.49937941947113 90.06555719779858 -88.49937941947113 Z"  />
<path  style="fill:hsl(254,100%,49.333333333333336%); " fill-rule="evenodd"   d="M 84.25936362707219 -101.2202099292274 L 90.75936362707219 -112.47854017842509 103.75936362707219 -112.47854017842509 110.25936362707219 -101.2202099292274 103.75936362707219 -89.9618796800297 90.75936362707219 -89.9618796800297 Z"  />
<path  style="fill:hsl(256,100%,0%); " fill-rule="evenodd"   d="M 85.57294901687516 -101.76335575687742 L 91.57294901687516 -112.15566060229068 103.57294901687516 -112.15566060229068 109.57294901687516 -101.76335575687742 103.57294901687516 -91.37105091146415 91.57294901687516 -91.37105091146415 Z"  />
<path  style="fill:hsl(258,100%,48.666666666666664%); " fill-rule="evenodd"   d="M 86.99260818092343 -102.22943447643219 L 92.49260818092343 -111.75571391806102 103.49260818092343 -111.75571391806102 108.99260818092343 -102.22943447643219 103.49260818092343 -92.70315503480336 92.49260818092343 -92.70315503480336 Z"  />
<path  style="fill:hsl(260,100%,0%); " fill-rule="evenodd"   d="M 88.5 -102.59807621135332 L 93.5 -111.2583302491977 103.5 -111.2583302491977 108.5 -102.59807621135332 103.5 -93.93782217350893 93.5 -93.93782217350893 Z"  />
<path  style="fill:hsl(262,100%,48%); " fill-rule="evenodd"   d="M 90.07294901687516 -102.85316954888546 L 94.57294901687516 -110.64739818294541 103.57294901687516 -110.64739818294541 108.07294901687516 -102.85316954888546 103.57294901687516 -95.05894091482551 94.57294901687516 -95.05894091482551 Z"  />
<path  style="fill:hsl(264,100%,0%); " fill-rule="evenodd"   d="M 91.68641461019703 -102.98356568610482 L 95.68641461019703 -109.91176891638034 103.68641461019703 -109.91176891638034 107.68641461019703 -102.98356568610482 103.68641461019703 -96.05536245582931 95.68641461019703 -96.05536245582931 Z"  />
<path  style="fill:hsl(266,100%,47.333333333333336%); " fill-rule="evenodd"   d="M 93.31358538980297 -102.98356568610482 L 96.81358538980297 -109.04574351259589 103.81358538980297 -109.04574351259589 107.31358538980297 -102.98356568610482 103.81358538980297 -96.92138785961376 96.81358538980297 -96.92138785961376 Z"  />
<path  style="fill:hsl(268,100%,0%); " fill-rule="evenodd"   d="M 94.92705098312484 -102.85316954888546 L 97.92705098312484 -108.0493219715921 103.92705098312484 -108.0493219715921 106.92705098312484 -102.85316954888546 103.92705098312484 -97.65701712617883 97.92705098312484 -97.65701712617883 Z"  />
<path  style="fill:hsl(270,100%,46.666666666666664%); " fill-rule="evenodd"   d="M 96.5 -102.59807621135332 L 99 -106.92820323027551 104 -106.92820323027551 106.5 -102.59807621135332 104 -98.26794919243112 99 -98.26794919243112 Z"  />
<path  style="fill:hsl(272,100%,0%); " fill-rule="evenodd"   d="M 98.00739181907657 -102.22943447643219 L 100.00739181907657 -105.69353609156994 104.00739181907657 -105.69353609156994 106.00739181907657 -102.22943447643219 104.00739181907657 -98.76533286129444 100.00739181907657 -98.76533286129444 Z"  />
<path  style="fill:hsl(274,100%,46%); " fill-rule="evenodd"   d="M 99.42705098312484 -101.76335575687742 L 100.92705098312484 -104.36143196823073 103.92705098312484 -104.36143196823073 105.42705098312484 -101.76335575687742 103.92705098312484 -99.1652795455241 100.92705098312484 -99.1652795455241 Z"  />
<path  style="fill:hsl(276,100%,0%); " fill-rule="evenodd"   d="M 100.74063637292781 -101.2202099292274 L 101.74063637292781 -102.95226073679628 103.74063637292781 -102.95226073679628 104.74063637292781 -101.2202099292274 103.74063637292781 -99.48815912165851 101.74063637292781 -99.48815912165851 Z"  />
<path  style="fill:hsl(278,100%,45.333333333333336%); " fill-rule="evenodd"   d="M 101.93444280220142 -100.62373507245327 L 102.43444280220142 -101.4897604762377 103.43444280220142 -101.4897604762377 103.93444280220142 -100.62373507245327 103.43444280220142 -99.75770966866884 102.43444280220142 -99.75770966866884 Z"  />
</svg>
